NotoSansKhmerUI-Regular.ufo
<glyph name="exclam" format="2">
  <advance width="269"/>
  <unicode hex="0021"/>
  <note>
exclam
</note>
  <outline>
    <contour>
      <point x="163" y="445" type="line"/>
      <point x="188" y="958" type="line"/>
      <point x="81" y="958" type="line"/>
      <point x="106" y="445" type="line"/>
    </contour>
    <contour>
      <point x="72" y="298" type="curve" smooth="yes"/>
      <point x="72" y="250"/>
      <point x="99" y="230"/>
      <point x="134" y="230" type="curve" smooth="yes"/>
      <point x="167" y="230"/>
      <point x="196" y="250"/>
      <point x="196" y="298" type="curve" smooth="yes"/>
      <point x="196" y="347"/>
      <point x="167" y="365"/>
      <point x="134" y="365" type="curve" smooth="yes"/>
      <point x="99" y="365"/>
      <point x="72" y="347"/>
    </contour>
  </outline>
</glyph>
<glyph name="quotedbl" format="2">
  <advance width="402"/>
  <unicode hex="0022"/>
  <note>
quotedbl
</note>
  <outline>
    <contour>
      <point x="85" y="700" type="line"/>
      <point x="141" y="700" type="line"/>
      <point x="161" y="958" type="line"/>
      <point x="65" y="958" type="line"/>
    </contour>
    <contour>
      <point x="261" y="700" type="line"/>
      <point x="317" y="700" type="line"/>
      <point x="337" y="958" type="line"/>
      <point x="241" y="958" type="line"/>
    </contour>
  </outline>
</glyph>
<glyph name="quotesingle" format="2">
  <advance width="226"/>
  <unicode hex="0027"/>
  <note>
quotesingle
</note>
  <outline>
    <contour>
      <point x="85" y="700" type="line"/>
      <point x="141" y="700" type="line"/>
      <point x="161" y="958" type="line"/>
      <point x="65" y="958" type="line"/>
    </contour>
  </outline>
</glyph>
<glyph name="parenright" format="2">
  <advance width="300"/>
  <unicode hex="0029"/>
  <note>
parenright
</note>
  <outline>
    <contour>
      <point x="260" y="518" type="curve" smooth="yes"/>
      <point x="260" y="681"/>
      <point x="214" y="837"/>
      <point x="113" y="958" type="curve"/>
      <point x="30" y="958" type="line"/>
      <point x="123" y="833"/>
      <point x="171" y="677"/>
      <point x="171" y="519" type="curve" smooth="yes"/>
      <point x="171" y="364"/>
      <point x="123" y="211"/>
      <point x="31" y="86" type="curve"/>
      <point x="113" y="86" type="line"/>
      <point x="214" y="203"/>
      <point x="260" y="357"/>
    </contour>
  </outline>
</glyph>
<glyph name="comma" format="2">
  <advance width="250"/>
  <unicode hex="002C"/>
  <note>
comma
</note>
  <outline>
    <contour>
      <point x="185" y="360" type="line"/>
      <point x="91" y="360" type="line"/>
      <point x="81" y="290"/>
      <point x="60" y="191"/>
      <point x="41" y="115" type="curve"/>
      <point x="106" y="115" type="line"/>
      <point x="138" y="187"/>
      <point x="174" y="278"/>
      <point x="192" y="349" type="curve"/>
    </contour>
  </outline>
</glyph>
<glyph name="slash" format="2">
  <advance width="373"/>
  <unicode hex="002F"/>
  <note>
slash
</note>
  <outline>
    <contour>
      <point x="10" y="244" type="line"/>
      <point x="97" y="244" type="line"/>
      <point x="363" y="958" type="line"/>
      <point x="276" y="958" type="line"/>
    </contour>
  </outline>
</glyph>
<glyph name="colon" format="2">
  <advance width="268"/>
  <unicode hex="003A"/>
  <note>
colon
</note>
  <outline>
    <contour>
      <point x="72" y="298" type="curve" smooth="yes"/>
      <point x="72" y="250"/>
      <point x="99" y="230"/>
      <point x="133" y="230" type="curve" smooth="yes"/>
      <point x="167" y="230"/>
      <point x="196" y="250"/>
      <point x="196" y="298" type="curve" smooth="yes"/>
      <point x="196" y="347"/>
      <point x="167" y="365"/>
      <point x="133" y="365" type="curve" smooth="yes"/>
      <point x="99" y="365"/>
      <point x="72" y="347"/>
    </contour>
    <contour>
      <point x="72" y="726" type="curve" smooth="yes"/>
      <point x="72" y="678"/>
      <point x="99" y="658"/>
      <point x="133" y="658" type="curve" smooth="yes"/>
      <point x="167" y="658"/>
      <point x="196" y="678"/>
      <point x="196" y="726" type="curve" smooth="yes"/>
      <point x="196" y="776"/>
      <point x="167" y="794"/>
      <point x="133" y="794" type="curve" smooth="yes"/>
      <point x="99" y="794"/>
      <point x="72" y="776"/>
    </contour>
  </outline>
</glyph>
<glyph name="semicolon" format="2">
  <advance width="268"/>
  <unicode hex="003B"/>
  <note>
semicolon
</note>
  <outline>
    <contour>
      <point x="176" y="360" type="line"/>
      <point x="82" y="360" type="line"/>
      <point x="72" y="290"/>
      <point x="50" y="190"/>
      <point x="31" y="115" type="curve"/>
      <point x="97" y="115" type="line"/>
      <point x="129" y="186"/>
      <point x="165" y="279"/>
      <point x="183" y="349" type="curve"/>
    </contour>
    <contour>
      <point x="70" y="726" type="curve" smooth="yes"/>
      <point x="70" y="678"/>
      <point x="97" y="658"/>
      <point x="131" y="658" type="curve" smooth="yes"/>
      <point x="166" y="658"/>
      <point x="194" y="678"/>
      <point x="194" y="726" type="curve" smooth="yes"/>
      <point x="194" y="776"/>
      <point x="166" y="794"/>
      <point x="131" y="794" type="curve" smooth="yes"/>
      <point x="97" y="794"/>
      <point x="70" y="776"/>
    </contour>
  </outline>
</glyph>
<glyph name="question" format="2">
  <advance width="434"/>
  <unicode hex="003F"/>
  <note>
question
</note>
  <outline>
    <contour>
      <point x="140" y="445" type="line"/>
      <point x="210" y="445" type="line"/>
      <point x="210" y="462" type="line" smooth="yes"/>
      <point x="210" y="519"/>
      <point x="223" y="545"/>
      <point x="290" y="602" type="curve" smooth="yes"/>
      <point x="362" y="662"/>
      <point x="408" y="703"/>
      <point x="408" y="793" type="curve" smooth="yes"/>
      <point x="408" y="901"/>
      <point x="336" y="968"/>
      <point x="209" y="968" type="curve" smooth="yes"/>
      <point x="129" y="968"/>
      <point x="65" y="947"/>
      <point x="12" y="919" type="curve"/>
      <point x="43" y="849" type="line"/>
      <point x="89" y="871"/>
      <point x="137" y="891"/>
      <point x="203" y="891" type="curve" smooth="yes"/>
      <point x="281" y="891"/>
      <point x="324" y="855"/>
      <point x="324" y="791" type="curve" smooth="yes"/>
      <point x="324" y="731"/>
      <point x="301" y="707"/>
      <point x="224" y="642" type="curve" smooth="yes"/>
      <point x="159" y="587"/>
      <point x="140" y="547"/>
      <point x="140" y="472" type="curve" smooth="yes"/>
    </contour>
    <contour>
      <point x="117" y="298" type="curve" smooth="yes"/>
      <point x="117" y="250"/>
      <point x="143" y="230"/>
      <point x="179" y="230" type="curve" smooth="yes"/>
      <point x="212" y="230"/>
      <point x="240" y="250"/>
      <point x="240" y="298" type="curve" smooth="yes"/>
      <point x="240" y="347"/>
      <point x="212" y="365"/>
      <point x="179" y="365" type="curve" smooth="yes"/>
      <point x="143" y="365"/>
      <point x="117" y="347"/>
    </contour>
  </outline>
</glyph>
<glyph name="guillemotleft" format="2">
  <advance width="509"/>
  <unicode hex="00AB"/>
  <note>
guillemotleft
</note>
  <outline>
    <contour>
      <point x="40" y="514" type="line"/>
      <point x="40" y="501" type="line"/>
      <point x="208" y="300" type="line"/>
      <point x="271" y="337" type="line"/>
      <point x="131" y="508" type="line"/>
      <point x="271" y="679" type="line"/>
      <point x="208" y="715" type="line"/>
    </contour>
    <contour>
      <point x="238" y="514" type="line"/>
      <point x="238" y="501" type="line"/>
      <point x="408" y="300" type="line"/>
      <point x="470" y="337" type="line"/>
      <point x="330" y="508" type="line"/>
      <point x="470" y="679" type="line"/>
      <point x="408" y="715" type="line"/>
    </contour>
  </outline>
</glyph>
<glyph name="uni00AD" format="2">
  <advance width="322"/>
  <unicode hex="00AD"/>
  <note>
uni00AD
</note>
  <outline>
    <contour>
      <point x="40" y="715" type="line"/>
      <point x="282" y="715" type="line"/>
      <point x="282" y="797" type="line"/>
      <point x="40" y="797" type="line"/>
    </contour>
  </outline>
</glyph>
<glyph name="guillemotright" format="2">
  <advance width="509"/>
  <unicode hex="00BB"/>
  <note>
guillemotright
</note>
  <outline>
    <contour>
      <point x="469" y="501" type="line"/>
      <point x="469" y="514" type="line"/>
      <point x="299" y="715" type="line"/>
      <point x="237" y="679" type="line"/>
      <point x="377" y="508" type="line"/>
      <point x="237" y="337" type="line"/>
      <point x="299" y="300" type="line"/>
    </contour>
    <contour>
      <point x="270" y="501" type="line"/>
      <point x="270" y="514" type="line"/>
      <point x="101" y="715" type="line"/>
      <point x="39" y="679" type="line"/>
      <point x="179" y="508" type="line"/>
      <point x="39" y="337" type="line"/>
      <point x="101" y="300" type="line"/>
    </contour>
  </outline>
</glyph>
<glyph name="uni1780" format="2">
  <advance width="636"/>
  <unicode hex="1780"/>
  <note>
uni1780
</note>
  <outline>
    <contour>
      <point x="98" y="713" type="line"/>
      <point x="538" y="713" type="line"/>
      <point x="538" y="780" type="line"/>
      <point x="98" y="780" type="line"/>
    </contour>
    <contour>
      <point x="98" y="244" type="line"/>
      <point x="190" y="244" type="line"/>
      <point x="190" y="487" type="line" smooth="yes"/>
      <point x="190" y="547"/>
      <point x="233" y="578"/>
      <point x="318" y="578" type="curve" smooth="yes"/>
      <point x="404" y="578"/>
      <point x="446" y="547"/>
      <point x="446" y="487" type="curve" smooth="yes"/>
      <point x="446" y="244" type="line"/>
      <point x="538" y="244" type="line"/>
      <point x="538" y="487" type="line" smooth="yes"/>
      <point x="538" y="592"/>
      <point x="465" y="645"/>
      <point x="318" y="645" type="curve" smooth="yes"/>
      <point x="172" y="645"/>
      <point x="98" y="592"/>
      <point x="98" y="487" type="curve" smooth="yes"/>
    </contour>
  </outline>
</glyph>
<glyph name="uni1781" format="2">
  <advance width="635"/>
  <unicode hex="1781"/>
  <note>
uni1781
</note>
  <outline>
    <contour>
      <point x="317" y="244" type="curve" smooth="yes"/>
      <point x="480" y="244"/>
      <point x="537" y="312"/>
      <point x="537" y="402" type="curve" smooth="yes"/>
      <point x="537" y="448" type="line"/>
      <point x="445" y="448" type="line"/>
      <point x="445" y="402" type="line" smooth="yes"/>
      <point x="445" y="342"/>
      <point x="412" y="311"/>
      <point x="317" y="311" type="curve" smooth="yes"/>
      <point x="223" y="311"/>
      <point x="190" y="342"/>
      <point x="190" y="402" type="curve" smooth="yes"/>
      <point x="190" y="425" type="line"/>
      <point x="276" y="438" type="line" smooth="yes"/>
      <point x="450" y="464"/>
      <point x="537" y="524"/>
      <point x="537" y="632" type="curve" smooth="yes"/>
      <point x="537" y="712"/>
      <point x="480" y="780"/>
      <point x="317" y="780" type="curve" smooth="yes"/>
      <point x="155" y="780"/>
      <point x="98" y="709"/>
      <point x="98" y="639" type="curve" smooth="yes"/>
      <point x="98" y="573"/>
      <point x="147" y="545"/>
      <point x="196" y="545" type="curve" smooth="yes"/>
      <point x="238" y="545" type="line"/>
      <point x="238" y="615" type="line"/>
      <point x="206" y="615"/>
      <point x="189" y="626"/>
      <point x="189" y="650" type="curve" smooth="yes"/>
      <point x="189" y="679"/>
      <point x="223" y="713"/>
      <point x="317" y="713" type="curve" smooth="yes"/>
      <point x="412" y="713"/>
      <point x="445" y="682"/>
      <point x="445" y="629" type="curve" smooth="yes"/>
      <point x="445" y="560"/>
      <point x="387" y="522"/>
      <point x="271" y="505" type="curve" smooth="yes"/>
      <point x="98" y="480" type="line"/>
      <point x="98" y="402" type="line" smooth="yes"/>
      <point x="98" y="312"/>
      <point x="155" y="244"/>
    </contour>
  </outline>
</glyph>
<glyph name="uni1782" format="2">
  <advance width="635"/>
  <unicode hex="1782"/>
  <note>
uni1782
</note>
  <outline>
    <contour>
      <point x="98" y="713" type="line"/>
      <point x="537" y="713" type="line"/>
      <point x="537" y="780" type="line"/>
      <point x="98" y="780" type="line"/>
    </contour>
    <contour>
      <point x="98" y="244" type="line"/>
      <point x="189" y="244" type="line"/>
      <point x="189" y="286" type="line"/>
      <point x="203" y="341"/>
      <point x="224" y="372"/>
      <point x="291" y="372" type="curve" smooth="yes"/>
      <point x="342" y="372" type="line"/>
      <point x="342" y="439" type="line"/>
      <point x="280" y="439" type="line" smooth="yes"/>
      <point x="242" y="439"/>
      <point x="212" y="426"/>
      <point x="189" y="400" type="curve"/>
      <point x="189" y="487" type="line" smooth="yes"/>
      <point x="189" y="547"/>
      <point x="232" y="577"/>
      <point x="317" y="577" type="curve" smooth="yes"/>
      <point x="403" y="577"/>
      <point x="445" y="547"/>
      <point x="445" y="487" type="curve" smooth="yes"/>
      <point x="445" y="244" type="line"/>
      <point x="537" y="244" type="line"/>
      <point x="537" y="487" type="line" smooth="yes"/>
      <point x="537" y="592"/>
      <point x="464" y="645"/>
      <point x="317" y="645" type="curve" smooth="yes"/>
      <point x="171" y="645"/>
      <point x="98" y="592"/>
      <point x="98" y="487" type="curve" smooth="yes"/>
    </contour>
  </outline>
</glyph>
<glyph name="uni1783" format="2">
  <advance width="928"/>
  <unicode hex="1783"/>
  <note>
uni1783
</note>
  <outline>
    <contour>
      <point x="98" y="402" type="line" smooth="yes"/>
      <point x="98" y="297"/>
      <point x="167" y="244"/>
      <point x="305" y="244" type="curve" smooth="yes"/>
      <point x="378" y="244"/>
      <point x="432" y="260"/>
      <point x="467" y="292" type="curve"/>
      <point x="501" y="260"/>
      <point x="554" y="244"/>
      <point x="625" y="244" type="curve" smooth="yes"/>
      <point x="762" y="244"/>
      <point x="830" y="297"/>
      <point x="830" y="402" type="curve" smooth="yes"/>
      <point x="830" y="573" type="line"/>
      <point x="738" y="573" type="line"/>
      <point x="738" y="402" type="line" smooth="yes"/>
      <point x="738" y="342"/>
      <point x="701" y="311"/>
      <point x="625" y="311" type="curve" smooth="yes"/>
      <point x="550" y="311"/>
      <point x="513" y="342"/>
      <point x="513" y="402" type="curve" smooth="yes"/>
      <point x="513" y="566" type="line"/>
      <point x="421" y="566" type="line"/>
      <point x="421" y="402" type="line" smooth="yes"/>
      <point x="421" y="342"/>
      <point x="382" y="311"/>
      <point x="305" y="311" type="curve" smooth="yes"/>
      <point x="228" y="311"/>
      <point x="190" y="342"/>
      <point x="190" y="402" type="curve" smooth="yes"/>
      <point x="190" y="730" type="line" smooth="yes"/>
      <point x="190" y="763"/>
      <point x="165" y="780"/>
      <point x="116" y="780" type="curve" smooth="yes"/>
      <point x="29" y="780" type="line"/>
      <point x="29" y="713" type="line"/>
      <point x="75" y="713"/>
      <point x="98" y="704"/>
      <point x="98" y="680" type="curve" smooth="yes"/>
    </contour>
    <contour>
      <point x="738" y="555" type="line"/>
      <point x="830" y="555" type="line"/>
      <point x="830" y="604" type="line"/>
      <point x="733" y="712" type="line"/>
      <point x="733" y="713" type="line"/>
      <point x="854" y="713" type="line"/>
      <point x="854" y="780" type="line"/>
      <point x="733" y="780" type="line"/>
      <point x="679" y="709"/>
      <point x="669" y="696"/>
      <point x="669" y="685" type="curve" smooth="yes"/>
      <point x="669" y="672"/>
      <point x="675" y="665"/>
      <point x="738" y="588" type="curve"/>
    </contour>
    <contour>
      <point x="421" y="555" type="line"/>
      <point x="513" y="555" type="line"/>
      <point x="513" y="604" type="line"/>
      <point x="416" y="712" type="line"/>
      <point x="416" y="713" type="line"/>
      <point x="537" y="713" type="line"/>
      <point x="537" y="780" type="line"/>
      <point x="416" y="780" type="line"/>
      <point x="362" y="709"/>
      <point x="352" y="696"/>
      <point x="352" y="685" type="curve" smooth="yes"/>
      <point x="352" y="672"/>
      <point x="358" y="665"/>
      <point x="421" y="588" type="curve"/>
    </contour>
  </outline>
</glyph>
<glyph name="uni1784" format="2">
  <advance width="635"/>
  <unicode hex="1784"/>
  <note>
uni1784
</note>
  <outline>
    <contour>
      <point x="97" y="244" type="line"/>
      <point x="204" y="244" type="line"/>
      <point x="318" y="347" type="line"/>
      <point x="431" y="244" type="line"/>
      <point x="537" y="244" type="line"/>
      <point x="537" y="555" type="line" smooth="yes"/>
      <point x="537" y="622"/>
      <point x="513" y="651"/>
      <point x="460" y="676" type="curve"/>
      <point x="478" y="693"/>
      <point x="484" y="710"/>
      <point x="484" y="734" type="curve" smooth="yes"/>
      <point x="484" y="777"/>
      <point x="453" y="813"/>
      <point x="394" y="813" type="curve" smooth="yes"/>
      <point x="332" y="813"/>
      <point x="304" y="773"/>
      <point x="304" y="737" type="curve" smooth="yes"/>
      <point x="304" y="711"/>
      <point x="314" y="690"/>
      <point x="334" y="676" type="curve"/>
      <point x="302" y="667"/>
      <point x="283" y="664"/>
      <point x="259" y="664" type="curve" smooth="yes"/>
      <point x="213" y="664"/>
      <point x="189" y="689"/>
      <point x="189" y="721" type="curve" smooth="yes"/>
      <point x="189" y="810" type="line"/>
      <point x="98" y="810" type="line"/>
      <point x="98" y="721" type="line" smooth="yes"/>
      <point x="98" y="637"/>
      <point x="170" y="597"/>
      <point x="259" y="597" type="curve" smooth="yes"/>
      <point x="306" y="597"/>
      <point x="352" y="613"/>
      <point x="398" y="629" type="curve"/>
      <point x="425" y="613"/>
      <point x="445" y="593"/>
      <point x="445" y="553" type="curve" smooth="yes"/>
      <point x="445" y="326" type="line"/>
      <point x="318" y="442" type="line"/>
      <point x="189" y="325" type="line"/>
      <point x="189" y="495" type="line" smooth="yes"/>
      <point x="189" y="542"/>
      <point x="167" y="566"/>
      <point x="122" y="566" type="curve" smooth="yes"/>
      <point x="49" y="566" type="line"/>
      <point x="49" y="499" type="line"/>
      <point x="82" y="499"/>
      <point x="97" y="492"/>
      <point x="97" y="471" type="curve" smooth="yes"/>
    </contour>
  </outline>
</glyph>
<glyph name="uni1785" format="2">
  <advance width="615"/>
  <unicode hex="1785"/>
  <note>
uni1785
</note>
  <outline>
    <contour>
      <point x="517" y="415" type="line"/>
      <point x="425" y="415" type="line"/>
      <point x="425" y="402" type="line" smooth="yes"/>
      <point x="425" y="342"/>
      <point x="383" y="311"/>
      <point x="297" y="311" type="curve" smooth="yes"/>
      <point x="212" y="311"/>
      <point x="170" y="342"/>
      <point x="170" y="402" type="curve" smooth="yes"/>
      <point x="170" y="594" type="line"/>
      <point x="117" y="654"/>
      <point x="96" y="677"/>
      <point x="96" y="694" type="curve" smooth="yes"/>
      <point x="96" y="697"/>
      <point x="100" y="704"/>
      <point x="108" y="713" type="curve"/>
      <point x="517" y="713" type="line"/>
      <point x="517" y="780" type="line"/>
      <point x="106" y="780" type="line"/>
      <point x="36" y="687"/>
      <point x="29" y="687"/>
      <point x="29" y="660" type="curve" smooth="yes"/>
      <point x="29" y="643"/>
      <point x="43" y="622"/>
      <point x="78" y="578" type="curve"/>
      <point x="78" y="402" type="line" smooth="yes"/>
      <point x="78" y="297"/>
      <point x="151" y="244"/>
      <point x="297" y="244" type="curve" smooth="yes"/>
      <point x="444" y="244"/>
      <point x="517" y="297"/>
      <point x="517" y="402" type="curve" smooth="yes"/>
    </contour>
    <contour>
      <point x="517" y="402" type="line"/>
      <point x="517" y="584" type="line" smooth="yes"/>
      <point x="517" y="623"/>
      <point x="486" y="643"/>
      <point x="435" y="643" type="curve" smooth="yes"/>
      <point x="368" y="643"/>
      <point x="313" y="607"/>
      <point x="313" y="541" type="curve" smooth="yes"/>
      <point x="313" y="481"/>
      <point x="357" y="449"/>
      <point x="425" y="449" type="curve"/>
      <point x="425" y="402" type="line"/>
    </contour>
    <contour>
      <point x="425" y="517" type="line"/>
      <point x="396" y="517"/>
      <point x="380" y="526"/>
      <point x="380" y="546" type="curve" smooth="yes"/>
      <point x="380" y="566"/>
      <point x="396" y="576"/>
      <point x="425" y="576" type="curve"/>
    </contour>
  </outline>
</glyph>
<glyph name="uni1786" format="2">
  <advance width="635"/>
  <unicode hex="1786"/>
  <note>
uni1786
</note>
  <outline>
    <contour>
      <point x="537" y="417" type="line"/>
      <point x="445" y="417" type="line"/>
      <point x="445" y="402" type="line" smooth="yes"/>
      <point x="445" y="362"/>
      <point x="439" y="311"/>
      <point x="402" y="311" type="curve" smooth="yes"/>
      <point x="369" y="311"/>
      <point x="343" y="357"/>
      <point x="318" y="384" type="curve" smooth="yes"/>
      <point x="286" y="418"/>
      <point x="263" y="433"/>
      <point x="190" y="439" type="curve"/>
      <point x="190" y="594" type="line"/>
      <point x="137" y="654"/>
      <point x="116" y="677"/>
      <point x="116" y="694" type="curve" smooth="yes"/>
      <point x="116" y="697"/>
      <point x="120" y="704"/>
      <point x="128" y="713" type="curve"/>
      <point x="537" y="713" type="line"/>
      <point x="537" y="780" type="line"/>
      <point x="126" y="780" type="line"/>
      <point x="56" y="687"/>
      <point x="49" y="687"/>
      <point x="49" y="660" type="curve" smooth="yes"/>
      <point x="49" y="643"/>
      <point x="63" y="622"/>
      <point x="98" y="578" type="curve"/>
      <point x="98" y="439" type="line"/>
      <point x="65" y="437"/>
      <point x="49" y="418"/>
      <point x="49" y="381" type="curve" smooth="yes"/>
      <point x="49" y="343"/>
      <point x="65" y="297"/>
      <point x="98" y="244" type="curve"/>
      <point x="190" y="244" type="line"/>
      <point x="190" y="372" type="line"/>
      <point x="243" y="367"/>
      <point x="253" y="349"/>
      <point x="294" y="305" type="curve" smooth="yes"/>
      <point x="326" y="271"/>
      <point x="360" y="244"/>
      <point x="404" y="244" type="curve" smooth="yes"/>
      <point x="486" y="244"/>
      <point x="537" y="308"/>
      <point x="537" y="402" type="curve" smooth="yes"/>
    </contour>
    <contour>
      <point x="537" y="402" type="line"/>
      <point x="537" y="584" type="line" smooth="yes"/>
      <point x="537" y="623"/>
      <point x="506" y="643"/>
      <point x="455" y="643" type="curve" smooth="yes"/>
      <point x="388" y="643"/>
      <point x="333" y="607"/>
      <point x="333" y="541" type="curve" smooth="yes"/>
      <point x="333" y="481"/>
      <point x="377" y="449"/>
      <point x="445" y="449" type="curve"/>
      <point x="445" y="402" type="line"/>
    </contour>
    <contour>
      <point x="445" y="517" type="line"/>
      <point x="416" y="517"/>
      <point x="400" y="526"/>
      <point x="400" y="546" type="curve" smooth="yes"/>
      <point x="400" y="566"/>
      <point x="416" y="576"/>
      <point x="445" y="576" type="curve"/>
    </contour>
  </outline>
</glyph>
<glyph name="uni1787" format="2">
  <advance width="635"/>
  <unicode hex="1787"/>
  <note>
uni1787
</note>
  <outline>
    <contour>
      <point x="98" y="244" type="line"/>
      <point x="204" y="244" type="line"/>
      <point x="318" y="347" type="line"/>
      <point x="431" y="244" type="line"/>
      <point x="537" y="244" type="line"/>
      <point x="537" y="603" type="line"/>
      <point x="445" y="603" type="line"/>
      <point x="445" y="326" type="line"/>
      <point x="318" y="442" type="line"/>
      <point x="190" y="325" type="line"/>
      <point x="190" y="552" type="line"/>
      <point x="137" y="612"/>
      <point x="116" y="635"/>
      <point x="116" y="652" type="curve" smooth="yes"/>
      <point x="116" y="655"/>
      <point x="120" y="662"/>
      <point x="128" y="671" type="curve"/>
      <point x="415" y="671" type="line" smooth="yes"/>
      <point x="504" y="671"/>
      <point x="537" y="701"/>
      <point x="537" y="762" type="curve" smooth="yes"/>
      <point x="537" y="782" type="line"/>
      <point x="445" y="782" type="line"/>
      <point x="445" y="762" type="line" smooth="yes"/>
      <point x="445" y="746"/>
      <point x="427" y="738"/>
      <point x="405" y="738" type="curve" smooth="yes"/>
      <point x="126" y="738" type="line"/>
      <point x="56" y="645"/>
      <point x="49" y="645"/>
      <point x="49" y="618" type="curve" smooth="yes"/>
      <point x="49" y="601"/>
      <point x="63" y="580"/>
      <point x="98" y="536" type="curve"/>
    </contour>
  </outline>
</glyph>
<glyph name="uni1788" format="2">
  <advance width="1251"/>
  <unicode hex="1788"/>
  <note>
uni1788
</note>
  <outline>
    <contour>
      <point x="1154" y="573" type="line"/>
      <point x="1062" y="573" type="line"/>
      <point x="1062" y="402" type="line" smooth="yes"/>
      <point x="1062" y="342"/>
      <point x="1024" y="311"/>
      <point x="949" y="311" type="curve" smooth="yes"/>
      <point x="874" y="311"/>
      <point x="836" y="342"/>
      <point x="836" y="402" type="curve" smooth="yes"/>
      <point x="836" y="573" type="line"/>
      <point x="744" y="573" type="line"/>
      <point x="744" y="402" type="line" smooth="yes"/>
      <point x="744" y="342"/>
      <point x="706" y="311"/>
      <point x="628" y="311" type="curve" smooth="yes"/>
      <point x="551" y="311"/>
      <point x="513" y="342"/>
      <point x="513" y="402" type="curve" smooth="yes"/>
      <point x="513" y="622" type="line" smooth="yes"/>
      <point x="513" y="727"/>
      <point x="443" y="780"/>
      <point x="305" y="780" type="curve" smooth="yes"/>
      <point x="167" y="780"/>
      <point x="98" y="727"/>
      <point x="98" y="622" type="curve" smooth="yes"/>
      <point x="98" y="473" type="line"/>
      <point x="190" y="473" type="line"/>
      <point x="190" y="622" type="line" smooth="yes"/>
      <point x="190" y="682"/>
      <point x="228" y="713"/>
      <point x="305" y="713" type="curve" smooth="yes"/>
      <point x="382" y="713"/>
      <point x="421" y="682"/>
      <point x="421" y="622" type="curve" smooth="yes"/>
      <point x="421" y="402" type="line" smooth="yes"/>
      <point x="421" y="297"/>
      <point x="490" y="244"/>
      <point x="628" y="244" type="curve" smooth="yes"/>
      <point x="702" y="244"/>
      <point x="755" y="260"/>
      <point x="790" y="292" type="curve"/>
      <point x="825" y="260"/>
      <point x="877" y="244"/>
      <point x="949" y="244" type="curve" smooth="yes"/>
      <point x="1085" y="244"/>
      <point x="1154" y="297"/>
      <point x="1154" y="402" type="curve" smooth="yes"/>
    </contour>
    <contour>
      <point x="98" y="491" type="line"/>
      <point x="98" y="304" type="line" smooth="yes"/>
      <point x="98" y="264"/>
      <point x="128" y="244"/>
      <point x="164" y="244" type="curve" smooth="yes"/>
      <point x="192" y="244" type="line" smooth="yes"/>
      <point x="250" y="244"/>
      <point x="296" y="288"/>
      <point x="296" y="357" type="curve" smooth="yes"/>
      <point x="296" y="431"/>
      <point x="251" y="463"/>
      <point x="190" y="463" type="curve"/>
      <point x="190" y="491" type="line" smooth="yes"/>
    </contour>
    <contour>
      <point x="190" y="311" type="curve"/>
      <point x="190" y="395" type="line"/>
      <point x="220" y="394"/>
      <point x="234" y="380"/>
      <point x="234" y="356" type="curve" smooth="yes"/>
      <point x="234" y="328"/>
      <point x="220" y="311"/>
    </contour>
    <contour>
      <point x="1062" y="555" type="line"/>
      <point x="1154" y="555" type="line"/>
      <point x="1154" y="604" type="line"/>
      <point x="1057" y="712" type="line"/>
      <point x="1057" y="713" type="line"/>
      <point x="1178" y="713" type="line"/>
      <point x="1178" y="780" type="line"/>
      <point x="1057" y="780" type="line"/>
      <point x="1003" y="709"/>
      <point x="993" y="696"/>
      <point x="993" y="685" type="curve" smooth="yes"/>
      <point x="993" y="672"/>
      <point x="999" y="665"/>
      <point x="1062" y="588" type="curve"/>
    </contour>
    <contour>
      <point x="744" y="555" type="line"/>
      <point x="836" y="555" type="line"/>
      <point x="836" y="604" type="line"/>
      <point x="739" y="712" type="line"/>
      <point x="739" y="713" type="line"/>
      <point x="860" y="713" type="line"/>
      <point x="860" y="780" type="line"/>
      <point x="739" y="780" type="line"/>
      <point x="685" y="709"/>
      <point x="675" y="696"/>
      <point x="675" y="685" type="curve" smooth="yes"/>
      <point x="675" y="672"/>
      <point x="681" y="665"/>
      <point x="744" y="588" type="curve"/>
    </contour>
  </outline>
</glyph>
<glyph name="uni1789" format="2">
  <advance width="952"/>
  <unicode hex="1789"/>
  <note>
uni1789
</note>
  <outline>
    <contour>
      <point x="683" y="0" type="curve" smooth="yes"/>
      <point x="790" y="0"/>
      <point x="854" y="66"/>
      <point x="854" y="174" type="curve" smooth="yes"/>
      <point x="854" y="195" type="line"/>
      <point x="694" y="195" type="line"/>
      <point x="694" y="137" type="line"/>
      <point x="768" y="137" type="line"/>
      <point x="765" y="86"/>
      <point x="744" y="58"/>
      <point x="683" y="58" type="curve" smooth="yes"/>
      <point x="637" y="58"/>
      <point x="591" y="76"/>
      <point x="537" y="108" type="curve" smooth="yes"/>
      <point x="483" y="140"/>
      <point x="398" y="156"/>
      <point x="293" y="156" type="curve" smooth="yes"/>
      <point x="98" y="156" type="line"/>
      <point x="98" y="98" type="line"/>
      <point x="293" y="98" type="line" smooth="yes"/>
      <point x="371" y="98"/>
      <point x="450" y="93"/>
      <point x="502" y="61" type="curve" smooth="yes"/>
      <point x="555" y="28"/>
      <point x="606" y="0"/>
    </contour>
    <contour>
      <point x="503" y="727" type="curve"/>
      <point x="529" y="670" type="line"/>
      <point x="562" y="698"/>
      <point x="588" y="718"/>
      <point x="650" y="718" type="curve" smooth="yes"/>
      <point x="724" y="718"/>
      <point x="762" y="682"/>
      <point x="762" y="622" type="curve" smooth="yes"/>
      <point x="762" y="244" type="line"/>
      <point x="854" y="244" type="line"/>
      <point x="854" y="622" type="line" smooth="yes"/>
      <point x="854" y="712"/>
      <point x="814" y="785"/>
      <point x="659" y="785" type="curve" smooth="yes"/>
      <point x="584" y="785"/>
      <point x="536" y="756"/>
    </contour>
    <contour>
      <point x="98" y="478" type="line"/>
      <point x="190" y="478" type="line"/>
      <point x="190" y="645" type="line" smooth="yes"/>
      <point x="190" y="686"/>
      <point x="201" y="707"/>
      <point x="225" y="707" type="curve" smooth="yes"/>
      <point x="262" y="707"/>
      <point x="286" y="646"/>
      <point x="317" y="646" type="curve" smooth="yes"/>
      <point x="350" y="646"/>
      <point x="369" y="707"/>
      <point x="410" y="707" type="curve" smooth="yes"/>
      <point x="434" y="707"/>
      <point x="445" y="686"/>
      <point x="445" y="645" type="curve" smooth="yes"/>
      <point x="445" y="244" type="line"/>
      <point x="537" y="244" type="line"/>
      <point x="537" y="645" type="line" smooth="yes"/>
      <point x="537" y="718"/>
      <point x="511" y="780"/>
      <point x="437" y="780" type="curve" smooth="yes"/>
      <point x="388" y="780"/>
      <point x="356" y="759"/>
      <point x="319" y="719" type="curve"/>
      <point x="317" y="719" type="line"/>
      <point x="281" y="760"/>
      <point x="248" y="780"/>
      <point x="214" y="780" type="curve" smooth="yes"/>
      <point x="128" y="780"/>
      <point x="98" y="718"/>
      <point x="98" y="645" type="curve" smooth="yes"/>
    </contour>
    <contour>
      <point x="98" y="491" type="line"/>
      <point x="98" y="304" type="line" smooth="yes"/>
      <point x="98" y="264"/>
      <point x="128" y="244"/>
      <point x="164" y="244" type="curve" smooth="yes"/>
      <point x="192" y="244" type="line" smooth="yes"/>
      <point x="250" y="244"/>
      <point x="296" y="288"/>
      <point x="296" y="357" type="curve" smooth="yes"/>
      <point x="296" y="431"/>
      <point x="251" y="463"/>
      <point x="190" y="463" type="curve"/>
      <point x="190" y="491" type="line" smooth="yes"/>
    </contour>
    <contour>
      <point x="190" y="311" type="curve"/>
      <point x="190" y="395" type="line"/>
      <point x="220" y="394"/>
      <point x="234" y="380"/>
      <point x="234" y="356" type="curve" smooth="yes"/>
      <point x="234" y="328"/>
      <point x="220" y="311"/>
    </contour>
  </outline>
</glyph>
<glyph name="uni178A" format="2">
  <advance width="635"/>
  <unicode hex="178A"/>
  <note>
uni178A
</note>
  <outline>
    <contour>
      <point x="98" y="664" type="line"/>
      <point x="408" y="664" type="line" smooth="yes"/>
      <point x="512" y="664"/>
      <point x="537" y="694"/>
      <point x="537" y="756" type="curve" smooth="yes"/>
      <point x="537" y="810" type="line"/>
      <point x="445" y="810" type="line"/>
      <point x="445" y="756" type="line" smooth="yes"/>
      <point x="445" y="739"/>
      <point x="427" y="731"/>
      <point x="391" y="731" type="curve" smooth="yes"/>
      <point x="189" y="731" type="line"/>
      <point x="189" y="784" type="line"/>
      <point x="98" y="784" type="line"/>
    </contour>
    <contour>
      <point x="98" y="244" type="line"/>
      <point x="204" y="244" type="line"/>
      <point x="318" y="347" type="line"/>
      <point x="431" y="244" type="line"/>
      <point x="537" y="244" type="line"/>
      <point x="537" y="596" type="line"/>
      <point x="445" y="596" type="line"/>
      <point x="445" y="326" type="line"/>
      <point x="318" y="442" type="line"/>
      <point x="190" y="325" type="line"/>
      <point x="190" y="596" type="line"/>
      <point x="98" y="596" type="line"/>
    </contour>
  </outline>
</glyph>
<glyph name="uni178B" format="2">
  <advance width="635"/>
  <unicode hex="178B"/>
  <note>
uni178B
</note>
  <outline>
    <contour>
      <point x="317" y="244" type="curve" smooth="yes"/>
      <point x="464" y="244"/>
      <point x="537" y="297"/>
      <point x="537" y="402" type="curve" smooth="yes"/>
      <point x="537" y="562" type="line"/>
      <point x="390" y="676" type="line"/>
      <point x="391" y="678" type="line"/>
      <point x="484" y="678" type="line" smooth="yes"/>
      <point x="533" y="678"/>
      <point x="547" y="701"/>
      <point x="547" y="753" type="curve" smooth="yes"/>
      <point x="547" y="813" type="line"/>
      <point x="455" y="813" type="line"/>
      <point x="455" y="775" type="line" smooth="yes"/>
      <point x="455" y="753"/>
      <point x="444" y="745"/>
      <point x="421" y="745" type="curve" smooth="yes"/>
      <point x="362" y="745" type="line"/>
      <point x="303" y="669"/>
      <point x="300" y="664"/>
      <point x="300" y="653" type="curve" smooth="yes"/>
      <point x="300" y="639"/>
      <point x="312" y="629"/>
      <point x="445" y="523" type="curve"/>
      <point x="445" y="402" type="line" smooth="yes"/>
      <point x="445" y="342"/>
      <point x="403" y="311"/>
      <point x="317" y="311" type="curve" smooth="yes"/>
      <point x="232" y="311"/>
      <point x="190" y="342"/>
      <point x="190" y="402" type="curve" smooth="yes"/>
      <point x="190" y="730" type="line" smooth="yes"/>
      <point x="190" y="763"/>
      <point x="165" y="780"/>
      <point x="116" y="780" type="curve" smooth="yes"/>
      <point x="39" y="780" type="line"/>
      <point x="39" y="713" type="line"/>
      <point x="78" y="713"/>
      <point x="98" y="705"/>
      <point x="98" y="680" type="curve" smooth="yes"/>
      <point x="98" y="402" type="line" smooth="yes"/>
      <point x="98" y="297"/>
      <point x="171" y="244"/>
    </contour>
  </outline>
</glyph>
<glyph name="uni1790" format="2">
  <advance width="635"/>
  <unicode hex="1790"/>
  <note>
uni1790
</note>
  <outline>
    <contour>
      <point x="537" y="410" type="line"/>
      <point x="445" y="410" type="line"/>
      <point x="445" y="402" type="line" smooth="yes"/>
      <point x="445" y="342"/>
      <point x="403" y="311"/>
      <point x="317" y="311" type="curve" smooth="yes"/>
      <point x="232" y="311"/>
      <point x="190" y="342"/>
      <point x="190" y="402" type="curve" smooth="yes"/>
      <point x="190" y="564" type="line"/>
      <point x="137" y="624"/>
      <point x="116" y="647"/>
      <point x="116" y="664" type="curve" smooth="yes"/>
      <point x="116" y="667"/>
      <point x="119" y="671"/>
      <point x="128" y="683" type="curve"/>
      <point x="436" y="683" type="line" smooth="yes"/>
      <point x="502" y="683"/>
      <point x="537" y="713"/>
      <point x="537" y="774" type="curve" smooth="yes"/>
      <point x="537" y="790" type="line"/>
      <point x="445" y="790" type="line"/>
      <point x="445" y="774" type="line" smooth="yes"/>
      <point x="445" y="758"/>
      <point x="436" y="750"/>
      <point x="409" y="750" type="curve" smooth="yes"/>
      <point x="126" y="750" type="line"/>
      <point x="56" y="657"/>
      <point x="49" y="657"/>
      <point x="49" y="630" type="curve" smooth="yes"/>
      <point x="49" y="613"/>
      <point x="63" y="592"/>
      <point x="98" y="548" type="curve"/>
      <point x="98" y="402" type="line" smooth="yes"/>
      <point x="98" y="297"/>
      <point x="171" y="244"/>
      <point x="317" y="244" type="curve" smooth="yes"/>
      <point x="464" y="244"/>
      <point x="537" y="297"/>
      <point x="537" y="402" type="curve" smooth="yes"/>
    </contour>
    <contour>
      <point x="537" y="392" type="line"/>
      <point x="537" y="574" type="line" smooth="yes"/>
      <point x="537" y="613"/>
      <point x="506" y="633"/>
      <point x="455" y="633" type="curve" smooth="yes"/>
      <point x="388" y="633"/>
      <point x="333" y="597"/>
      <point x="333" y="531" type="curve" smooth="yes"/>
      <point x="333" y="471"/>
      <point x="377" y="439"/>
      <point x="445" y="439" type="curve"/>
      <point x="445" y="392" type="line"/>
    </contour>
    <contour>
      <point x="445" y="507" type="line"/>
      <point x="416" y="507"/>
      <point x="400" y="516"/>
      <point x="400" y="536" type="curve" smooth="yes"/>
      <point x="400" y="556"/>
      <point x="416" y="566"/>
      <point x="445" y="566" type="curve"/>
    </contour>
  </outline>
</glyph>
<glyph name="uni1792" format="2">
  <advance width="635"/>
  <unicode hex="1792"/>
  <note>
uni1792
</note>
  <outline>
    <contour>
      <point x="537" y="409" type="line"/>
      <point x="445" y="409" type="line"/>
      <point x="445" y="326" type="line"/>
      <point x="318" y="432" type="line"/>
      <point x="190" y="325" type="line"/>
      <point x="190" y="594" type="line"/>
      <point x="137" y="654"/>
      <point x="116" y="677"/>
      <point x="116" y="694" type="curve" smooth="yes"/>
      <point x="116" y="697"/>
      <point x="119" y="701"/>
      <point x="128" y="713" type="curve"/>
      <point x="537" y="713" type="line"/>
      <point x="537" y="780" type="line"/>
      <point x="126" y="780" type="line"/>
      <point x="54" y="687"/>
      <point x="49" y="687"/>
      <point x="49" y="660" type="curve" smooth="yes"/>
      <point x="49" y="643"/>
      <point x="63" y="622"/>
      <point x="98" y="578" type="curve"/>
      <point x="98" y="244" type="line"/>
      <point x="204" y="244" type="line"/>
      <point x="318" y="337" type="line"/>
      <point x="431" y="244" type="line"/>
      <point x="537" y="244" type="line"/>
    </contour>
    <contour>
      <point x="537" y="392" type="line"/>
      <point x="537" y="574" type="line" smooth="yes"/>
      <point x="537" y="613"/>
      <point x="506" y="633"/>
      <point x="455" y="633" type="curve" smooth="yes"/>
      <point x="388" y="633"/>
      <point x="333" y="597"/>
      <point x="333" y="531" type="curve" smooth="yes"/>
      <point x="333" y="471"/>
      <point x="377" y="439"/>
      <point x="445" y="439" type="curve"/>
      <point x="445" y="392" type="line"/>
    </contour>
    <contour>
      <point x="445" y="507" type="line"/>
      <point x="416" y="507"/>
      <point x="400" y="516"/>
      <point x="400" y="536" type="curve" smooth="yes"/>
      <point x="400" y="556"/>
      <point x="416" y="566"/>
      <point x="445" y="566" type="curve"/>
    </contour>
  </outline>
</glyph>
<glyph name="uni1793" format="2">
  <advance width="635"/>
  <unicode hex="1793"/>
  <note>
uni1793
</note>
  <outline>
    <contour>
      <point x="97" y="244" type="line"/>
      <point x="189" y="244" type="line"/>
      <point x="189" y="348" type="line"/>
      <point x="235" y="348"/>
      <point x="256" y="329"/>
      <point x="289" y="299" type="curve" smooth="yes"/>
      <point x="323" y="268"/>
      <point x="351" y="244"/>
      <point x="399" y="244" type="curve" smooth="yes"/>
      <point x="478" y="244"/>
      <point x="547" y="296"/>
      <point x="547" y="376" type="curve" smooth="yes"/>
      <point x="547" y="445"/>
      <point x="495" y="483"/>
      <point x="363" y="505" type="curve" smooth="yes"/>
      <point x="248" y="524"/>
      <point x="189" y="560"/>
      <point x="189" y="622" type="curve" smooth="yes"/>
      <point x="189" y="682"/>
      <point x="223" y="713"/>
      <point x="323" y="713" type="curve" smooth="yes"/>
      <point x="412" y="713"/>
      <point x="445" y="683"/>
      <point x="445" y="653" type="curve" smooth="yes"/>
      <point x="445" y="625"/>
      <point x="429" y="605"/>
      <point x="396" y="605" type="curve"/>
      <point x="396" y="545" type="line"/>
      <point x="403" y="545" type="line" smooth="yes"/>
      <point x="502" y="545"/>
      <point x="537" y="596"/>
      <point x="537" y="650" type="curve" smooth="yes"/>
      <point x="537" y="719"/>
      <point x="480" y="780"/>
      <point x="317" y="780" type="curve" smooth="yes"/>
      <point x="155" y="780"/>
      <point x="98" y="712"/>
      <point x="98" y="622" type="curve" smooth="yes"/>
      <point x="98" y="524"/>
      <point x="186" y="466"/>
      <point x="358" y="438" type="curve" smooth="yes"/>
      <point x="425" y="427"/>
      <point x="455" y="407"/>
      <point x="455" y="362" type="curve" smooth="yes"/>
      <point x="455" y="328"/>
      <point x="428" y="311"/>
      <point x="405" y="311" type="curve" smooth="yes"/>
      <point x="376" y="311"/>
      <point x="348" y="340"/>
      <point x="327" y="359" type="curve" smooth="yes"/>
      <point x="299" y="384"/>
      <point x="265" y="415"/>
      <point x="189" y="415" type="curve"/>
      <point x="189" y="450" type="line"/>
      <point x="97" y="450" type="line"/>
    </contour>
  </outline>
</glyph>
<glyph name="uni1795" format="2">
  <advance width="635"/>
  <unicode hex="1795"/>
  <note>
uni1795
</note>
  <outline>
    <contour>
      <point x="537" y="409" type="line"/>
      <point x="445" y="409" type="line"/>
      <point x="445" y="326" type="line"/>
      <point x="318" y="432" type="line"/>
      <point x="190" y="325" type="line"/>
      <point x="190" y="554" type="line"/>
      <point x="137" y="614"/>
      <point x="116" y="637"/>
      <point x="116" y="654" type="curve" smooth="yes"/>
      <point x="116" y="657"/>
      <point x="119" y="661"/>
      <point x="128" y="673" type="curve"/>
      <point x="419" y="673" type="line" smooth="yes"/>
      <point x="505" y="673"/>
      <point x="537" y="703"/>
      <point x="537" y="764" type="curve" smooth="yes"/>
      <point x="537" y="780" type="line"/>
      <point x="445" y="780" type="line"/>
      <point x="445" y="767" type="line" smooth="yes"/>
      <point x="445" y="748"/>
      <point x="435" y="740"/>
      <point x="415" y="740" type="curve" smooth="yes"/>
      <point x="126" y="740" type="line"/>
      <point x="56" y="647"/>
      <point x="49" y="647"/>
      <point x="49" y="620" type="curve" smooth="yes"/>
      <point x="49" y="603"/>
      <point x="63" y="582"/>
      <point x="98" y="538" type="curve"/>
      <point x="98" y="244" type="line"/>
      <point x="204" y="244" type="line"/>
      <point x="318" y="337" type="line"/>
      <point x="431" y="244" type="line"/>
      <point x="537" y="244" type="line"/>
    </contour>
    <contour>
      <point x="537" y="378" type="line"/>
      <point x="537" y="560" type="line" smooth="yes"/>
      <point x="537" y="599"/>
      <point x="506" y="619"/>
      <point x="455" y="619" type="curve" smooth="yes"/>
      <point x="388" y="619"/>
      <point x="333" y="583"/>
      <point x="333" y="517" type="curve" smooth="yes"/>
      <point x="333" y="457"/>
      <point x="377" y="425"/>
      <point x="445" y="425" type="curve"/>
      <point x="445" y="378" type="line"/>
    </contour>
    <contour>
      <point x="445" y="493" type="line"/>
      <point x="416" y="493"/>
      <point x="400" y="502"/>
      <point x="400" y="522" type="curve" smooth="yes"/>
      <point x="400" y="542"/>
      <point x="416" y="552"/>
      <point x="445" y="552" type="curve"/>
    </contour>
  </outline>
</glyph>
<glyph name="uni1797" format="2">
  <advance width="635"/>
  <unicode hex="1797"/>
  <note>
uni1797
</note>
  <outline>
    <contour>
      <point x="98" y="713" type="line"/>
      <point x="537" y="713" type="line"/>
      <point x="537" y="780" type="line"/>
      <point x="98" y="780" type="line"/>
    </contour>
    <contour>
      <point x="126" y="240" type="curve"/>
      <point x="175" y="240"/>
      <point x="224" y="261"/>
      <point x="224" y="340" type="curve" smooth="yes"/>
      <point x="224" y="409"/>
      <point x="189" y="433"/>
      <point x="189" y="492" type="curve" smooth="yes"/>
      <point x="189" y="542"/>
      <point x="232" y="577"/>
      <point x="320" y="577" type="curve" smooth="yes"/>
      <point x="403" y="577"/>
      <point x="445" y="547"/>
      <point x="445" y="487" type="curve" smooth="yes"/>
      <point x="445" y="244" type="line"/>
      <point x="537" y="244" type="line"/>
      <point x="537" y="487" type="line" smooth="yes"/>
      <point x="537" y="592"/>
      <point x="457" y="645"/>
      <point x="319" y="645" type="curve" smooth="yes"/>
      <point x="164" y="645"/>
      <point x="98" y="577"/>
      <point x="98" y="490" type="curve" smooth="yes"/>
      <point x="98" y="428"/>
      <point x="132" y="395"/>
      <point x="132" y="350" type="curve" smooth="yes"/>
      <point x="132" y="333"/>
      <point x="124" y="325"/>
      <point x="113" y="325" type="curve" smooth="yes"/>
      <point x="95" y="325"/>
      <point x="83" y="340"/>
      <point x="72" y="369" type="curve"/>
      <point x="20" y="349" type="line"/>
      <point x="33" y="276"/>
      <point x="62" y="240"/>
    </contour>
  </outline>
</glyph>
<glyph name="uni179A" format="2">
  <advance width="288"/>
  <unicode hex="179A"/>
  <note>
uni179A
</note>
  <outline>
    <contour>
      <point x="137" y="555" type="line"/>
      <point x="229" y="555" type="line"/>
      <point x="229" y="604" type="line"/>
      <point x="132" y="712" type="line"/>
      <point x="132" y="713" type="line"/>
      <point x="253" y="713" type="line"/>
      <point x="253" y="780" type="line"/>
      <point x="132" y="780" type="line"/>
      <point x="78" y="709"/>
      <point x="68" y="696"/>
      <point x="68" y="685" type="curve" smooth="yes"/>
      <point x="68" y="672"/>
      <point x="74" y="665"/>
      <point x="137" y="588" type="curve"/>
    </contour>
    <contour>
      <point x="229" y="570" type="line"/>
      <point x="137" y="570" type="line"/>
      <point x="137" y="463" type="line"/>
      <point x="88" y="459"/>
      <point x="25" y="431"/>
      <point x="25" y="352" type="curve" smooth="yes"/>
      <point x="25" y="264"/>
      <point x="87" y="244"/>
      <point x="142" y="244" type="curve" smooth="yes"/>
      <point x="160" y="244" type="line" smooth="yes"/>
      <point x="204" y="244"/>
      <point x="229" y="264"/>
      <point x="229" y="313" type="curve" smooth="yes"/>
    </contour>
    <contour>
      <point x="137" y="311" type="line"/>
      <point x="116" y="311"/>
      <point x="92" y="321"/>
      <point x="92" y="353" type="curve" smooth="yes"/>
      <point x="92" y="385"/>
      <point x="118" y="395"/>
      <point x="137" y="395" type="curve"/>
    </contour>
  </outline>
</glyph>
<glyph name="uni179B" format="2">
  <advance width="928"/>
  <unicode hex="179B"/>
  <note>
uni179B
</note>
  <outline>
    <contour>
      <point x="830" y="573" type="line"/>
      <point x="738" y="573" type="line"/>
      <point x="738" y="402" type="line" smooth="yes"/>
      <point x="738" y="342"/>
      <point x="701" y="311"/>
      <point x="625" y="311" type="curve" smooth="yes"/>
      <point x="550" y="311"/>
      <point x="513" y="342"/>
      <point x="513" y="402" type="curve" smooth="yes"/>
      <point x="513" y="622" type="line" smooth="yes"/>
      <point x="513" y="727"/>
      <point x="443" y="780"/>
      <point x="305" y="780" type="curve" smooth="yes"/>
      <point x="167" y="780"/>
      <point x="98" y="727"/>
      <point x="98" y="622" type="curve" smooth="yes"/>
      <point x="98" y="479" type="line"/>
      <point x="190" y="479" type="line"/>
      <point x="190" y="622" type="line" smooth="yes"/>
      <point x="190" y="682"/>
      <point x="228" y="713"/>
      <point x="305" y="713" type="curve" smooth="yes"/>
      <point x="382" y="713"/>
      <point x="421" y="682"/>
      <point x="421" y="622" type="curve" smooth="yes"/>
      <point x="421" y="402" type="line" smooth="yes"/>
      <point x="421" y="297"/>
      <point x="489" y="244"/>
      <point x="625" y="244" type="curve" smooth="yes"/>
      <point x="762" y="244"/>
      <point x="830" y="297"/>
      <point x="830" y="402" type="curve" smooth="yes"/>
    </contour>
    <contour>
      <point x="98" y="491" type="line"/>
      <point x="98" y="304" type="line" smooth="yes"/>
      <point x="98" y="264"/>
      <point x="128" y="244"/>
      <point x="164" y="244" type="curve" smooth="yes"/>
      <point x="192" y="244" type="line" smooth="yes"/>
      <point x="250" y="244"/>
      <point x="296" y="288"/>
      <point x="296" y="357" type="curve" smooth="yes"/>
      <point x="296" y="431"/>
      <point x="251" y="463"/>
      <point x="190" y="463" type="curve"/>
      <point x="190" y="491" type="line" smooth="yes"/>
    </contour>
    <contour>
      <point x="190" y="311" type="curve"/>
      <point x="190" y="395" type="line"/>
      <point x="220" y="394"/>
      <point x="234" y="380"/>
      <point x="234" y="356" type="curve" smooth="yes"/>
      <point x="234" y="328"/>
      <point x="220" y="311"/>
    </contour>
    <contour>
      <point x="738" y="555" type="line"/>
      <point x="830" y="555" type="line"/>
      <point x="830" y="604" type="line"/>
      <point x="733" y="712" type="line"/>
      <point x="733" y="713" type="line"/>
      <point x="854" y="713" type="line"/>
      <point x="854" y="780" type="line"/>
      <point x="733" y="780" type="line"/>
      <point x="679" y="709"/>
      <point x="669" y="696"/>
      <point x="669" y="685" type="curve" smooth="yes"/>
      <point x="669" y="672"/>
      <point x="675" y="665"/>
      <point x="738" y="588" type="curve"/>
    </contour>
  </outline>
</glyph>
<glyph name="uni179C" format="2">
  <advance width="326"/>
  <unicode hex="179C"/>
  <note>
uni179C
</note>
  <outline>
    <contour>
      <point x="137" y="538" type="line"/>
      <point x="229" y="538" type="line"/>
      <point x="229" y="594" type="line"/>
      <point x="107" y="702" type="line"/>
      <point x="107" y="703" type="line"/>
      <point x="166" y="703" type="line" smooth="yes"/>
      <point x="241" y="703"/>
      <point x="283" y="733"/>
      <point x="283" y="794" type="curve" smooth="yes"/>
      <point x="283" y="809" type="line"/>
      <point x="191" y="809" type="line"/>
      <point x="191" y="794" type="line" smooth="yes"/>
      <point x="191" y="778"/>
      <point x="180" y="770"/>
      <point x="156" y="770" type="curve" smooth="yes"/>
      <point x="107" y="770" type="line"/>
      <point x="55" y="702"/>
      <point x="45" y="689"/>
      <point x="45" y="678" type="curve" smooth="yes"/>
      <point x="45" y="666"/>
      <point x="53" y="658"/>
      <point x="137" y="578" type="curve"/>
    </contour>
    <contour>
      <point x="229" y="570" type="line"/>
      <point x="137" y="570" type="line"/>
      <point x="137" y="463" type="line"/>
      <point x="88" y="459"/>
      <point x="25" y="431"/>
      <point x="25" y="352" type="curve" smooth="yes"/>
      <point x="25" y="264"/>
      <point x="87" y="244"/>
      <point x="142" y="244" type="curve" smooth="yes"/>
      <point x="160" y="244" type="line" smooth="yes"/>
      <point x="204" y="244"/>
      <point x="229" y="264"/>
      <point x="229" y="313" type="curve" smooth="yes"/>
    </contour>
    <contour>
      <point x="137" y="311" type="line"/>
      <point x="116" y="311"/>
      <point x="92" y="321"/>
      <point x="92" y="353" type="curve" smooth="yes"/>
      <point x="92" y="385"/>
      <point x="118" y="395"/>
      <point x="137" y="395" type="curve"/>
    </contour>
  </outline>
</glyph>
<glyph name="uni179E" format="2">
  <advance width="636"/>
  <unicode hex="179E"/>
  <note>
uni179E
</note>
  <outline>
    <contour>
      <point x="361" y="493" type="line"/>
      <point x="586" y="493" type="line"/>
      <point x="586" y="560" type="line"/>
      <point x="361" y="560" type="line"/>
    </contour>
    <contour>
      <point x="190" y="565" type="line"/>
      <point x="98" y="565" type="line"/>
      <point x="98" y="402" type="line" smooth="yes"/>
      <point x="98" y="297"/>
      <point x="171" y="244"/>
      <point x="317" y="244" type="curve" smooth="yes"/>
      <point x="464" y="244"/>
      <point x="537" y="297"/>
      <point x="537" y="402" type="curve" smooth="yes"/>
      <point x="537" y="566" type="line"/>
      <point x="445" y="566" type="line"/>
      <point x="445" y="402" type="line" smooth="yes"/>
      <point x="445" y="342"/>
      <point x="403" y="311"/>
      <point x="317" y="311" type="curve" smooth="yes"/>
      <point x="232" y="311"/>
      <point x="190" y="342"/>
      <point x="190" y="402" type="curve" smooth="yes"/>
    </contour>
    <contour>
      <point x="445" y="555" type="line"/>
      <point x="537" y="555" type="line"/>
      <point x="537" y="604" type="line"/>
      <point x="440" y="712" type="line"/>
      <point x="440" y="713" type="line"/>
      <point x="561" y="713" type="line"/>
      <point x="561" y="780" type="line"/>
      <point x="440" y="780" type="line"/>
      <point x="386" y="709"/>
      <point x="376" y="696"/>
      <point x="376" y="685" type="curve" smooth="yes"/>
      <point x="376" y="672"/>
      <point x="382" y="665"/>
      <point x="445" y="588" type="curve"/>
    </contour>
    <contour>
      <point x="98" y="555" type="line"/>
      <point x="190" y="555" type="line"/>
      <point x="190" y="604" type="line"/>
      <point x="93" y="712" type="line"/>
      <point x="93" y="713" type="line"/>
      <point x="214" y="713" type="line"/>
      <point x="214" y="780" type="line"/>
      <point x="93" y="780" type="line"/>
      <point x="39" y="709"/>
      <point x="29" y="696"/>
      <point x="29" y="685" type="curve" smooth="yes"/>
      <point x="29" y="672"/>
      <point x="35" y="665"/>
      <point x="98" y="588" type="curve"/>
    </contour>
  </outline>
</glyph>
<glyph name="uni179F" format="2">
  <advance width="928"/>
  <unicode hex="179F"/>
  <note>
uni179F
</note>
  <outline>
    <contour>
      <point x="169" y="613" type="curve"/>
      <point x="251" y="638" type="line"/>
      <point x="186" y="712" type="line"/>
      <point x="186" y="713" type="line"/>
      <point x="464" y="713" type="line"/>
      <point x="464" y="780" type="line"/>
      <point x="186" y="780" type="line"/>
      <point x="132" y="709"/>
      <point x="122" y="696"/>
      <point x="122" y="685" type="curve" smooth="yes"/>
      <point x="122" y="672"/>
      <point x="127" y="666"/>
    </contour>
    <contour>
      <point x="830" y="572" type="line"/>
      <point x="738" y="572" type="line"/>
      <point x="738" y="402" type="line" smooth="yes"/>
      <point x="738" y="342"/>
      <point x="701" y="311"/>
      <point x="625" y="311" type="curve" smooth="yes"/>
      <point x="550" y="311"/>
      <point x="513" y="342"/>
      <point x="513" y="402" type="curve" smooth="yes"/>
      <point x="513" y="487" type="line" smooth="yes"/>
      <point x="513" y="592"/>
      <point x="443" y="645"/>
      <point x="305" y="645" type="curve" smooth="yes"/>
      <point x="167" y="645"/>
      <point x="98" y="599"/>
      <point x="98" y="487" type="curve" smooth="yes"/>
      <point x="98" y="478" type="line"/>
      <point x="190" y="478" type="line"/>
      <point x="190" y="487" type="line" smooth="yes"/>
      <point x="190" y="547"/>
      <point x="228" y="577"/>
      <point x="305" y="577" type="curve" smooth="yes"/>
      <point x="382" y="577"/>
      <point x="421" y="547"/>
      <point x="421" y="487" type="curve" smooth="yes"/>
      <point x="421" y="402" type="line" smooth="yes"/>
      <point x="421" y="297"/>
      <point x="489" y="244"/>
      <point x="625" y="244" type="curve" smooth="yes"/>
      <point x="762" y="244"/>
      <point x="830" y="297"/>
      <point x="830" y="402" type="curve" smooth="yes"/>
    </contour>
    <contour>
      <point x="98" y="491" type="line"/>
      <point x="98" y="304" type="line" smooth="yes"/>
      <point x="98" y="264"/>
      <point x="128" y="244"/>
      <point x="164" y="244" type="curve" smooth="yes"/>
      <point x="192" y="244" type="line" smooth="yes"/>
      <point x="250" y="244"/>
      <point x="296" y="288"/>
      <point x="296" y="357" type="curve" smooth="yes"/>
      <point x="296" y="431"/>
      <point x="251" y="463"/>
      <point x="190" y="463" type="curve"/>
      <point x="190" y="491" type="line" smooth="yes"/>
    </contour>
    <contour>
      <point x="190" y="311" type="curve"/>
      <point x="190" y="395" type="line"/>
      <point x="220" y="394"/>
      <point x="234" y="380"/>
      <point x="234" y="356" type="curve" smooth="yes"/>
      <point x="234" y="328"/>
      <point x="220" y="311"/>
    </contour>
    <contour>
      <point x="738" y="555" type="line"/>
      <point x="830" y="555" type="line"/>
      <point x="830" y="604" type="line"/>
      <point x="733" y="712" type="line"/>
      <point x="733" y="713" type="line"/>
      <point x="854" y="713" type="line"/>
      <point x="854" y="780" type="line"/>
      <point x="733" y="780" type="line"/>
      <point x="679" y="709"/>
      <point x="669" y="696"/>
      <point x="669" y="685" type="curve" smooth="yes"/>
      <point x="669" y="672"/>
      <point x="675" y="665"/>
      <point x="738" y="588" type="curve"/>
    </contour>
  </outline>
</glyph>
<glyph name="uni17A0" format="2">
  <advance width="928"/>
  <unicode hex="17A0"/>
  <note>
uni17A0
</note>
  <outline>
    <contour>
      <point x="190" y="567" type="line"/>
      <point x="98" y="567" type="line"/>
      <point x="98" y="402" type="line" smooth="yes"/>
      <point x="98" y="312"/>
      <point x="159" y="244"/>
      <point x="305" y="244" type="curve" smooth="yes"/>
      <point x="452" y="244"/>
      <point x="513" y="312"/>
      <point x="513" y="402" type="curve" smooth="yes"/>
      <point x="513" y="622" type="line" smooth="yes"/>
      <point x="513" y="682"/>
      <point x="551" y="713"/>
      <point x="625" y="713" type="curve" smooth="yes"/>
      <point x="700" y="713"/>
      <point x="738" y="682"/>
      <point x="738" y="622" type="curve" smooth="yes"/>
      <point x="738" y="244" type="line"/>
      <point x="830" y="244" type="line"/>
      <point x="830" y="622" type="line" smooth="yes"/>
      <point x="830" y="727"/>
      <point x="761" y="780"/>
      <point x="623" y="780" type="curve" smooth="yes"/>
      <point x="484" y="780"/>
      <point x="421" y="712"/>
      <point x="421" y="622" type="curve" smooth="yes"/>
      <point x="421" y="402" type="line" smooth="yes"/>
      <point x="421" y="342"/>
      <point x="383" y="311"/>
      <point x="305" y="311" type="curve" smooth="yes"/>
      <point x="227" y="311"/>
      <point x="190" y="342"/>
      <point x="190" y="402" type="curve" smooth="yes"/>
    </contour>
    <contour>
      <point x="98" y="555" type="line"/>
      <point x="190" y="555" type="line"/>
      <point x="190" y="604" type="line"/>
      <point x="93" y="712" type="line"/>
      <point x="93" y="713" type="line"/>
      <point x="214" y="713" type="line"/>
      <point x="214" y="780" type="line"/>
      <point x="93" y="780" type="line"/>
      <point x="39" y="709"/>
      <point x="29" y="696"/>
      <point x="29" y="685" type="curve" smooth="yes"/>
      <point x="29" y="672"/>
      <point x="35" y="665"/>
      <point x="98" y="588" type="curve"/>
    </contour>
  </outline>
</glyph>
<glyph name="uni17A1" format="2">
  <advance width="846"/>
  <unicode hex="17A1"/>
  <note>
uni17A1
</note>
  <outline>
    <contour>
      <point x="296" y="244" type="curve" smooth="yes"/>
      <point x="425" y="244"/>
      <point x="489" y="297"/>
      <point x="489" y="402" type="curve" smooth="yes"/>
      <point x="489" y="424" type="line"/>
      <point x="504" y="430"/>
      <point x="519" y="451"/>
      <point x="519" y="480" type="curve" smooth="yes"/>
      <point x="519" y="508"/>
      <point x="495" y="537"/>
      <point x="458" y="537" type="curve" smooth="yes"/>
      <point x="430" y="537"/>
      <point x="409" y="523"/>
      <point x="401" y="497" type="curve"/>
      <point x="238" y="520"/>
      <point x="171" y="548"/>
      <point x="171" y="622" type="curve" smooth="yes"/>
      <point x="171" y="682"/>
      <point x="205" y="713"/>
      <point x="299" y="713" type="curve" smooth="yes"/>
      <point x="394" y="713"/>
      <point x="427" y="679"/>
      <point x="427" y="632" type="curve" smooth="yes"/>
      <point x="427" y="608" type="line"/>
      <point x="519" y="608" type="line"/>
      <point x="519" y="632" type="line" smooth="yes"/>
      <point x="519" y="709"/>
      <point x="462" y="780"/>
      <point x="299" y="780" type="curve" smooth="yes"/>
      <point x="137" y="780"/>
      <point x="80" y="712"/>
      <point x="80" y="622" type="curve" smooth="yes"/>
      <point x="80" y="512"/>
      <point x="172" y="462"/>
      <point x="397" y="429" type="curve"/>
      <point x="397" y="402" type="line" smooth="yes"/>
      <point x="397" y="342"/>
      <point x="363" y="311"/>
      <point x="296" y="311" type="curve" smooth="yes"/>
      <point x="230" y="311"/>
      <point x="196" y="342"/>
      <point x="196" y="402" type="curve" smooth="yes"/>
      <point x="196" y="428" type="line"/>
      <point x="104" y="428" type="line"/>
      <point x="104" y="402" type="line" smooth="yes"/>
      <point x="104" y="297"/>
      <point x="168" y="244"/>
    </contour>
    <contour>
      <point x="748" y="571" type="line"/>
      <point x="656" y="571" type="line"/>
      <point x="656" y="86" type="line"/>
      <point x="536" y="191" type="line"/>
      <point x="415" y="86" type="line"/>
      <point x="415" y="124" type="line" smooth="yes"/>
      <point x="415" y="171"/>
      <point x="392" y="195"/>
      <point x="347" y="195" type="curve" smooth="yes"/>
      <point x="284" y="195" type="line"/>
      <point x="284" y="124" type="line"/>
      <point x="317" y="124"/>
      <point x="333" y="117"/>
      <point x="333" y="99" type="curve" smooth="yes"/>
      <point x="333" y="5" type="line"/>
      <point x="430" y="5" type="line"/>
      <point x="536" y="96" type="line"/>
      <point x="642" y="5" type="line"/>
      <point x="748" y="5" type="line"/>
    </contour>
    <contour>
      <point x="656" y="555" type="line"/>
      <point x="748" y="555" type="line"/>
      <point x="748" y="604" type="line"/>
      <point x="651" y="712" type="line"/>
      <point x="651" y="713" type="line"/>
      <point x="772" y="713" type="line"/>
      <point x="772" y="780" type="line"/>
      <point x="651" y="780" type="line"/>
      <point x="597" y="709"/>
      <point x="587" y="696"/>
      <point x="587" y="685" type="curve" smooth="yes"/>
      <point x="587" y="672"/>
      <point x="593" y="665"/>
      <point x="656" y="588" type="curve"/>
    </contour>
  </outline>
</glyph>
<glyph name="uni17A5" format="2">
  <advance width="635"/>
  <unicode hex="17A5"/>
  <note>
uni17A5
</note>
  <outline>
    <contour>
      <point x="94" y="598" type="curve"/>
      <point x="154" y="650" type="line"/>
      <point x="129" y="679"/>
      <point x="117" y="697"/>
      <point x="117" y="708" type="curve" smooth="yes"/>
      <point x="117" y="712"/>
      <point x="117" y="712"/>
      <point x="129" y="727" type="curve"/>
      <point x="392" y="727" type="line" smooth="yes"/>
      <point x="489" y="727"/>
      <point x="538" y="758"/>
      <point x="538" y="819" type="curve" smooth="yes"/>
      <point x="538" y="872" type="line"/>
      <point x="446" y="872" type="line"/>
      <point x="446" y="819" type="line" smooth="yes"/>
      <point x="446" y="803"/>
      <point x="428" y="794"/>
      <point x="406" y="794" type="curve" smooth="yes"/>
      <point x="127" y="794" type="line"/>
      <point x="59" y="704"/>
      <point x="50" y="701"/>
      <point x="50" y="679" type="curve" smooth="yes"/>
      <point x="50" y="662"/>
      <point x="69" y="631"/>
    </contour>
    <contour>
      <point x="98" y="473" type="line"/>
      <point x="190" y="473" type="line"/>
      <point x="190" y="487" type="line" smooth="yes"/>
      <point x="190" y="547"/>
      <point x="232" y="577"/>
      <point x="317" y="577" type="curve" smooth="yes"/>
      <point x="403" y="577"/>
      <point x="445" y="547"/>
      <point x="445" y="487" type="curve" smooth="yes"/>
      <point x="445" y="244" type="line"/>
      <point x="537" y="244" type="line"/>
      <point x="537" y="487" type="line" smooth="yes"/>
      <point x="537" y="592"/>
      <point x="464" y="645"/>
      <point x="317" y="645" type="curve" smooth="yes"/>
      <point x="171" y="645"/>
      <point x="98" y="592"/>
      <point x="98" y="487" type="curve" smooth="yes"/>
    </contour>
    <contour>
      <point x="98" y="491" type="line"/>
      <point x="98" y="304" type="line" smooth="yes"/>
      <point x="98" y="264"/>
      <point x="128" y="244"/>
      <point x="164" y="244" type="curve" smooth="yes"/>
      <point x="192" y="244" type="line" smooth="yes"/>
      <point x="250" y="244"/>
      <point x="296" y="288"/>
      <point x="296" y="357" type="curve" smooth="yes"/>
      <point x="296" y="431"/>
      <point x="251" y="463"/>
      <point x="190" y="463" type="curve"/>
      <point x="190" y="491" type="line" smooth="yes"/>
    </contour>
    <contour>
      <point x="190" y="311" type="curve"/>
      <point x="190" y="395" type="line"/>
      <point x="220" y="394"/>
      <point x="234" y="380"/>
      <point x="234" y="356" type="curve" smooth="yes"/>
      <point x="234" y="328"/>
      <point x="220" y="311"/>
    </contour>
  </outline>
</glyph>
<glyph name="uni17A6" format="2">
  <advance width="929"/>
  <unicode hex="17A6"/>
  <note>
uni17A6
</note>
  <outline>
    <contour>
      <point x="831" y="749" type="line"/>
      <point x="739" y="749" type="line"/>
      <point x="739" y="117" type="line" smooth="yes"/>
      <point x="739" y="84"/>
      <point x="706" y="68"/>
      <point x="641" y="68" type="curve" smooth="yes"/>
      <point x="555" y="68"/>
      <point x="513" y="81"/>
      <point x="513" y="106" type="curve" smooth="yes"/>
      <point x="513" y="170"/>
      <point x="462" y="220"/>
      <point x="317" y="220" type="curve" smooth="yes"/>
      <point x="173" y="220"/>
      <point x="122" y="170"/>
      <point x="122" y="106" type="curve" smooth="yes"/>
      <point x="122" y="36" type="line" smooth="yes"/>
      <point x="122" y="12"/>
      <point x="144" y="0"/>
      <point x="187" y="0" type="curve" smooth="yes"/>
      <point x="256" y="0" type="line"/>
      <point x="256" y="49" type="line"/>
      <point x="221" y="49"/>
      <point x="204" y="54"/>
      <point x="204" y="65" type="curve" smooth="yes"/>
      <point x="204" y="106" type="line" smooth="yes"/>
      <point x="204" y="149"/>
      <point x="233" y="171"/>
      <point x="317" y="171" type="curve" smooth="yes"/>
      <point x="401" y="171"/>
      <point x="431" y="149"/>
      <point x="431" y="106" type="curve" smooth="yes"/>
      <point x="431" y="35"/>
      <point x="501" y="0"/>
      <point x="641" y="0" type="curve" smooth="yes"/>
      <point x="767" y="0"/>
      <point x="831" y="39"/>
      <point x="831" y="117" type="curve" smooth="yes"/>
    </contour>
    <contour>
      <point x="98" y="473" type="line"/>
      <point x="190" y="473" type="line"/>
      <point x="190" y="617" type="line" smooth="yes"/>
      <point x="190" y="677"/>
      <point x="232" y="707"/>
      <point x="317" y="707" type="curve" smooth="yes"/>
      <point x="403" y="707"/>
      <point x="445" y="677"/>
      <point x="445" y="617" type="curve" smooth="yes"/>
      <point x="445" y="244" type="line"/>
      <point x="537" y="244" type="line"/>
      <point x="537" y="617" type="line" smooth="yes"/>
      <point x="537" y="722"/>
      <point x="464" y="775"/>
      <point x="317" y="775" type="curve" smooth="yes"/>
      <point x="171" y="775"/>
      <point x="98" y="722"/>
      <point x="98" y="617" type="curve" smooth="yes"/>
    </contour>
    <contour>
      <point x="98" y="491" type="line"/>
      <point x="98" y="304" type="line" smooth="yes"/>
      <point x="98" y="264"/>
      <point x="128" y="244"/>
      <point x="164" y="244" type="curve" smooth="yes"/>
      <point x="192" y="244" type="line" smooth="yes"/>
      <point x="250" y="244"/>
      <point x="296" y="288"/>
      <point x="296" y="357" type="curve" smooth="yes"/>
      <point x="296" y="431"/>
      <point x="251" y="463"/>
      <point x="190" y="463" type="curve"/>
      <point x="190" y="491" type="line" smooth="yes"/>
    </contour>
    <contour>
      <point x="190" y="311" type="curve"/>
      <point x="190" y="395" type="line"/>
      <point x="220" y="394"/>
      <point x="234" y="380"/>
      <point x="234" y="356" type="curve" smooth="yes"/>
      <point x="234" y="328"/>
      <point x="220" y="311"/>
    </contour>
    <contour>
      <point x="739" y="732" type="line"/>
      <point x="831" y="732" type="line"/>
      <point x="831" y="805" type="line" smooth="yes"/>
      <point x="831" y="923"/>
      <point x="771" y="981"/>
      <point x="649" y="981" type="curve" smooth="yes"/>
      <point x="602" y="981"/>
      <point x="568" y="969"/>
      <point x="543" y="953" type="curve"/>
      <point x="543" y="1048" type="line"/>
      <point x="451" y="1048" type="line"/>
      <point x="451" y="879" type="line"/>
      <point x="543" y="879" type="line"/>
      <point x="563" y="904"/>
      <point x="593" y="918"/>
      <point x="632" y="918" type="curve" smooth="yes"/>
      <point x="697" y="918"/>
      <point x="739" y="880"/>
      <point x="739" y="805" type="curve" smooth="yes"/>
    </contour>
  </outline>
</glyph>
<glyph name="uni17A8" format="2">
  <advance width="635"/>
  <unicode hex="17A8"/>
  <note>
uni17A8
</note>
  <outline>
    <contour>
      <point x="98" y="869" type="line"/>
      <point x="537" y="869" type="line"/>
      <point x="537" y="936" type="line"/>
      <point x="98" y="936" type="line"/>
    </contour>
    <contour>
      <point x="445" y="240" type="line"/>
      <point x="537" y="240" type="line"/>
      <point x="537" y="438" type="line"/>
      <point x="445" y="438" type="line"/>
      <point x="445" y="423" type="line" smooth="yes"/>
      <point x="445" y="382"/>
      <point x="334" y="311"/>
      <point x="262" y="311" type="curve" smooth="yes"/>
      <point x="206" y="311"/>
      <point x="189" y="342"/>
      <point x="189" y="402" type="curve" smooth="yes"/>
      <point x="189" y="435" type="line"/>
      <point x="277" y="448" type="line" smooth="yes"/>
      <point x="451" y="474"/>
      <point x="537" y="534"/>
      <point x="537" y="637" type="curve" smooth="yes"/>
      <point x="537" y="722"/>
      <point x="480" y="790"/>
      <point x="317" y="790" type="curve" smooth="yes"/>
      <point x="155" y="790"/>
      <point x="98" y="728"/>
      <point x="98" y="651" type="curve" smooth="yes"/>
      <point x="98" y="597"/>
      <point x="140" y="555"/>
      <point x="210" y="555" type="curve" smooth="yes"/>
      <point x="238" y="555" type="line"/>
      <point x="238" y="625" type="line"/>
      <point x="206" y="625"/>
      <point x="189" y="639"/>
      <point x="189" y="662" type="curve" smooth="yes"/>
      <point x="189" y="693"/>
      <point x="223" y="723"/>
      <point x="317" y="723" type="curve" smooth="yes"/>
      <point x="412" y="723"/>
      <point x="445" y="690"/>
      <point x="445" y="639" type="curve" smooth="yes"/>
      <point x="445" y="570"/>
      <point x="387" y="532"/>
      <point x="271" y="515" type="curve" smooth="yes"/>
      <point x="98" y="490" type="line"/>
      <point x="98" y="402" type="line" smooth="yes"/>
      <point x="98" y="312"/>
      <point x="147" y="244"/>
      <point x="253" y="244" type="curve" smooth="yes"/>
      <point x="324" y="244"/>
      <point x="397" y="281"/>
      <point x="444" y="319" type="curve"/>
      <point x="445" y="319" type="line"/>
    </contour>
  </outline>
</glyph>
<glyph name="uni17AA" format="2">
  <advance width="636"/>
  <unicode hex="17AA"/>
  <note>
uni17AA
</note>
  <outline>
    <contour>
      <point x="94" y="740" type="curve"/>
      <point x="154" y="792" type="line"/>
      <point x="129" y="821"/>
      <point x="117" y="839"/>
      <point x="117" y="850" type="curve" smooth="yes"/>
      <point x="117" y="854"/>
      <point x="117" y="854"/>
      <point x="129" y="869" type="curve"/>
      <point x="392" y="869" type="line" smooth="yes"/>
      <point x="489" y="869"/>
      <point x="538" y="900"/>
      <point x="538" y="961" type="curve" smooth="yes"/>
      <point x="538" y="1014" type="line"/>
      <point x="446" y="1014" type="line"/>
      <point x="446" y="961" type="line" smooth="yes"/>
      <point x="446" y="945"/>
      <point x="428" y="936"/>
      <point x="406" y="936" type="curve" smooth="yes"/>
      <point x="127" y="936" type="line"/>
      <point x="59" y="846"/>
      <point x="50" y="843"/>
      <point x="50" y="821" type="curve" smooth="yes"/>
      <point x="50" y="804"/>
      <point x="69" y="773"/>
    </contour>
    <contour>
      <point x="446" y="240" type="line"/>
      <point x="538" y="240" type="line"/>
      <point x="538" y="438" type="line"/>
      <point x="446" y="438" type="line"/>
      <point x="446" y="423" type="line" smooth="yes"/>
      <point x="446" y="382"/>
      <point x="335" y="311"/>
      <point x="263" y="311" type="curve" smooth="yes"/>
      <point x="207" y="311"/>
      <point x="190" y="342"/>
      <point x="190" y="402" type="curve" smooth="yes"/>
      <point x="190" y="435" type="line"/>
      <point x="278" y="448" type="line" smooth="yes"/>
      <point x="452" y="474"/>
      <point x="538" y="534"/>
      <point x="538" y="637" type="curve" smooth="yes"/>
      <point x="538" y="722"/>
      <point x="481" y="790"/>
      <point x="318" y="790" type="curve" smooth="yes"/>
      <point x="156" y="790"/>
      <point x="99" y="728"/>
      <point x="99" y="651" type="curve" smooth="yes"/>
      <point x="99" y="597"/>
      <point x="141" y="555"/>
      <point x="211" y="555" type="curve" smooth="yes"/>
      <point x="239" y="555" type="line"/>
      <point x="239" y="625" type="line"/>
      <point x="207" y="625"/>
      <point x="190" y="639"/>
      <point x="190" y="662" type="curve" smooth="yes"/>
      <point x="190" y="693"/>
      <point x="224" y="723"/>
      <point x="318" y="723" type="curve" smooth="yes"/>
      <point x="413" y="723"/>
      <point x="446" y="690"/>
      <point x="446" y="639" type="curve" smooth="yes"/>
      <point x="446" y="570"/>
      <point x="388" y="532"/>
      <point x="272" y="515" type="curve" smooth="yes"/>
      <point x="99" y="490" type="line"/>
      <point x="99" y="402" type="line" smooth="yes"/>
      <point x="99" y="312"/>
      <point x="148" y="244"/>
      <point x="254" y="244" type="curve" smooth="yes"/>
      <point x="325" y="244"/>
      <point x="398" y="281"/>
      <point x="445" y="319" type="curve"/>
      <point x="446" y="319" type="line"/>
    </contour>
  </outline>
</glyph>
<glyph name="uni17AC" format="2">
  <advance width="684"/>
  <unicode hex="17AC"/>
  <note>
uni17AC
</note>
  <outline>
    <contour>
      <point x="190" y="565" type="line"/>
      <point x="98" y="565" type="line"/>
      <point x="98" y="402" type="line" smooth="yes"/>
      <point x="98" y="297"/>
      <point x="171" y="244"/>
      <point x="317" y="244" type="curve" smooth="yes"/>
      <point x="464" y="244"/>
      <point x="537" y="297"/>
      <point x="537" y="402" type="curve" smooth="yes"/>
      <point x="537" y="566" type="line"/>
      <point x="445" y="566" type="line"/>
      <point x="445" y="402" type="line" smooth="yes"/>
      <point x="445" y="342"/>
      <point x="403" y="311"/>
      <point x="317" y="311" type="curve" smooth="yes"/>
      <point x="232" y="311"/>
      <point x="190" y="342"/>
      <point x="190" y="402" type="curve" smooth="yes"/>
    </contour>
    <contour>
      <point x="445" y="555" type="line"/>
      <point x="537" y="555" type="line"/>
      <point x="537" y="604" type="line"/>
      <point x="440" y="712" type="line"/>
      <point x="440" y="713" type="line"/>
      <point x="561" y="713" type="line"/>
      <point x="561" y="780" type="line"/>
      <point x="440" y="780" type="line"/>
      <point x="386" y="709"/>
      <point x="376" y="696"/>
      <point x="376" y="685" type="curve" smooth="yes"/>
      <point x="376" y="672"/>
      <point x="382" y="665"/>
      <point x="445" y="588" type="curve"/>
    </contour>
    <contour>
      <point x="98" y="555" type="line"/>
      <point x="190" y="555" type="line"/>
      <point x="190" y="604" type="line"/>
      <point x="93" y="712" type="line"/>
      <point x="93" y="713" type="line"/>
      <point x="214" y="713" type="line"/>
      <point x="214" y="780" type="line"/>
      <point x="93" y="780" type="line"/>
      <point x="39" y="709"/>
      <point x="29" y="696"/>
      <point x="29" y="685" type="curve" smooth="yes"/>
      <point x="29" y="672"/>
      <point x="35" y="665"/>
      <point x="98" y="588" type="curve"/>
    </contour>
    <contour>
      <point x="469" y="50" type="line"/>
      <point x="501" y="18"/>
      <point x="540" y="0"/>
      <point x="582" y="0" type="curve" smooth="yes"/>
      <point x="610" y="0" type="line"/>
      <point x="610" y="58" type="line"/>
      <point x="587" y="58" type="line" smooth="yes"/>
      <point x="559" y="58"/>
      <point x="537" y="75"/>
      <point x="519" y="103" type="curve"/>
    </contour>
    <contour>
      <point x="98" y="0" type="line"/>
      <point x="250" y="0" type="line" smooth="yes"/>
      <point x="445" y="0"/>
      <point x="537" y="52"/>
      <point x="537" y="193" type="curve" smooth="yes"/>
      <point x="537" y="220" type="line"/>
      <point x="391" y="220" type="line"/>
      <point x="391" y="156" type="line"/>
      <point x="445" y="156" type="line"/>
      <point x="443" y="91"/>
      <point x="378" y="58"/>
      <point x="244" y="58" type="curve" smooth="yes"/>
      <point x="98" y="58" type="line"/>
    </contour>
  </outline>
</glyph>
<glyph name="uni17AE" format="2">
  <advance width="708"/>
  <unicode hex="17AE"/>
  <note>
uni17AE
</note>
  <outline>
    <contour>
      <point x="98" y="478" type="line"/>
      <point x="190" y="478" type="line"/>
      <point x="190" y="645" type="line" smooth="yes"/>
      <point x="190" y="686"/>
      <point x="201" y="707"/>
      <point x="225" y="707" type="curve" smooth="yes"/>
      <point x="262" y="707"/>
      <point x="286" y="646"/>
      <point x="317" y="646" type="curve" smooth="yes"/>
      <point x="350" y="646"/>
      <point x="369" y="707"/>
      <point x="410" y="707" type="curve" smooth="yes"/>
      <point x="434" y="707"/>
      <point x="445" y="686"/>
      <point x="445" y="645" type="curve" smooth="yes"/>
      <point x="445" y="244" type="line"/>
      <point x="537" y="244" type="line"/>
      <point x="537" y="645" type="line" smooth="yes"/>
      <point x="537" y="718"/>
      <point x="511" y="780"/>
      <point x="437" y="780" type="curve" smooth="yes"/>
      <point x="388" y="780"/>
      <point x="356" y="759"/>
      <point x="319" y="719" type="curve"/>
      <point x="317" y="719" type="line"/>
      <point x="281" y="760"/>
      <point x="248" y="780"/>
      <point x="214" y="780" type="curve" smooth="yes"/>
      <point x="128" y="780"/>
      <point x="98" y="718"/>
      <point x="98" y="645" type="curve" smooth="yes"/>
    </contour>
    <contour>
      <point x="98" y="491" type="line"/>
      <point x="98" y="304" type="line" smooth="yes"/>
      <point x="98" y="264"/>
      <point x="128" y="244"/>
      <point x="164" y="244" type="curve" smooth="yes"/>
      <point x="192" y="244" type="line" smooth="yes"/>
      <point x="250" y="244"/>
      <point x="296" y="288"/>
      <point x="296" y="357" type="curve" smooth="yes"/>
      <point x="296" y="431"/>
      <point x="251" y="463"/>
      <point x="190" y="463" type="curve"/>
      <point x="190" y="491" type="line" smooth="yes"/>
    </contour>
    <contour>
      <point x="190" y="311" type="curve"/>
      <point x="190" y="395" type="line"/>
      <point x="220" y="394"/>
      <point x="234" y="380"/>
      <point x="234" y="356" type="curve" smooth="yes"/>
      <point x="234" y="328"/>
      <point x="220" y="311"/>
    </contour>
    <contour>
      <point x="470" y="50" type="line"/>
      <point x="502" y="18"/>
      <point x="541" y="0"/>
      <point x="583" y="0" type="curve" smooth="yes"/>
      <point x="611" y="0" type="line"/>
      <point x="611" y="58" type="line"/>
      <point x="588" y="58" type="line" smooth="yes"/>
      <point x="560" y="58"/>
      <point x="538" y="75"/>
      <point x="520" y="103" type="curve"/>
    </contour>
    <contour>
      <point x="99" y="0" type="line"/>
      <point x="251" y="0" type="line" smooth="yes"/>
      <point x="446" y="0"/>
      <point x="538" y="52"/>
      <point x="538" y="193" type="curve" smooth="yes"/>
      <point x="538" y="220" type="line"/>
      <point x="392" y="220" type="line"/>
      <point x="392" y="156" type="line"/>
      <point x="446" y="156" type="line"/>
      <point x="444" y="91"/>
      <point x="379" y="58"/>
      <point x="245" y="58" type="curve" smooth="yes"/>
      <point x="99" y="58" type="line"/>
    </contour>
  </outline>
</glyph>
<glyph name="uni17AF" format="2">
  <advance width="635"/>
  <unicode hex="17AF"/>
  <note>
uni17AF
</note>
  <outline>
    <contour>
      <point x="98" y="244" type="line"/>
      <point x="204" y="244" type="line"/>
      <point x="318" y="347" type="line"/>
      <point x="431" y="244" type="line"/>
      <point x="537" y="244" type="line"/>
      <point x="537" y="632" type="line" smooth="yes"/>
      <point x="537" y="731"/>
      <point x="491" y="780"/>
      <point x="398" y="780" type="curve" smooth="yes"/>
      <point x="259" y="780" type="line" smooth="yes"/>
      <point x="213" y="780"/>
      <point x="190" y="804"/>
      <point x="190" y="837" type="curve" smooth="yes"/>
      <point x="190" y="936" type="line"/>
      <point x="98" y="936" type="line"/>
      <point x="98" y="837" type="line" smooth="yes"/>
      <point x="98" y="753"/>
      <point x="168" y="713"/>
      <point x="259" y="713" type="curve" smooth="yes"/>
      <point x="352" y="713" type="line" smooth="yes"/>
      <point x="414" y="713"/>
      <point x="445" y="686"/>
      <point x="445" y="632" type="curve" smooth="yes"/>
      <point x="445" y="326" type="line"/>
      <point x="318" y="442" type="line"/>
      <point x="190" y="325" type="line"/>
      <point x="190" y="586" type="line" smooth="yes"/>
      <point x="190" y="633"/>
      <point x="167" y="656"/>
      <point x="122" y="656" type="curve" smooth="yes"/>
      <point x="49" y="656" type="line"/>
      <point x="49" y="586" type="line"/>
      <point x="82" y="586"/>
      <point x="98" y="579"/>
      <point x="98" y="566" type="curve" smooth="yes"/>
    </contour>
  </outline>
</glyph>
<glyph name="uni17B0" format="2">
  <advance width="635"/>
  <unicode hex="17B0"/>
  <note>
uni17B0
</note>
  <outline>
    <contour>
      <point x="98" y="478" type="line"/>
      <point x="190" y="478" type="line"/>
      <point x="190" y="645" type="line" smooth="yes"/>
      <point x="190" y="686"/>
      <point x="201" y="707"/>
      <point x="225" y="707" type="curve" smooth="yes"/>
      <point x="262" y="707"/>
      <point x="286" y="646"/>
      <point x="317" y="646" type="curve" smooth="yes"/>
      <point x="350" y="646"/>
      <point x="369" y="707"/>
      <point x="410" y="707" type="curve" smooth="yes"/>
      <point x="434" y="707"/>
      <point x="445" y="686"/>
      <point x="445" y="645" type="curve" smooth="yes"/>
      <point x="445" y="244" type="line"/>
      <point x="537" y="244" type="line"/>
      <point x="537" y="645" type="line" smooth="yes"/>
      <point x="537" y="718"/>
      <point x="511" y="780"/>
      <point x="437" y="780" type="curve" smooth="yes"/>
      <point x="388" y="780"/>
      <point x="356" y="759"/>
      <point x="319" y="719" type="curve"/>
      <point x="317" y="719" type="line"/>
      <point x="281" y="760"/>
      <point x="248" y="780"/>
      <point x="214" y="780" type="curve" smooth="yes"/>
      <point x="128" y="780"/>
      <point x="98" y="718"/>
      <point x="98" y="645" type="curve" smooth="yes"/>
    </contour>
    <contour>
      <point x="98" y="491" type="line"/>
      <point x="98" y="304" type="line" smooth="yes"/>
      <point x="98" y="264"/>
      <point x="128" y="244"/>
      <point x="164" y="244" type="curve" smooth="yes"/>
      <point x="192" y="244" type="line" smooth="yes"/>
      <point x="250" y="244"/>
      <point x="296" y="288"/>
      <point x="296" y="357" type="curve" smooth="yes"/>
      <point x="296" y="431"/>
      <point x="251" y="463"/>
      <point x="190" y="463" type="curve"/>
      <point x="190" y="491" type="line" smooth="yes"/>
    </contour>
    <contour>
      <point x="190" y="311" type="curve"/>
      <point x="190" y="395" type="line"/>
      <point x="220" y="394"/>
      <point x="234" y="380"/>
      <point x="234" y="356" type="curve" smooth="yes"/>
      <point x="234" y="328"/>
      <point x="220" y="311"/>
    </contour>
    <contour>
      <point x="251" y="32" type="curve" smooth="yes"/>
      <point x="323" y="32"/>
      <point x="356" y="62"/>
      <point x="365" y="92" type="curve"/>
      <point x="379" y="82"/>
      <point x="400" y="71"/>
      <point x="434" y="71" type="curve" smooth="yes"/>
      <point x="486" y="71"/>
      <point x="537" y="94"/>
      <point x="537" y="180" type="curve" smooth="yes"/>
      <point x="537" y="252" type="line"/>
      <point x="456" y="252" type="line"/>
      <point x="434" y="229"/>
      <point x="335" y="208"/>
      <point x="146" y="169" type="curve"/>
      <point x="146" y="108" type="line" smooth="yes"/>
      <point x="146" y="55"/>
      <point x="190" y="32"/>
    </contour>
    <contour>
      <point x="263" y="83" type="curve" smooth="yes"/>
      <point x="241" y="83"/>
      <point x="228" y="94"/>
      <point x="228" y="113" type="curve" smooth="yes"/>
      <point x="228" y="132" type="line"/>
      <point x="314" y="151" type="line"/>
      <point x="314" y="131" type="line" smooth="yes"/>
      <point x="314" y="104"/>
      <point x="292" y="83"/>
    </contour>
    <contour>
      <point x="455" y="167" type="line" smooth="yes"/>
      <point x="455" y="143"/>
      <point x="439" y="126"/>
      <point x="409" y="126" type="curve" smooth="yes"/>
      <point x="384" y="126"/>
      <point x="369" y="134"/>
      <point x="369" y="148" type="curve" smooth="yes"/>
      <point x="369" y="164" type="line"/>
      <point x="455" y="184" type="line"/>
    </contour>
  </outline>
</glyph>
<glyph name="uni17B1" format="2">
  <advance width="645"/>
  <unicode hex="17B1"/>
  <note>
uni17B1
</note>
  <outline>
    <contour>
      <point x="98" y="788" type="curve"/>
      <point x="164" y="832" type="line"/>
      <point x="139" y="861"/>
      <point x="127" y="879"/>
      <point x="127" y="890" type="curve" smooth="yes"/>
      <point x="127" y="895"/>
      <point x="129" y="897"/>
      <point x="139" y="909" type="curve"/>
      <point x="441" y="909" type="line" smooth="yes"/>
      <point x="477" y="909"/>
      <point x="508" y="878"/>
      <point x="510" y="811" type="curve"/>
      <point x="587" y="841" type="line"/>
      <point x="571" y="931"/>
      <point x="522" y="976"/>
      <point x="441" y="976" type="curve" smooth="yes"/>
      <point x="137" y="976" type="line"/>
      <point x="69" y="886"/>
      <point x="60" y="875"/>
      <point x="60" y="857" type="curve" smooth="yes"/>
      <point x="60" y="844"/>
      <point x="73" y="821"/>
    </contour>
    <contour>
      <point x="456" y="240" type="line"/>
      <point x="548" y="240" type="line"/>
      <point x="548" y="438" type="line"/>
      <point x="456" y="438" type="line"/>
      <point x="456" y="423" type="line" smooth="yes"/>
      <point x="456" y="382"/>
      <point x="345" y="311"/>
      <point x="273" y="311" type="curve" smooth="yes"/>
      <point x="217" y="311"/>
      <point x="200" y="342"/>
      <point x="200" y="402" type="curve" smooth="yes"/>
      <point x="200" y="435" type="line"/>
      <point x="288" y="448" type="line" smooth="yes"/>
      <point x="462" y="474"/>
      <point x="548" y="534"/>
      <point x="548" y="637" type="curve" smooth="yes"/>
      <point x="548" y="722"/>
      <point x="491" y="790"/>
      <point x="328" y="790" type="curve" smooth="yes"/>
      <point x="166" y="790"/>
      <point x="109" y="728"/>
      <point x="109" y="651" type="curve" smooth="yes"/>
      <point x="109" y="597"/>
      <point x="151" y="555"/>
      <point x="221" y="555" type="curve" smooth="yes"/>
      <point x="249" y="555" type="line"/>
      <point x="249" y="625" type="line"/>
      <point x="217" y="625"/>
      <point x="200" y="639"/>
      <point x="200" y="662" type="curve" smooth="yes"/>
      <point x="200" y="693"/>
      <point x="234" y="723"/>
      <point x="328" y="723" type="curve" smooth="yes"/>
      <point x="423" y="723"/>
      <point x="456" y="690"/>
      <point x="456" y="639" type="curve" smooth="yes"/>
      <point x="456" y="570"/>
      <point x="398" y="532"/>
      <point x="282" y="515" type="curve" smooth="yes"/>
      <point x="109" y="490" type="line"/>
      <point x="109" y="402" type="line" smooth="yes"/>
      <point x="109" y="312"/>
      <point x="158" y="244"/>
      <point x="264" y="244" type="curve" smooth="yes"/>
      <point x="335" y="244"/>
      <point x="408" y="281"/>
      <point x="455" y="319" type="curve"/>
      <point x="456" y="319" type="line"/>
    </contour>
  </outline>
</glyph>
<glyph name="uni17B2" format="2">
  <advance width="580"/>
  <unicode hex="17B2"/>
  <note>
uni17B2
</note>
  <outline>
    <contour>
      <point x="295" y="244" type="curve" smooth="yes"/>
      <point x="458" y="244"/>
      <point x="527" y="312"/>
      <point x="527" y="416" type="curve" smooth="yes"/>
      <point x="527" y="468"/>
      <point x="513" y="493"/>
      <point x="487" y="528" type="curve"/>
      <point x="532" y="570"/>
      <point x="540" y="577"/>
      <point x="540" y="592" type="curve" smooth="yes"/>
      <point x="540" y="602"/>
      <point x="535" y="608"/>
      <point x="477" y="683" type="curve"/>
      <point x="292" y="683" type="line"/>
      <point x="292" y="616" type="line"/>
      <point x="477" y="616" type="line"/>
      <point x="313" y="471" type="line"/>
      <point x="369" y="420" type="line"/>
      <point x="420" y="465" type="line"/>
      <point x="427" y="454"/>
      <point x="435" y="441"/>
      <point x="435" y="403" type="curve" smooth="yes"/>
      <point x="435" y="343"/>
      <point x="390" y="311"/>
      <point x="295" y="311" type="curve" smooth="yes"/>
      <point x="201" y="311"/>
      <point x="168" y="342"/>
      <point x="168" y="402" type="curve" smooth="yes"/>
      <point x="168" y="672" type="line" smooth="yes"/>
      <point x="168" y="732"/>
      <point x="205" y="763"/>
      <point x="283" y="763" type="curve" smooth="yes"/>
      <point x="358" y="763"/>
      <point x="415" y="750"/>
      <point x="454" y="725" type="curve"/>
      <point x="491" y="785" type="line"/>
      <point x="445" y="815"/>
      <point x="376" y="830"/>
      <point x="283" y="830" type="curve" smooth="yes"/>
      <point x="137" y="830"/>
      <point x="76" y="762"/>
      <point x="76" y="672" type="curve" smooth="yes"/>
      <point x="76" y="402" type="line" smooth="yes"/>
      <point x="76" y="312"/>
      <point x="133" y="244"/>
    </contour>
  </outline>
</glyph>
<glyph name="uni17B3" format="2">
  <advance width="635"/>
  <unicode hex="17B3"/>
  <note>
uni17B3
</note>
  <outline>
    <contour>
      <point x="431" y="1056" type="curve"/>
      <point x="348" y="1056" type="line"/>
      <point x="344" y="1043"/>
      <point x="342" y="1031"/>
      <point x="342" y="1018" type="curve" smooth="yes"/>
      <point x="342" y="991"/>
      <point x="352" y="963"/>
      <point x="372" y="936" type="curve"/>
      <point x="126" y="936" type="line"/>
      <point x="58" y="846"/>
      <point x="49" y="834"/>
      <point x="49" y="820" type="curve" smooth="yes"/>
      <point x="49" y="804"/>
      <point x="62" y="781"/>
      <point x="87" y="748" type="curve"/>
      <point x="153" y="792" type="line"/>
      <point x="128" y="821"/>
      <point x="116" y="839"/>
      <point x="116" y="850" type="curve" smooth="yes"/>
      <point x="116" y="855"/>
      <point x="118" y="857"/>
      <point x="128" y="869" type="curve"/>
      <point x="427" y="869" type="line"/>
      <point x="515" y="764" type="line"/>
      <point x="576" y="801" type="line"/>
      <point x="562" y="879"/>
      <point x="524" y="924"/>
      <point x="461" y="934" type="curve"/>
      <point x="425" y="976"/>
      <point x="420" y="989"/>
      <point x="420" y="1013" type="curve" smooth="yes"/>
      <point x="420" y="1027"/>
      <point x="423" y="1041"/>
    </contour>
    <contour>
      <point x="445" y="240" type="line"/>
      <point x="537" y="240" type="line"/>
      <point x="537" y="438" type="line"/>
      <point x="445" y="438" type="line"/>
      <point x="445" y="423" type="line" smooth="yes"/>
      <point x="445" y="382"/>
      <point x="334" y="311"/>
      <point x="262" y="311" type="curve" smooth="yes"/>
      <point x="206" y="311"/>
      <point x="189" y="342"/>
      <point x="189" y="402" type="curve" smooth="yes"/>
      <point x="189" y="435" type="line"/>
      <point x="277" y="448" type="line" smooth="yes"/>
      <point x="451" y="474"/>
      <point x="537" y="534"/>
      <point x="537" y="637" type="curve" smooth="yes"/>
      <point x="537" y="722"/>
      <point x="480" y="790"/>
      <point x="317" y="790" type="curve" smooth="yes"/>
      <point x="155" y="790"/>
      <point x="98" y="728"/>
      <point x="98" y="651" type="curve" smooth="yes"/>
      <point x="98" y="597"/>
      <point x="140" y="555"/>
      <point x="210" y="555" type="curve" smooth="yes"/>
      <point x="238" y="555" type="line"/>
      <point x="238" y="625" type="line"/>
      <point x="206" y="625"/>
      <point x="189" y="639"/>
      <point x="189" y="662" type="curve" smooth="yes"/>
      <point x="189" y="693"/>
      <point x="223" y="723"/>
      <point x="317" y="723" type="curve" smooth="yes"/>
      <point x="412" y="723"/>
      <point x="445" y="690"/>
      <point x="445" y="639" type="curve" smooth="yes"/>
      <point x="445" y="570"/>
      <point x="387" y="532"/>
      <point x="271" y="515" type="curve" smooth="yes"/>
      <point x="98" y="490" type="line"/>
      <point x="98" y="402" type="line" smooth="yes"/>
      <point x="98" y="312"/>
      <point x="147" y="244"/>
      <point x="253" y="244" type="curve" smooth="yes"/>
      <point x="324" y="244"/>
      <point x="397" y="281"/>
      <point x="444" y="319" type="curve"/>
      <point x="445" y="319" type="line"/>
    </contour>
  </outline>
</glyph>
<glyph name="uni17B5" format="2">
  <advance width="288"/>
  <unicode hex="17B5"/>
  <note>
uni17B5
</note>
  <outline>
    <contour>
      <point x="98" y="244" type="line"/>
      <point x="190" y="244" type="line"/>
      <point x="190" y="652" type="line" smooth="yes"/>
      <point x="190" y="737"/>
      <point x="167" y="780"/>
      <point x="66" y="780" type="curve" smooth="yes"/>
      <point x="-128" y="780" type="line"/>
      <point x="-128" y="713" type="line"/>
      <point x="20" y="713" type="line" smooth="yes"/>
      <point x="82" y="713"/>
      <point x="98" y="698"/>
      <point x="98" y="652" type="curve" smooth="yes"/>
    </contour>
  </outline>
</glyph>
<glyph name="uni17B6" format="2">
  <advance width="288"/>
  <unicode hex="17B6"/>
  <note>
uni17B6
</note>
  <outline>
    <contour>
      <point x="98" y="244" type="line"/>
      <point x="190" y="244" type="line"/>
      <point x="190" y="652" type="line" smooth="yes"/>
      <point x="190" y="737"/>
      <point x="167" y="780"/>
      <point x="66" y="780" type="curve" smooth="yes"/>
      <point x="-128" y="780" type="line"/>
      <point x="-128" y="713" type="line"/>
      <point x="20" y="713" type="line" smooth="yes"/>
      <point x="82" y="713"/>
      <point x="98" y="698"/>
      <point x="98" y="652" type="curve" smooth="yes"/>
    </contour>
  </outline>
</glyph>
<glyph name="uni17BA" format="2">
  <unicode hex="17BA"/>
  <note>
uni17BA
</note>
  <outline>
    <contour>
      <point x="-165" y="885" type="line"/>
      <point x="-165" y="684" type="line"/>
      <point x="-98" y="684" type="line"/>
      <point x="-98" y="885" type="line"/>
    </contour>
    <contour>
      <point x="-272" y="910" type="line"/>
      <point x="-272" y="814" type="line"/>
      <point x="-205" y="814" type="line"/>
      <point x="-205" y="910" type="line"/>
    </contour>
    <contour>
      <point x="-464" y="684" type="curve" smooth="yes"/>
      <point x="-98" y="684" type="line"/>
      <point x="-98" y="757" type="line"/>
      <point x="-169" y="822"/>
      <point x="-264" y="879"/>
      <point x="-361" y="879" type="curve" smooth="yes"/>
      <point x="-459" y="879"/>
      <point x="-513" y="822"/>
      <point x="-513" y="757" type="curve" smooth="yes"/>
      <point x="-513" y="708"/>
      <point x="-497" y="684"/>
    </contour>
    <contour>
      <point x="-439" y="747" type="line"/>
      <point x="-439" y="799"/>
      <point x="-410" y="816"/>
      <point x="-361" y="816" type="curve" smooth="yes"/>
      <point x="-322" y="816"/>
      <point x="-264" y="799"/>
      <point x="-191" y="747" type="curve"/>
    </contour>
  </outline>
</glyph>
<glyph name="uni17BC" format="2">
  <unicode hex="17BC"/>
  <note>
uni17BC
</note>
  <outline>
    <contour>
      <point x="-310" y="-244" type="curve" smooth="yes"/>
      <point x="-212" y="-244"/>
      <point x="-168" y="-205"/>
      <point x="-168" y="-137" type="curve" smooth="yes"/>
      <point x="-168" y="-50" type="line"/>
      <point x="-250" y="-50" type="line"/>
      <point x="-250" y="-137" type="line" smooth="yes"/>
      <point x="-250" y="-166"/>
      <point x="-270" y="-186"/>
      <point x="-310" y="-186" type="curve" smooth="yes"/>
      <point x="-350" y="-186"/>
      <point x="-370" y="-166"/>
      <point x="-370" y="-137" type="curve" smooth="yes"/>
      <point x="-370" y="-50" type="line"/>
      <point x="-452" y="-50" type="line"/>
      <point x="-452" y="-137" type="line" smooth="yes"/>
      <point x="-452" y="-205"/>
      <point x="-408" y="-244"/>
    </contour>
  </outline>
</glyph>
<glyph name="uni17BD" format="2">
  <unicode hex="17BD"/>
  <note>
uni17BD
</note>
  <outline>
    <contour>
      <point x="-469" y="-244" type="line"/>
      <point x="-371" y="-244" type="line"/>
      <point x="-310" y="-191" type="line"/>
      <point x="-249" y="-244" type="line"/>
      <point x="-152" y="-244" type="line"/>
      <point x="-152" y="-50" type="line"/>
      <point x="-239" y="-50" type="line"/>
      <point x="-239" y="-185" type="line"/>
      <point x="-310" y="-122" type="line"/>
      <point x="-382" y="-186" type="line"/>
      <point x="-382" y="-50" type="line"/>
      <point x="-469" y="-50" type="line"/>
    </contour>
  </outline>
</glyph>
<glyph name="uni17BE" format="2">
  <unicode hex="17BE"/>
  <note>
uni17BE
</note>
  <outline>
    <contour>
      <point x="769" y="837" type="line"/>
      <point x="769" y="1056" type="line"/>
      <point x="702" y="1056" type="line"/>
      <point x="702" y="837" type="line"/>
    </contour>
    <contour>
      <point x="403" y="837" type="curve" smooth="yes"/>
      <point x="769" y="837" type="line"/>
      <point x="769" y="910" type="line"/>
      <point x="698" y="975"/>
      <point x="603" y="1032"/>
      <point x="506" y="1032" type="curve" smooth="yes"/>
      <point x="408" y="1032"/>
      <point x="354" y="975"/>
      <point x="354" y="910" type="curve" smooth="yes"/>
      <point x="354" y="861"/>
      <point x="370" y="837"/>
    </contour>
    <contour>
      <point x="428" y="900" type="line"/>
      <point x="428" y="952"/>
      <point x="457" y="969"/>
      <point x="506" y="969" type="curve" smooth="yes"/>
      <point x="545" y="969"/>
      <point x="603" y="952"/>
      <point x="676" y="900" type="curve"/>
    </contour>
    <contour>
      <point x="189" y="571" type="line"/>
      <point x="97" y="571" type="line"/>
      <point x="97" y="294" type="line" smooth="yes"/>
      <point x="97" y="261"/>
      <point x="122" y="244"/>
      <point x="171" y="244" type="curve" smooth="yes"/>
      <point x="268" y="244" type="line"/>
      <point x="268" y="311" type="line"/>
      <point x="221" y="311" type="line" smooth="yes"/>
      <point x="197" y="311"/>
      <point x="189" y="319"/>
      <point x="189" y="346" type="curve" smooth="yes"/>
    </contour>
    <contour>
      <point x="97" y="555" type="line"/>
      <point x="189" y="555" type="line"/>
      <point x="189" y="604" type="line"/>
      <point x="92" y="712" type="line"/>
      <point x="92" y="713" type="line"/>
      <point x="213" y="713" type="line"/>
      <point x="213" y="780" type="line"/>
      <point x="92" y="780" type="line"/>
      <point x="38" y="709"/>
      <point x="28" y="696"/>
      <point x="28" y="685" type="curve" smooth="yes"/>
      <point x="28" y="672"/>
      <point x="34" y="665"/>
      <point x="97" y="588" type="curve"/>
    </contour>
    <contour>
      <point x="367" y="511" type="curve" smooth="yes"/>
      <point x="380" y="511"/>
      <point x="391" y="522"/>
      <point x="391" y="535" type="curve" smooth="yes"/>
      <point x="391" y="548"/>
      <point x="380" y="559"/>
      <point x="367" y="559" type="curve" smooth="yes"/>
      <point x="354" y="559"/>
      <point x="343" y="548"/>
      <point x="343" y="535" type="curve" smooth="yes"/>
      <point x="343" y="522"/>
      <point x="354" y="511"/>
    </contour>
    <contour>
      <point x="393" y="612" type="curve" smooth="yes"/>
      <point x="406" y="612"/>
      <point x="417" y="623"/>
      <point x="417" y="636" type="curve" smooth="yes"/>
      <point x="417" y="649"/>
      <point x="406" y="660"/>
      <point x="393" y="660" type="curve" smooth="yes"/>
      <point x="380" y="660"/>
      <point x="369" y="649"/>
      <point x="369" y="636" type="curve" smooth="yes"/>
      <point x="369" y="623"/>
      <point x="380" y="612"/>
    </contour>
    <contour>
      <point x="464" y="682" type="curve" smooth="yes"/>
      <point x="477" y="682"/>
      <point x="488" y="693"/>
      <point x="488" y="706" type="curve" smooth="yes"/>
      <point x="488" y="719"/>
      <point x="477" y="730"/>
      <point x="464" y="730" type="curve" smooth="yes"/>
      <point x="451" y="730"/>
      <point x="440" y="719"/>
      <point x="440" y="706" type="curve" smooth="yes"/>
      <point x="440" y="693"/>
      <point x="451" y="682"/>
    </contour>
    <contour>
      <point x="561" y="706" type="curve" smooth="yes"/>
      <point x="574" y="706"/>
      <point x="585" y="717"/>
      <point x="585" y="730" type="curve" smooth="yes"/>
      <point x="585" y="743"/>
      <point x="574" y="754"/>
      <point x="561" y="754" type="curve" smooth="yes"/>
      <point x="548" y="754"/>
      <point x="537" y="743"/>
      <point x="537" y="730" type="curve" smooth="yes"/>
      <point x="537" y="717"/>
      <point x="548" y="706"/>
    </contour>
    <contour>
      <point x="658" y="682" type="curve" smooth="yes"/>
      <point x="671" y="682"/>
      <point x="682" y="693"/>
      <point x="682" y="706" type="curve" smooth="yes"/>
      <point x="682" y="719"/>
      <point x="671" y="730"/>
      <point x="658" y="730" type="curve" smooth="yes"/>
      <point x="645" y="730"/>
      <point x="634" y="719"/>
      <point x="634" y="706" type="curve" smooth="yes"/>
      <point x="634" y="693"/>
      <point x="645" y="682"/>
    </contour>
    <contour>
      <point x="728" y="610" type="curve" smooth="yes"/>
      <point x="741" y="610"/>
      <point x="752" y="621"/>
      <point x="752" y="634" type="curve" smooth="yes"/>
      <point x="752" y="647"/>
      <point x="741" y="658"/>
      <point x="728" y="658" type="curve" smooth="yes"/>
      <point x="715" y="658"/>
      <point x="704" y="647"/>
      <point x="704" y="634" type="curve" smooth="yes"/>
      <point x="704" y="621"/>
      <point x="715" y="610"/>
    </contour>
    <contour>
      <point x="758" y="511" type="curve" smooth="yes"/>
      <point x="771" y="511"/>
      <point x="782" y="522"/>
      <point x="782" y="535" type="curve" smooth="yes"/>
      <point x="782" y="548"/>
      <point x="771" y="559"/>
      <point x="758" y="559" type="curve" smooth="yes"/>
      <point x="745" y="559"/>
      <point x="734" y="548"/>
      <point x="734" y="535" type="curve" smooth="yes"/>
      <point x="734" y="522"/>
      <point x="745" y="511"/>
    </contour>
    <contour>
      <point x="730" y="417" type="curve" smooth="yes"/>
      <point x="743" y="417"/>
      <point x="754" y="428"/>
      <point x="754" y="441" type="curve" smooth="yes"/>
      <point x="754" y="454"/>
      <point x="743" y="465"/>
      <point x="730" y="465" type="curve" smooth="yes"/>
      <point x="717" y="465"/>
      <point x="706" y="454"/>
      <point x="706" y="441" type="curve" smooth="yes"/>
      <point x="706" y="428"/>
      <point x="717" y="417"/>
    </contour>
    <contour>
      <point x="659" y="345" type="curve" smooth="yes"/>
      <point x="672" y="345"/>
      <point x="683" y="356"/>
      <point x="683" y="369" type="curve" smooth="yes"/>
      <point x="683" y="382"/>
      <point x="672" y="393"/>
      <point x="659" y="393" type="curve" smooth="yes"/>
      <point x="646" y="393"/>
      <point x="635" y="382"/>
      <point x="635" y="369" type="curve" smooth="yes"/>
      <point x="635" y="356"/>
      <point x="646" y="345"/>
    </contour>
    <contour>
      <point x="561" y="317" type="curve" smooth="yes"/>
      <point x="574" y="317"/>
      <point x="585" y="328"/>
      <point x="585" y="341" type="curve" smooth="yes"/>
      <point x="585" y="354"/>
      <point x="574" y="365"/>
      <point x="561" y="365" type="curve" smooth="yes"/>
      <point x="548" y="365"/>
      <point x="537" y="354"/>
      <point x="537" y="341" type="curve" smooth="yes"/>
      <point x="537" y="328"/>
      <point x="548" y="317"/>
    </contour>
    <contour>
      <point x="464" y="344" type="curve" smooth="yes"/>
      <point x="477" y="344"/>
      <point x="488" y="355"/>
      <point x="488" y="368" type="curve" smooth="yes"/>
      <point x="488" y="381"/>
      <point x="477" y="392"/>
      <point x="464" y="392" type="curve" smooth="yes"/>
      <point x="451" y="392"/>
      <point x="440" y="381"/>
      <point x="440" y="368" type="curve" smooth="yes"/>
      <point x="440" y="355"/>
      <point x="451" y="344"/>
    </contour>
    <contour>
      <point x="391" y="416" type="curve" smooth="yes"/>
      <point x="404" y="416"/>
      <point x="415" y="427"/>
      <point x="415" y="440" type="curve" smooth="yes"/>
      <point x="415" y="453"/>
      <point x="404" y="464"/>
      <point x="391" y="464" type="curve" smooth="yes"/>
      <point x="378" y="464"/>
      <point x="367" y="453"/>
      <point x="367" y="440" type="curve" smooth="yes"/>
      <point x="367" y="427"/>
      <point x="378" y="416"/>
    </contour>
  </outline>
</glyph>
<glyph name="uni17BF" format="2">
  <advance width="1171"/>
  <unicode hex="17BF"/>
  <note>
uni17BF
</note>
  <outline>
    <contour>
      <point x="189" y="571" type="line"/>
      <point x="97" y="571" type="line"/>
      <point x="97" y="294" type="line" smooth="yes"/>
      <point x="97" y="261"/>
      <point x="122" y="244"/>
      <point x="171" y="244" type="curve" smooth="yes"/>
      <point x="268" y="244" type="line"/>
      <point x="268" y="311" type="line"/>
      <point x="221" y="311" type="line" smooth="yes"/>
      <point x="197" y="311"/>
      <point x="189" y="319"/>
      <point x="189" y="346" type="curve" smooth="yes"/>
    </contour>
    <contour>
      <point x="97" y="555" type="line"/>
      <point x="189" y="555" type="line"/>
      <point x="189" y="604" type="line"/>
      <point x="92" y="712" type="line"/>
      <point x="92" y="713" type="line"/>
      <point x="213" y="713" type="line"/>
      <point x="213" y="780" type="line"/>
      <point x="92" y="780" type="line"/>
      <point x="38" y="709"/>
      <point x="28" y="696"/>
      <point x="28" y="685" type="curve" smooth="yes"/>
      <point x="28" y="672"/>
      <point x="34" y="665"/>
      <point x="97" y="588" type="curve"/>
    </contour>
    <contour>
      <point x="402" y="511" type="curve" smooth="yes"/>
      <point x="415" y="511"/>
      <point x="426" y="522"/>
      <point x="426" y="535" type="curve" smooth="yes"/>
      <point x="426" y="548"/>
      <point x="415" y="559"/>
      <point x="402" y="559" type="curve" smooth="yes"/>
      <point x="389" y="559"/>
      <point x="378" y="548"/>
      <point x="378" y="535" type="curve" smooth="yes"/>
      <point x="378" y="522"/>
      <point x="389" y="511"/>
    </contour>
    <contour>
      <point x="428" y="612" type="curve" smooth="yes"/>
      <point x="441" y="612"/>
      <point x="452" y="623"/>
      <point x="452" y="636" type="curve" smooth="yes"/>
      <point x="452" y="649"/>
      <point x="441" y="660"/>
      <point x="428" y="660" type="curve" smooth="yes"/>
      <point x="415" y="660"/>
      <point x="404" y="649"/>
      <point x="404" y="636" type="curve" smooth="yes"/>
      <point x="404" y="623"/>
      <point x="415" y="612"/>
    </contour>
    <contour>
      <point x="499" y="682" type="curve" smooth="yes"/>
      <point x="512" y="682"/>
      <point x="523" y="693"/>
      <point x="523" y="706" type="curve" smooth="yes"/>
      <point x="523" y="719"/>
      <point x="512" y="730"/>
      <point x="499" y="730" type="curve" smooth="yes"/>
      <point x="486" y="730"/>
      <point x="475" y="719"/>
      <point x="475" y="706" type="curve" smooth="yes"/>
      <point x="475" y="693"/>
      <point x="486" y="682"/>
    </contour>
    <contour>
      <point x="596" y="706" type="curve" smooth="yes"/>
      <point x="609" y="706"/>
      <point x="620" y="717"/>
      <point x="620" y="730" type="curve" smooth="yes"/>
      <point x="620" y="743"/>
      <point x="609" y="754"/>
      <point x="596" y="754" type="curve" smooth="yes"/>
      <point x="583" y="754"/>
      <point x="572" y="743"/>
      <point x="572" y="730" type="curve" smooth="yes"/>
      <point x="572" y="717"/>
      <point x="583" y="706"/>
    </contour>
    <contour>
      <point x="693" y="682" type="curve" smooth="yes"/>
      <point x="706" y="682"/>
      <point x="717" y="693"/>
      <point x="717" y="706" type="curve" smooth="yes"/>
      <point x="717" y="719"/>
      <point x="706" y="730"/>
      <point x="693" y="730" type="curve" smooth="yes"/>
      <point x="680" y="730"/>
      <point x="669" y="719"/>
      <point x="669" y="706" type="curve" smooth="yes"/>
      <point x="669" y="693"/>
      <point x="680" y="682"/>
    </contour>
    <contour>
      <point x="763" y="610" type="curve" smooth="yes"/>
      <point x="776" y="610"/>
      <point x="787" y="621"/>
      <point x="787" y="634" type="curve" smooth="yes"/>
      <point x="787" y="647"/>
      <point x="776" y="658"/>
      <point x="763" y="658" type="curve" smooth="yes"/>
      <point x="750" y="658"/>
      <point x="739" y="647"/>
      <point x="739" y="634" type="curve" smooth="yes"/>
      <point x="739" y="621"/>
      <point x="750" y="610"/>
    </contour>
    <contour>
      <point x="793" y="511" type="curve" smooth="yes"/>
      <point x="806" y="511"/>
      <point x="817" y="522"/>
      <point x="817" y="535" type="curve" smooth="yes"/>
      <point x="817" y="548"/>
      <point x="806" y="559"/>
      <point x="793" y="559" type="curve" smooth="yes"/>
      <point x="780" y="559"/>
      <point x="769" y="548"/>
      <point x="769" y="535" type="curve" smooth="yes"/>
      <point x="769" y="522"/>
      <point x="780" y="511"/>
    </contour>
    <contour>
      <point x="765" y="417" type="curve" smooth="yes"/>
      <point x="778" y="417"/>
      <point x="789" y="428"/>
      <point x="789" y="441" type="curve" smooth="yes"/>
      <point x="789" y="454"/>
      <point x="778" y="465"/>
      <point x="765" y="465" type="curve" smooth="yes"/>
      <point x="752" y="465"/>
      <point x="741" y="454"/>
      <point x="741" y="441" type="curve" smooth="yes"/>
      <point x="741" y="428"/>
      <point x="752" y="417"/>
    </contour>
    <contour>
      <point x="694" y="345" type="curve" smooth="yes"/>
      <point x="707" y="345"/>
      <point x="718" y="356"/>
      <point x="718" y="369" type="curve" smooth="yes"/>
      <point x="718" y="382"/>
      <point x="707" y="393"/>
      <point x="694" y="393" type="curve" smooth="yes"/>
      <point x="681" y="393"/>
      <point x="670" y="382"/>
      <point x="670" y="369" type="curve" smooth="yes"/>
      <point x="670" y="356"/>
      <point x="681" y="345"/>
    </contour>
    <contour>
      <point x="596" y="317" type="curve" smooth="yes"/>
      <point x="609" y="317"/>
      <point x="620" y="328"/>
      <point x="620" y="341" type="curve" smooth="yes"/>
      <point x="620" y="354"/>
      <point x="609" y="365"/>
      <point x="596" y="365" type="curve" smooth="yes"/>
      <point x="583" y="365"/>
      <point x="572" y="354"/>
      <point x="572" y="341" type="curve" smooth="yes"/>
      <point x="572" y="328"/>
      <point x="583" y="317"/>
    </contour>
    <contour>
      <point x="499" y="344" type="curve" smooth="yes"/>
      <point x="512" y="344"/>
      <point x="523" y="355"/>
      <point x="523" y="368" type="curve" smooth="yes"/>
      <point x="523" y="381"/>
      <point x="512" y="392"/>
      <point x="499" y="392" type="curve" smooth="yes"/>
      <point x="486" y="392"/>
      <point x="475" y="381"/>
      <point x="475" y="368" type="curve" smooth="yes"/>
      <point x="475" y="355"/>
      <point x="486" y="344"/>
    </contour>
    <contour>
      <point x="426" y="416" type="curve" smooth="yes"/>
      <point x="439" y="416"/>
      <point x="450" y="427"/>
      <point x="450" y="440" type="curve" smooth="yes"/>
      <point x="450" y="453"/>
      <point x="439" y="464"/>
      <point x="426" y="464" type="curve" smooth="yes"/>
      <point x="413" y="464"/>
      <point x="402" y="453"/>
      <point x="402" y="440" type="curve" smooth="yes"/>
      <point x="402" y="427"/>
      <point x="413" y="416"/>
    </contour>
    <contour>
      <point x="1073" y="694" type="line"/>
      <point x="981" y="694" type="line"/>
      <point x="981" y="117" type="line" smooth="yes"/>
      <point x="981" y="84"/>
      <point x="948" y="67"/>
      <point x="883" y="67" type="curve" smooth="yes"/>
      <point x="818" y="67"/>
      <point x="786" y="84"/>
      <point x="786" y="117" type="curve" smooth="yes"/>
      <point x="786" y="137" type="line"/>
      <point x="811" y="137" type="line"/>
      <point x="811" y="195" type="line"/>
      <point x="694" y="195" type="line"/>
      <point x="694" y="117" type="line" smooth="yes"/>
      <point x="694" y="39"/>
      <point x="757" y="0"/>
      <point x="883" y="0" type="curve" smooth="yes"/>
      <point x="1009" y="0"/>
      <point x="1073" y="39"/>
      <point x="1073" y="117" type="curve" smooth="yes"/>
    </contour>
    <contour>
      <point x="981" y="692" type="line"/>
      <point x="1073" y="692" type="line"/>
      <point x="1073" y="744" type="line" smooth="yes"/>
      <point x="1073" y="817"/>
      <point x="1039" y="888"/>
      <point x="952" y="946" type="curve" smooth="yes"/>
      <point x="851" y="1013"/>
      <point x="810" y="1032"/>
      <point x="756" y="1032" type="curve" smooth="yes"/>
      <point x="667" y="1032"/>
      <point x="629" y="979"/>
      <point x="629" y="915" type="curve" smooth="yes"/>
      <point x="629" y="874"/>
      <point x="645" y="837"/>
      <point x="700" y="837" type="curve" smooth="yes"/>
      <point x="883" y="837" type="line" smooth="yes"/>
      <point x="948" y="837"/>
      <point x="981" y="806"/>
      <point x="981" y="744" type="curve" smooth="yes"/>
    </contour>
    <contour>
      <point x="702" y="900" type="line"/>
      <point x="702" y="945"/>
      <point x="727" y="968"/>
      <point x="760" y="968" type="curve" smooth="yes"/>
      <point x="797" y="968"/>
      <point x="843" y="941"/>
      <point x="891" y="900" type="curve"/>
    </contour>
    <contour>
      <point x="873" y="977" type="line"/>
      <point x="873" y="1056" type="line"/>
      <point x="806" y="1056" type="line"/>
      <point x="806" y="1008" type="line"/>
    </contour>
    <contour>
      <point x="981" y="916" type="line"/>
      <point x="981" y="1043" type="line"/>
      <point x="913" y="1043" type="line"/>
      <point x="913" y="953" type="line"/>
    </contour>
  </outline>
</glyph>
<glyph name="uni17C0" format="2">
  <advance width="1170"/>
  <unicode hex="17C0"/>
  <note>
uni17C0
</note>
  <outline>
    <contour>
      <point x="189" y="571" type="line"/>
      <point x="97" y="571" type="line"/>
      <point x="97" y="294" type="line" smooth="yes"/>
      <point x="97" y="261"/>
      <point x="122" y="244"/>
      <point x="171" y="244" type="curve" smooth="yes"/>
      <point x="268" y="244" type="line"/>
      <point x="268" y="311" type="line"/>
      <point x="221" y="311" type="line" smooth="yes"/>
      <point x="197" y="311"/>
      <point x="189" y="319"/>
      <point x="189" y="346" type="curve" smooth="yes"/>
    </contour>
    <contour>
      <point x="97" y="555" type="line"/>
      <point x="189" y="555" type="line"/>
      <point x="189" y="604" type="line"/>
      <point x="92" y="712" type="line"/>
      <point x="92" y="713" type="line"/>
      <point x="213" y="713" type="line"/>
      <point x="213" y="780" type="line"/>
      <point x="92" y="780" type="line"/>
      <point x="38" y="709"/>
      <point x="28" y="696"/>
      <point x="28" y="685" type="curve" smooth="yes"/>
      <point x="28" y="672"/>
      <point x="34" y="665"/>
      <point x="97" y="588" type="curve"/>
    </contour>
    <contour>
      <point x="394" y="511" type="curve" smooth="yes"/>
      <point x="407" y="511"/>
      <point x="418" y="522"/>
      <point x="418" y="535" type="curve" smooth="yes"/>
      <point x="418" y="548"/>
      <point x="407" y="559"/>
      <point x="394" y="559" type="curve" smooth="yes"/>
      <point x="381" y="559"/>
      <point x="370" y="548"/>
      <point x="370" y="535" type="curve" smooth="yes"/>
      <point x="370" y="522"/>
      <point x="381" y="511"/>
    </contour>
    <contour>
      <point x="420" y="612" type="curve" smooth="yes"/>
      <point x="433" y="612"/>
      <point x="444" y="623"/>
      <point x="444" y="636" type="curve" smooth="yes"/>
      <point x="444" y="649"/>
      <point x="433" y="660"/>
      <point x="420" y="660" type="curve" smooth="yes"/>
      <point x="407" y="660"/>
      <point x="396" y="649"/>
      <point x="396" y="636" type="curve" smooth="yes"/>
      <point x="396" y="623"/>
      <point x="407" y="612"/>
    </contour>
    <contour>
      <point x="491" y="682" type="curve" smooth="yes"/>
      <point x="504" y="682"/>
      <point x="515" y="693"/>
      <point x="515" y="706" type="curve" smooth="yes"/>
      <point x="515" y="719"/>
      <point x="504" y="730"/>
      <point x="491" y="730" type="curve" smooth="yes"/>
      <point x="478" y="730"/>
      <point x="467" y="719"/>
      <point x="467" y="706" type="curve" smooth="yes"/>
      <point x="467" y="693"/>
      <point x="478" y="682"/>
    </contour>
    <contour>
      <point x="588" y="706" type="curve" smooth="yes"/>
      <point x="601" y="706"/>
      <point x="612" y="717"/>
      <point x="612" y="730" type="curve" smooth="yes"/>
      <point x="612" y="743"/>
      <point x="601" y="754"/>
      <point x="588" y="754" type="curve" smooth="yes"/>
      <point x="575" y="754"/>
      <point x="564" y="743"/>
      <point x="564" y="730" type="curve" smooth="yes"/>
      <point x="564" y="717"/>
      <point x="575" y="706"/>
    </contour>
    <contour>
      <point x="685" y="682" type="curve" smooth="yes"/>
      <point x="698" y="682"/>
      <point x="709" y="693"/>
      <point x="709" y="706" type="curve" smooth="yes"/>
      <point x="709" y="719"/>
      <point x="698" y="730"/>
      <point x="685" y="730" type="curve" smooth="yes"/>
      <point x="672" y="730"/>
      <point x="661" y="719"/>
      <point x="661" y="706" type="curve" smooth="yes"/>
      <point x="661" y="693"/>
      <point x="672" y="682"/>
    </contour>
    <contour>
      <point x="755" y="610" type="curve" smooth="yes"/>
      <point x="768" y="610"/>
      <point x="779" y="621"/>
      <point x="779" y="634" type="curve" smooth="yes"/>
      <point x="779" y="647"/>
      <point x="768" y="658"/>
      <point x="755" y="658" type="curve" smooth="yes"/>
      <point x="742" y="658"/>
      <point x="731" y="647"/>
      <point x="731" y="634" type="curve" smooth="yes"/>
      <point x="731" y="621"/>
      <point x="742" y="610"/>
    </contour>
    <contour>
      <point x="785" y="511" type="curve" smooth="yes"/>
      <point x="798" y="511"/>
      <point x="809" y="522"/>
      <point x="809" y="535" type="curve" smooth="yes"/>
      <point x="809" y="548"/>
      <point x="798" y="559"/>
      <point x="785" y="559" type="curve" smooth="yes"/>
      <point x="772" y="559"/>
      <point x="761" y="548"/>
      <point x="761" y="535" type="curve" smooth="yes"/>
      <point x="761" y="522"/>
      <point x="772" y="511"/>
    </contour>
    <contour>
      <point x="757" y="417" type="curve" smooth="yes"/>
      <point x="770" y="417"/>
      <point x="781" y="428"/>
      <point x="781" y="441" type="curve" smooth="yes"/>
      <point x="781" y="454"/>
      <point x="770" y="465"/>
      <point x="757" y="465" type="curve" smooth="yes"/>
      <point x="744" y="465"/>
      <point x="733" y="454"/>
      <point x="733" y="441" type="curve" smooth="yes"/>
      <point x="733" y="428"/>
      <point x="744" y="417"/>
    </contour>
    <contour>
      <point x="686" y="345" type="curve" smooth="yes"/>
      <point x="699" y="345"/>
      <point x="710" y="356"/>
      <point x="710" y="369" type="curve" smooth="yes"/>
      <point x="710" y="382"/>
      <point x="699" y="393"/>
      <point x="686" y="393" type="curve" smooth="yes"/>
      <point x="673" y="393"/>
      <point x="662" y="382"/>
      <point x="662" y="369" type="curve" smooth="yes"/>
      <point x="662" y="356"/>
      <point x="673" y="345"/>
    </contour>
    <contour>
      <point x="588" y="317" type="curve" smooth="yes"/>
      <point x="601" y="317"/>
      <point x="612" y="328"/>
      <point x="612" y="341" type="curve" smooth="yes"/>
      <point x="612" y="354"/>
      <point x="601" y="365"/>
      <point x="588" y="365" type="curve" smooth="yes"/>
      <point x="575" y="365"/>
      <point x="564" y="354"/>
      <point x="564" y="341" type="curve" smooth="yes"/>
      <point x="564" y="328"/>
      <point x="575" y="317"/>
    </contour>
    <contour>
      <point x="491" y="344" type="curve" smooth="yes"/>
      <point x="504" y="344"/>
      <point x="515" y="355"/>
      <point x="515" y="368" type="curve" smooth="yes"/>
      <point x="515" y="381"/>
      <point x="504" y="392"/>
      <point x="491" y="392" type="curve" smooth="yes"/>
      <point x="478" y="392"/>
      <point x="467" y="381"/>
      <point x="467" y="368" type="curve" smooth="yes"/>
      <point x="467" y="355"/>
      <point x="478" y="344"/>
    </contour>
    <contour>
      <point x="418" y="416" type="curve" smooth="yes"/>
      <point x="431" y="416"/>
      <point x="442" y="427"/>
      <point x="442" y="440" type="curve" smooth="yes"/>
      <point x="442" y="453"/>
      <point x="431" y="464"/>
      <point x="418" y="464" type="curve" smooth="yes"/>
      <point x="405" y="464"/>
      <point x="394" y="453"/>
      <point x="394" y="440" type="curve" smooth="yes"/>
      <point x="394" y="427"/>
      <point x="405" y="416"/>
    </contour>
    <contour>
      <point x="1072" y="742" type="line"/>
      <point x="980" y="742" type="line"/>
      <point x="980" y="121" type="line" smooth="yes"/>
      <point x="980" y="88"/>
      <point x="947" y="67"/>
      <point x="882" y="67" type="curve" smooth="yes"/>
      <point x="817" y="67"/>
      <point x="785" y="88"/>
      <point x="785" y="121" type="curve" smooth="yes"/>
      <point x="785" y="137" type="line"/>
      <point x="810" y="137" type="line"/>
      <point x="810" y="195" type="line"/>
      <point x="693" y="195" type="line"/>
      <point x="693" y="117" type="line" smooth="yes"/>
      <point x="693" y="39"/>
      <point x="756" y="0"/>
      <point x="882" y="0" type="curve" smooth="yes"/>
      <point x="1008" y="0"/>
      <point x="1072" y="39"/>
      <point x="1072" y="117" type="curve" smooth="yes"/>
    </contour>
    <contour>
      <point x="980" y="740" type="line"/>
      <point x="1072" y="740" type="line"/>
      <point x="1072" y="813" type="line" smooth="yes"/>
      <point x="1072" y="931"/>
      <point x="1012" y="989"/>
      <point x="890" y="989" type="curve" smooth="yes"/>
      <point x="843" y="989"/>
      <point x="809" y="977"/>
      <point x="784" y="961" type="curve"/>
      <point x="784" y="1056" type="line"/>
      <point x="692" y="1056" type="line"/>
      <point x="692" y="887" type="line"/>
      <point x="784" y="887" type="line"/>
      <point x="804" y="912"/>
      <point x="834" y="926"/>
      <point x="873" y="926" type="curve" smooth="yes"/>
      <point x="938" y="926"/>
      <point x="980" y="888"/>
      <point x="980" y="813" type="curve" smooth="yes"/>
    </contour>
  </outline>
</glyph>
<glyph name="uni17C1" format="2">
  <advance width="288"/>
  <unicode hex="17C1"/>
  <note>
uni17C1
</note>
  <outline>
    <contour>
      <point x="189" y="571" type="line"/>
      <point x="97" y="571" type="line"/>
      <point x="97" y="294" type="line" smooth="yes"/>
      <point x="97" y="261"/>
      <point x="122" y="244"/>
      <point x="171" y="244" type="curve" smooth="yes"/>
      <point x="268" y="244" type="line"/>
      <point x="268" y="311" type="line"/>
      <point x="221" y="311" type="line" smooth="yes"/>
      <point x="197" y="311"/>
      <point x="189" y="319"/>
      <point x="189" y="346" type="curve" smooth="yes"/>
    </contour>
    <contour>
      <point x="97" y="555" type="line"/>
      <point x="189" y="555" type="line"/>
      <point x="189" y="604" type="line"/>
      <point x="92" y="712" type="line"/>
      <point x="92" y="713" type="line"/>
      <point x="213" y="713" type="line"/>
      <point x="213" y="780" type="line"/>
      <point x="92" y="780" type="line"/>
      <point x="38" y="709"/>
      <point x="28" y="696"/>
      <point x="28" y="685" type="curve" smooth="yes"/>
      <point x="28" y="672"/>
      <point x="34" y="665"/>
      <point x="97" y="588" type="curve"/>
    </contour>
  </outline>
</glyph>
<glyph name="uni17C2" format="2">
  <advance width="288"/>
  <unicode hex="17C2"/>
  <note>
uni17C2
</note>
  <outline>
    <contour>
      <point x="115" y="829" type="curve" smooth="yes"/>
      <point x="215" y="829"/>
      <point x="283" y="899"/>
      <point x="283" y="1048" type="curve"/>
      <point x="210" y="1048" type="line"/>
      <point x="210" y="944"/>
      <point x="171" y="892"/>
      <point x="110" y="892" type="curve" smooth="yes"/>
      <point x="84" y="892"/>
      <point x="75" y="904"/>
      <point x="75" y="917" type="curve" smooth="yes"/>
      <point x="75" y="937"/>
      <point x="94" y="946"/>
      <point x="130" y="946" type="curve"/>
      <point x="130" y="1009" type="line"/>
      <point x="43" y="1009"/>
      <point x="0" y="976"/>
      <point x="0" y="918" type="curve" smooth="yes"/>
      <point x="0" y="856"/>
      <point x="56" y="829"/>
    </contour>
    <contour>
      <point x="189" y="571" type="line"/>
      <point x="97" y="571" type="line"/>
      <point x="97" y="294" type="line" smooth="yes"/>
      <point x="97" y="261"/>
      <point x="122" y="244"/>
      <point x="171" y="244" type="curve" smooth="yes"/>
      <point x="268" y="244" type="line"/>
      <point x="268" y="311" type="line"/>
      <point x="221" y="311" type="line" smooth="yes"/>
      <point x="197" y="311"/>
      <point x="189" y="319"/>
      <point x="189" y="346" type="curve" smooth="yes"/>
    </contour>
    <contour>
      <point x="97" y="555" type="line"/>
      <point x="189" y="555" type="line"/>
      <point x="189" y="604" type="line"/>
      <point x="92" y="712" type="line"/>
      <point x="92" y="713" type="line"/>
      <point x="213" y="713" type="line"/>
      <point x="213" y="780" type="line"/>
      <point x="92" y="780" type="line"/>
      <point x="38" y="709"/>
      <point x="28" y="696"/>
      <point x="28" y="685" type="curve" smooth="yes"/>
      <point x="28" y="672"/>
      <point x="34" y="665"/>
      <point x="97" y="588" type="curve"/>
    </contour>
  </outline>
</glyph>
<glyph name="uni17C3" format="2">
  <advance width="288"/>
  <unicode hex="17C3"/>
  <note>
uni17C3
</note>
  <outline>
    <contour>
      <point x="24" y="809" type="line"/>
      <point x="135" y="809" type="line" smooth="yes"/>
      <point x="225" y="809"/>
      <point x="264" y="847"/>
      <point x="264" y="909" type="curve" smooth="yes"/>
      <point x="264" y="972"/>
      <point x="224" y="1010"/>
      <point x="162" y="1010" type="curve" smooth="yes"/>
      <point x="132" y="1010"/>
      <point x="110" y="1001"/>
      <point x="98" y="990" type="curve"/>
      <point x="98" y="1007" type="line" smooth="yes"/>
      <point x="98" y="1041"/>
      <point x="88" y="1056"/>
      <point x="48" y="1056" type="curve" smooth="yes"/>
      <point x="0" y="1056" type="line"/>
      <point x="0" y="1002" type="line"/>
      <point x="16" y="1002"/>
      <point x="24" y="996"/>
      <point x="24" y="980" type="curve" smooth="yes"/>
      <point x="24" y="921" type="line"/>
      <point x="98" y="921" type="line"/>
      <point x="107" y="936"/>
      <point x="118" y="950"/>
      <point x="146" y="950" type="curve" smooth="yes"/>
      <point x="173" y="950"/>
      <point x="186" y="937"/>
      <point x="186" y="913" type="curve" smooth="yes"/>
      <point x="186" y="892"/>
      <point x="176" y="872"/>
      <point x="120" y="872" type="curve" smooth="yes"/>
      <point x="24" y="872" type="line"/>
    </contour>
    <contour>
      <point x="189" y="571" type="line"/>
      <point x="97" y="571" type="line"/>
      <point x="97" y="294" type="line" smooth="yes"/>
      <point x="97" y="261"/>
      <point x="122" y="244"/>
      <point x="171" y="244" type="curve" smooth="yes"/>
      <point x="268" y="244" type="line"/>
      <point x="268" y="311" type="line"/>
      <point x="221" y="311" type="line" smooth="yes"/>
      <point x="197" y="311"/>
      <point x="189" y="319"/>
      <point x="189" y="346" type="curve" smooth="yes"/>
    </contour>
    <contour>
      <point x="97" y="555" type="line"/>
      <point x="189" y="555" type="line"/>
      <point x="189" y="604" type="line"/>
      <point x="92" y="712" type="line"/>
      <point x="92" y="713" type="line"/>
      <point x="213" y="713" type="line"/>
      <point x="213" y="780" type="line"/>
      <point x="92" y="780" type="line"/>
      <point x="38" y="709"/>
      <point x="28" y="696"/>
      <point x="28" y="685" type="curve" smooth="yes"/>
      <point x="28" y="672"/>
      <point x="34" y="665"/>
      <point x="97" y="588" type="curve"/>
    </contour>
  </outline>
</glyph>
<glyph name="uni17C5" format="2">
  <advance width="1069"/>
  <unicode hex="17C5"/>
  <note>
uni17C5
</note>
  <outline>
    <contour>
      <point x="189" y="571" type="line"/>
      <point x="97" y="571" type="line"/>
      <point x="97" y="294" type="line" smooth="yes"/>
      <point x="97" y="261"/>
      <point x="122" y="244"/>
      <point x="171" y="244" type="curve" smooth="yes"/>
      <point x="268" y="244" type="line"/>
      <point x="268" y="311" type="line"/>
      <point x="221" y="311" type="line" smooth="yes"/>
      <point x="197" y="311"/>
      <point x="189" y="319"/>
      <point x="189" y="346" type="curve" smooth="yes"/>
    </contour>
    <contour>
      <point x="97" y="555" type="line"/>
      <point x="189" y="555" type="line"/>
      <point x="189" y="604" type="line"/>
      <point x="92" y="712" type="line"/>
      <point x="92" y="713" type="line"/>
      <point x="213" y="713" type="line"/>
      <point x="213" y="780" type="line"/>
      <point x="92" y="780" type="line"/>
      <point x="38" y="709"/>
      <point x="28" y="696"/>
      <point x="28" y="685" type="curve" smooth="yes"/>
      <point x="28" y="672"/>
      <point x="34" y="665"/>
      <point x="97" y="588" type="curve"/>
    </contour>
    <contour>
      <point x="314" y="491" type="curve" smooth="yes"/>
      <point x="327" y="491"/>
      <point x="338" y="502"/>
      <point x="338" y="515" type="curve" smooth="yes"/>
      <point x="338" y="528"/>
      <point x="327" y="539"/>
      <point x="314" y="539" type="curve" smooth="yes"/>
      <point x="301" y="539"/>
      <point x="290" y="528"/>
      <point x="290" y="515" type="curve" smooth="yes"/>
      <point x="290" y="502"/>
      <point x="301" y="491"/>
    </contour>
    <contour>
      <point x="340" y="592" type="curve" smooth="yes"/>
      <point x="353" y="592"/>
      <point x="364" y="603"/>
      <point x="364" y="616" type="curve" smooth="yes"/>
      <point x="364" y="629"/>
      <point x="353" y="640"/>
      <point x="340" y="640" type="curve" smooth="yes"/>
      <point x="327" y="640"/>
      <point x="316" y="629"/>
      <point x="316" y="616" type="curve" smooth="yes"/>
      <point x="316" y="603"/>
      <point x="327" y="592"/>
    </contour>
    <contour>
      <point x="411" y="662" type="curve" smooth="yes"/>
      <point x="424" y="662"/>
      <point x="435" y="673"/>
      <point x="435" y="686" type="curve" smooth="yes"/>
      <point x="435" y="699"/>
      <point x="424" y="710"/>
      <point x="411" y="710" type="curve" smooth="yes"/>
      <point x="398" y="710"/>
      <point x="387" y="699"/>
      <point x="387" y="686" type="curve" smooth="yes"/>
      <point x="387" y="673"/>
      <point x="398" y="662"/>
    </contour>
    <contour>
      <point x="508" y="686" type="curve" smooth="yes"/>
      <point x="521" y="686"/>
      <point x="532" y="697"/>
      <point x="532" y="710" type="curve" smooth="yes"/>
      <point x="532" y="723"/>
      <point x="521" y="734"/>
      <point x="508" y="734" type="curve" smooth="yes"/>
      <point x="495" y="734"/>
      <point x="484" y="723"/>
      <point x="484" y="710" type="curve" smooth="yes"/>
      <point x="484" y="697"/>
      <point x="495" y="686"/>
    </contour>
    <contour>
      <point x="605" y="662" type="curve" smooth="yes"/>
      <point x="618" y="662"/>
      <point x="629" y="673"/>
      <point x="629" y="686" type="curve" smooth="yes"/>
      <point x="629" y="699"/>
      <point x="618" y="710"/>
      <point x="605" y="710" type="curve" smooth="yes"/>
      <point x="592" y="710"/>
      <point x="581" y="699"/>
      <point x="581" y="686" type="curve" smooth="yes"/>
      <point x="581" y="673"/>
      <point x="592" y="662"/>
    </contour>
    <contour>
      <point x="675" y="590" type="curve" smooth="yes"/>
      <point x="688" y="590"/>
      <point x="699" y="601"/>
      <point x="699" y="614" type="curve" smooth="yes"/>
      <point x="699" y="627"/>
      <point x="688" y="638"/>
      <point x="675" y="638" type="curve" smooth="yes"/>
      <point x="662" y="638"/>
      <point x="651" y="627"/>
      <point x="651" y="614" type="curve" smooth="yes"/>
      <point x="651" y="601"/>
      <point x="662" y="590"/>
    </contour>
    <contour>
      <point x="705" y="491" type="curve" smooth="yes"/>
      <point x="718" y="491"/>
      <point x="729" y="502"/>
      <point x="729" y="515" type="curve" smooth="yes"/>
      <point x="729" y="528"/>
      <point x="718" y="539"/>
      <point x="705" y="539" type="curve" smooth="yes"/>
      <point x="692" y="539"/>
      <point x="681" y="528"/>
      <point x="681" y="515" type="curve" smooth="yes"/>
      <point x="681" y="502"/>
      <point x="692" y="491"/>
    </contour>
    <contour>
      <point x="677" y="397" type="curve" smooth="yes"/>
      <point x="690" y="397"/>
      <point x="701" y="408"/>
      <point x="701" y="421" type="curve" smooth="yes"/>
      <point x="701" y="434"/>
      <point x="690" y="445"/>
      <point x="677" y="445" type="curve" smooth="yes"/>
      <point x="664" y="445"/>
      <point x="653" y="434"/>
      <point x="653" y="421" type="curve" smooth="yes"/>
      <point x="653" y="408"/>
      <point x="664" y="397"/>
    </contour>
    <contour>
      <point x="606" y="325" type="curve" smooth="yes"/>
      <point x="619" y="325"/>
      <point x="630" y="336"/>
      <point x="630" y="349" type="curve" smooth="yes"/>
      <point x="630" y="362"/>
      <point x="619" y="373"/>
      <point x="606" y="373" type="curve" smooth="yes"/>
      <point x="593" y="373"/>
      <point x="582" y="362"/>
      <point x="582" y="349" type="curve" smooth="yes"/>
      <point x="582" y="336"/>
      <point x="593" y="325"/>
    </contour>
    <contour>
      <point x="508" y="297" type="curve" smooth="yes"/>
      <point x="521" y="297"/>
      <point x="532" y="308"/>
      <point x="532" y="321" type="curve" smooth="yes"/>
      <point x="532" y="334"/>
      <point x="521" y="345"/>
      <point x="508" y="345" type="curve" smooth="yes"/>
      <point x="495" y="345"/>
      <point x="484" y="334"/>
      <point x="484" y="321" type="curve" smooth="yes"/>
      <point x="484" y="308"/>
      <point x="495" y="297"/>
    </contour>
    <contour>
      <point x="411" y="324" type="curve" smooth="yes"/>
      <point x="424" y="324"/>
      <point x="435" y="335"/>
      <point x="435" y="348" type="curve" smooth="yes"/>
      <point x="435" y="361"/>
      <point x="424" y="372"/>
      <point x="411" y="372" type="curve" smooth="yes"/>
      <point x="398" y="372"/>
      <point x="387" y="361"/>
      <point x="387" y="348" type="curve" smooth="yes"/>
      <point x="387" y="335"/>
      <point x="398" y="324"/>
    </contour>
    <contour>
      <point x="338" y="396" type="curve" smooth="yes"/>
      <point x="351" y="396"/>
      <point x="362" y="407"/>
      <point x="362" y="420" type="curve" smooth="yes"/>
      <point x="362" y="433"/>
      <point x="351" y="444"/>
      <point x="338" y="444" type="curve" smooth="yes"/>
      <point x="325" y="444"/>
      <point x="314" y="433"/>
      <point x="314" y="420" type="curve" smooth="yes"/>
      <point x="314" y="407"/>
      <point x="325" y="396"/>
    </contour>
    <contour>
      <point x="960" y="799" type="line"/>
      <point x="960" y="944" type="line" smooth="yes"/>
      <point x="960" y="1010"/>
      <point x="947" y="1048"/>
      <point x="873" y="1048" type="curve" smooth="yes"/>
      <point x="771" y="1048" type="line"/>
      <point x="771" y="981" type="line"/>
      <point x="834" y="981" type="line" smooth="yes"/>
      <point x="863" y="981"/>
      <point x="868" y="972"/>
      <point x="868" y="944" type="curve" smooth="yes"/>
      <point x="868" y="799" type="line"/>
    </contour>
    <contour>
      <point x="879" y="244" type="line"/>
      <point x="971" y="244" type="line"/>
      <point x="971" y="652" type="line" smooth="yes"/>
      <point x="971" y="737"/>
      <point x="948" y="780"/>
      <point x="847" y="780" type="curve" smooth="yes"/>
      <point x="653" y="780" type="line"/>
      <point x="653" y="713" type="line"/>
      <point x="801" y="713" type="line" smooth="yes"/>
      <point x="863" y="713"/>
      <point x="879" y="698"/>
      <point x="879" y="652" type="curve" smooth="yes"/>
    </contour>
  </outline>
</glyph>
<glyph name="uni17C7" format="2">
  <advance width="386"/>
  <unicode hex="17C7"/>
  <note>
uni17C7
</note>
  <outline>
    <contour>
      <point x="193" y="563" type="curve" smooth="yes"/>
      <point x="255" y="563"/>
      <point x="306" y="614"/>
      <point x="306" y="676" type="curve" smooth="yes"/>
      <point x="306" y="738"/>
      <point x="255" y="789"/>
      <point x="193" y="789" type="curve" smooth="yes"/>
      <point x="131" y="789"/>
      <point x="80" y="738"/>
      <point x="80" y="676" type="curve" smooth="yes"/>
      <point x="80" y="614"/>
      <point x="131" y="563"/>
    </contour>
    <contour>
      <point x="193" y="237" type="curve" smooth="yes"/>
      <point x="255" y="237"/>
      <point x="306" y="288"/>
      <point x="306" y="350" type="curve" smooth="yes"/>
      <point x="306" y="412"/>
      <point x="255" y="463"/>
      <point x="193" y="463" type="curve" smooth="yes"/>
      <point x="131" y="463"/>
      <point x="80" y="412"/>
      <point x="80" y="350" type="curve" smooth="yes"/>
      <point x="80" y="288"/>
      <point x="131" y="237"/>
    </contour>
    <contour>
      <point x="192" y="624" type="curve" smooth="yes"/>
      <point x="164" y="624"/>
      <point x="140" y="647"/>
      <point x="140" y="676" type="curve" smooth="yes"/>
      <point x="140" y="707"/>
      <point x="163" y="730"/>
      <point x="192" y="730" type="curve" smooth="yes"/>
      <point x="222" y="730"/>
      <point x="245" y="705"/>
      <point x="245" y="676" type="curve" smooth="yes"/>
      <point x="245" y="646"/>
      <point x="221" y="624"/>
    </contour>
    <contour>
      <point x="192" y="298" type="curve" smooth="yes"/>
      <point x="164" y="298"/>
      <point x="140" y="321"/>
      <point x="140" y="350" type="curve" smooth="yes"/>
      <point x="140" y="381"/>
      <point x="163" y="404"/>
      <point x="192" y="404" type="curve" smooth="yes"/>
      <point x="222" y="404"/>
      <point x="245" y="379"/>
      <point x="245" y="350" type="curve" smooth="yes"/>
      <point x="245" y="320"/>
      <point x="221" y="298"/>
    </contour>
  </outline>
</glyph>
<glyph name="uni17C8" format="2">
  <advance width="283"/>
  <unicode hex="17C8"/>
  <note>
uni17C8
</note>
  <outline>
    <contour>
      <point x="137" y="645" type="curve" smooth="yes"/>
      <point x="160" y="645"/>
      <point x="186" y="664"/>
      <point x="186" y="694" type="curve" smooth="yes"/>
      <point x="186" y="721"/>
      <point x="164" y="743"/>
      <point x="137" y="743" type="curve" smooth="yes"/>
      <point x="109" y="743"/>
      <point x="88" y="721"/>
      <point x="88" y="694" type="curve" smooth="yes"/>
      <point x="88" y="671"/>
      <point x="108" y="645"/>
    </contour>
    <contour>
      <point x="137" y="279" type="curve" smooth="yes"/>
      <point x="160" y="279"/>
      <point x="186" y="298"/>
      <point x="186" y="328" type="curve" smooth="yes"/>
      <point x="186" y="355"/>
      <point x="164" y="377"/>
      <point x="137" y="377" type="curve" smooth="yes"/>
      <point x="109" y="377"/>
      <point x="88" y="355"/>
      <point x="88" y="328" type="curve" smooth="yes"/>
      <point x="88" y="305"/>
      <point x="108" y="279"/>
    </contour>
  </outline>
</glyph>
<glyph name="uni17C9" format="2">
  <unicode hex="17C9"/>
  <note>
uni17C9
</note>
  <outline>
    <contour>
      <point x="-423" y="684" type="line"/>
      <point x="-349" y="684" type="line"/>
      <point x="-349" y="879" type="line"/>
      <point x="-423" y="879" type="line"/>
    </contour>
    <contour>
      <point x="-271" y="684" type="line"/>
      <point x="-197" y="684" type="line"/>
      <point x="-197" y="879" type="line"/>
      <point x="-271" y="879" type="line"/>
    </contour>
  </outline>
</glyph>
<glyph name="uni17CA" format="2">
  <unicode hex="17CA"/>
  <note>
uni17CA
</note>
  <outline>
    <contour>
      <point x="-530" y="684" type="line"/>
      <point x="-90" y="684" type="line"/>
      <point x="-90" y="751" type="line"/>
      <point x="-262" y="751" type="line"/>
      <point x="-310" y="698" type="line"/>
      <point x="-358" y="751" type="line"/>
      <point x="-530" y="751" type="line"/>
    </contour>
  </outline>
</glyph>
<glyph name="uni17CC" format="2">
  <unicode hex="17CC"/>
  <note>
uni17CC
</note>
  <outline>
    <contour>
      <point x="-445" y="678" type="line"/>
      <point x="-398" y="715"/>
      <point x="-362" y="731"/>
      <point x="-314" y="731" type="curve" smooth="yes"/>
      <point x="-274" y="731"/>
      <point x="-232" y="720"/>
      <point x="-194" y="674" type="curve"/>
      <point x="-138" y="718" type="line"/>
      <point x="-180" y="771"/>
      <point x="-242" y="793"/>
      <point x="-311" y="784" type="curve"/>
      <point x="-284" y="820"/>
      <point x="-266" y="842"/>
      <point x="-239" y="889" type="curve"/>
      <point x="-298" y="908" type="line"/>
      <point x="-318" y="860"/>
      <point x="-387" y="791"/>
      <point x="-485" y="730" type="curve"/>
    </contour>
  </outline>
</glyph>
<glyph name="uni17CD" format="2">
  <unicode hex="17CD"/>
  <note>
uni17CD
</note>
  <outline>
    <contour>
      <point x="-382" y="684" type="curve" smooth="yes"/>
      <point x="-350" y="684" type="line"/>
      <point x="-350" y="741" type="line"/>
      <point x="-377" y="741" type="line" smooth="yes"/>
      <point x="-412" y="741"/>
      <point x="-428" y="749"/>
      <point x="-428" y="767" type="curve" smooth="yes"/>
      <point x="-428" y="784"/>
      <point x="-406" y="791"/>
      <point x="-377" y="791" type="curve" smooth="yes"/>
      <point x="-303" y="791" type="line" smooth="yes"/>
      <point x="-207" y="791"/>
      <point x="-136" y="844"/>
      <point x="-136" y="903" type="curve"/>
      <point x="-222" y="903" type="line"/>
      <point x="-222" y="879"/>
      <point x="-239" y="855"/>
      <point x="-314" y="855" type="curve" smooth="yes"/>
      <point x="-370" y="855" type="line" smooth="yes"/>
      <point x="-465" y="855"/>
      <point x="-501" y="818"/>
      <point x="-501" y="771" type="curve" smooth="yes"/>
      <point x="-501" y="709"/>
      <point x="-461" y="684"/>
    </contour>
  </outline>
</glyph>
<glyph name="uni17CE" format="2">
  <unicode hex="17CE"/>
  <note>
uni17CE
</note>
  <outline>
    <contour>
      <point x="-346" y="684" type="line"/>
      <point x="-274" y="684" type="line"/>
      <point x="-274" y="763" type="line"/>
      <point x="-185" y="763" type="line"/>
      <point x="-185" y="831" type="line"/>
      <point x="-274" y="831" type="line"/>
      <point x="-274" y="910" type="line"/>
      <point x="-346" y="910" type="line"/>
      <point x="-346" y="831" type="line"/>
      <point x="-435" y="831" type="line"/>
      <point x="-435" y="763" type="line"/>
      <point x="-346" y="763" type="line"/>
    </contour>
  </outline>
</glyph>
<glyph name="uni17CF" format="2">
  <unicode hex="17CF"/>
  <note>
uni17CF
</note>
  <outline>
    <contour>
      <point x="-505" y="684" type="line"/>
      <point x="-422" y="684" type="line"/>
      <point x="-310" y="725" type="line"/>
      <point x="-192" y="684" type="line"/>
      <point x="-114" y="684" type="line"/>
      <point x="-114" y="787" type="line"/>
      <point x="-187" y="787" type="line"/>
      <point x="-187" y="739" type="line"/>
      <point x="-309" y="782" type="line"/>
      <point x="-431" y="740" type="line"/>
      <point x="-431" y="770" type="line" smooth="yes"/>
      <point x="-431" y="790"/>
      <point x="-425" y="804"/>
      <point x="-400" y="804" type="curve" smooth="yes"/>
      <point x="-230" y="804" type="line" smooth="yes"/>
      <point x="-162" y="804"/>
      <point x="-114" y="848"/>
      <point x="-114" y="894" type="curve" smooth="yes"/>
      <point x="-114" y="908" type="line"/>
      <point x="-187" y="908" type="line"/>
      <point x="-187" y="877"/>
      <point x="-230" y="861"/>
      <point x="-316" y="861" type="curve" smooth="yes"/>
      <point x="-383" y="861" type="line" smooth="yes"/>
      <point x="-464" y="861"/>
      <point x="-505" y="828"/>
      <point x="-505" y="762" type="curve" smooth="yes"/>
    </contour>
  </outline>
</glyph>
<glyph name="uni17D0" format="2">
  <unicode hex="17D0"/>
  <note>
uni17D0
</note>
  <outline>
    <contour>
      <point x="-337.1" y="682" type="curve" smooth="yes"/>
      <point x="-200.3" y="682"/>
      <point x="-114.8" y="770"/>
      <point x="-114.8" y="902" type="curve"/>
      <point x="-190.4" y="902" type="line"/>
      <point x="-190.4" y="798"/>
      <point x="-246.2" y="745"/>
      <point x="-328.1" y="745" type="curve" smooth="yes"/>
      <point x="-378.5" y="745"/>
      <point x="-392.9" y="760"/>
      <point x="-392.9" y="782" type="curve" smooth="yes"/>
      <point x="-392.9" y="808"/>
      <point x="-365" y="821"/>
      <point x="-310.1" y="821" type="curve"/>
      <point x="-310.1" y="880" type="line"/>
      <point x="-407.3" y="880"/>
      <point x="-466.7" y="849"/>
      <point x="-466.7" y="776" type="curve" smooth="yes"/>
      <point x="-466.7" y="719"/>
      <point x="-427.1" y="682"/>
    </contour>
  </outline>
</glyph>
<glyph name="uni17D3" format="2">
  <unicode hex="17D3"/>
  <note>
uni17D3
</note>
  <outline>
    <contour>
      <point x="-297" y="695" type="curve" smooth="yes"/>
      <point x="-193" y="695"/>
      <point x="-102" y="738"/>
      <point x="-102" y="807" type="curve" smooth="yes"/>
      <point x="-102" y="872"/>
      <point x="-193" y="919"/>
      <point x="-297" y="919" type="curve" smooth="yes"/>
      <point x="-401" y="919"/>
      <point x="-493" y="874"/>
      <point x="-493" y="807" type="curve" smooth="yes"/>
      <point x="-493" y="743"/>
      <point x="-401" y="695"/>
    </contour>
    <contour>
      <point x="-297" y="760" type="curve" smooth="yes"/>
      <point x="-353" y="760"/>
      <point x="-403" y="781"/>
      <point x="-403" y="807" type="curve" smooth="yes"/>
      <point x="-403" y="831"/>
      <point x="-356" y="854"/>
      <point x="-297" y="854" type="curve" smooth="yes"/>
      <point x="-239" y="854"/>
      <point x="-191" y="834"/>
      <point x="-191" y="807" type="curve" smooth="yes"/>
      <point x="-191" y="782"/>
      <point x="-235" y="760"/>
    </contour>
  </outline>
</glyph>
<glyph name="uni17D5" format="2">
  <advance width="732"/>
  <unicode hex="17D5"/>
  <note>
uni17D5
</note>
  <outline>
    <contour>
      <point x="543" y="244" type="line"/>
      <point x="635" y="244" type="line"/>
      <point x="635" y="830" type="line"/>
      <point x="543" y="830" type="line"/>
    </contour>
    <contour>
      <point x="396" y="244" type="line"/>
      <point x="488" y="244" type="line"/>
      <point x="488" y="830" type="line"/>
      <point x="396" y="830" type="line"/>
      <point x="338" y="732"/>
      <point x="299" y="699"/>
      <point x="233" y="699" type="curve" smooth="yes"/>
      <point x="202" y="699"/>
      <point x="189" y="715"/>
      <point x="189" y="733" type="curve" smooth="yes"/>
      <point x="189" y="749"/>
      <point x="202" y="763"/>
      <point x="226" y="763" type="curve" smooth="yes"/>
      <point x="242" y="763" type="line"/>
      <point x="242" y="830" type="line"/>
      <point x="216" y="830" type="line" smooth="yes"/>
      <point x="148" y="830"/>
      <point x="98" y="801"/>
      <point x="98" y="732" type="curve" smooth="yes"/>
      <point x="98" y="680"/>
      <point x="137" y="632"/>
      <point x="228" y="632" type="curve" smooth="yes"/>
      <point x="302" y="632"/>
      <point x="361" y="659"/>
      <point x="396" y="706" type="curve"/>
    </contour>
  </outline>
</glyph>
<glyph name="uni17D6" format="2">
  <advance width="477"/>
  <unicode hex="17D6"/>
  <note>
uni17D6
</note>
  <outline>
    <contour>
      <point x="80" y="503" type="line"/>
      <point x="397" y="503" type="line"/>
      <point x="397" y="570" type="line"/>
      <point x="80" y="570" type="line"/>
    </contour>
    <contour>
      <point x="227" y="241" type="curve" smooth="yes"/>
      <point x="289" y="241"/>
      <point x="340" y="292"/>
      <point x="340" y="354" type="curve" smooth="yes"/>
      <point x="340" y="416"/>
      <point x="289" y="467"/>
      <point x="227" y="467" type="curve" smooth="yes"/>
      <point x="165" y="467"/>
      <point x="114" y="416"/>
      <point x="114" y="354" type="curve" smooth="yes"/>
      <point x="114" y="292"/>
      <point x="165" y="241"/>
    </contour>
    <contour>
      <point x="226" y="302" type="curve" smooth="yes"/>
      <point x="198" y="302"/>
      <point x="174" y="325"/>
      <point x="174" y="354" type="curve" smooth="yes"/>
      <point x="174" y="385"/>
      <point x="197" y="408"/>
      <point x="226" y="408" type="curve" smooth="yes"/>
      <point x="256" y="408"/>
      <point x="279" y="383"/>
      <point x="279" y="354" type="curve" smooth="yes"/>
      <point x="279" y="324"/>
      <point x="255" y="302"/>
    </contour>
    <contour>
      <point x="227" y="607" type="curve" smooth="yes"/>
      <point x="289" y="607"/>
      <point x="340" y="658"/>
      <point x="340" y="720" type="curve" smooth="yes"/>
      <point x="340" y="782"/>
      <point x="289" y="833"/>
      <point x="227" y="833" type="curve" smooth="yes"/>
      <point x="165" y="833"/>
      <point x="114" y="782"/>
      <point x="114" y="720" type="curve" smooth="yes"/>
      <point x="114" y="658"/>
      <point x="165" y="607"/>
    </contour>
    <contour>
      <point x="226" y="668" type="curve" smooth="yes"/>
      <point x="198" y="668"/>
      <point x="174" y="691"/>
      <point x="174" y="720" type="curve" smooth="yes"/>
      <point x="174" y="751"/>
      <point x="197" y="774"/>
      <point x="226" y="774" type="curve" smooth="yes"/>
      <point x="256" y="774"/>
      <point x="279" y="749"/>
      <point x="279" y="720" type="curve" smooth="yes"/>
      <point x="279" y="690"/>
      <point x="255" y="668"/>
    </contour>
  </outline>
</glyph>
<glyph name="uni17D7" format="2">
  <advance width="586"/>
  <unicode hex="17D7"/>
  <note>
uni17D7
</note>
  <outline>
    <contour>
      <point x="269" y="49" type="line"/>
      <point x="294" y="49" type="line" smooth="yes"/>
      <point x="428" y="49"/>
      <point x="488" y="103"/>
      <point x="488" y="205" type="curve" smooth="yes"/>
      <point x="488" y="830" type="line"/>
      <point x="396" y="830" type="line"/>
      <point x="360" y="777"/>
      <point x="333" y="750"/>
      <point x="308" y="750" type="curve" smooth="yes"/>
      <point x="276" y="750"/>
      <point x="262" y="830"/>
      <point x="183" y="830" type="curve" smooth="yes"/>
      <point x="122" y="830"/>
      <point x="73" y="786"/>
      <point x="73" y="722" type="curve" smooth="yes"/>
      <point x="73" y="666"/>
      <point x="117" y="619"/>
      <point x="189" y="619" type="curve" smooth="yes"/>
      <point x="214" y="619" type="line"/>
      <point x="214" y="690" type="line"/>
      <point x="205" y="690" type="line" smooth="yes"/>
      <point x="178" y="690"/>
      <point x="165" y="706"/>
      <point x="165" y="725" type="curve" smooth="yes"/>
      <point x="165" y="741"/>
      <point x="174" y="757"/>
      <point x="197" y="757" type="curve" smooth="yes"/>
      <point x="237" y="757"/>
      <point x="240" y="685"/>
      <point x="305" y="685" type="curve" smooth="yes"/>
      <point x="333" y="685"/>
      <point x="362" y="700"/>
      <point x="395" y="729" type="curve"/>
      <point x="396" y="729" type="line"/>
      <point x="396" y="205" type="line" smooth="yes"/>
      <point x="396" y="148"/>
      <point x="374" y="116"/>
      <point x="276" y="116" type="curve" smooth="yes"/>
      <point x="269" y="116" type="line"/>
    </contour>
  </outline>
</glyph>
<glyph name="uni17D8" format="2">
  <advance width="1960"/>
  <unicode hex="17D8"/>
  <note>
uni17D8
</note>
  <outline>
    <contour>
      <point x="396" y="244" type="line"/>
      <point x="488" y="244" type="line"/>
      <point x="488" y="830" type="line"/>
      <point x="396" y="830" type="line"/>
      <point x="338" y="732"/>
      <point x="299" y="699"/>
      <point x="233" y="699" type="curve" smooth="yes"/>
      <point x="202" y="699"/>
      <point x="189" y="715"/>
      <point x="189" y="733" type="curve" smooth="yes"/>
      <point x="189" y="749"/>
      <point x="202" y="763"/>
      <point x="226" y="763" type="curve" smooth="yes"/>
      <point x="242" y="763" type="line"/>
      <point x="242" y="830" type="line"/>
      <point x="216" y="830" type="line" smooth="yes"/>
      <point x="148" y="830"/>
      <point x="98" y="801"/>
      <point x="98" y="732" type="curve" smooth="yes"/>
      <point x="98" y="680"/>
      <point x="137" y="632"/>
      <point x="228" y="632" type="curve" smooth="yes"/>
      <point x="302" y="632"/>
      <point x="361" y="659"/>
      <point x="396" y="706" type="curve"/>
    </contour>
    <contour>
      <point x="1340" y="573" type="line"/>
      <point x="1248" y="573" type="line"/>
      <point x="1248" y="402" type="line" smooth="yes"/>
      <point x="1248" y="342"/>
      <point x="1211" y="311"/>
      <point x="1135" y="311" type="curve" smooth="yes"/>
      <point x="1060" y="311"/>
      <point x="1023" y="342"/>
      <point x="1023" y="402" type="curve" smooth="yes"/>
      <point x="1023" y="622" type="line" smooth="yes"/>
      <point x="1023" y="727"/>
      <point x="953" y="780"/>
      <point x="815" y="780" type="curve" smooth="yes"/>
      <point x="677" y="780"/>
      <point x="608" y="727"/>
      <point x="608" y="622" type="curve" smooth="yes"/>
      <point x="608" y="479" type="line"/>
      <point x="700" y="479" type="line"/>
      <point x="700" y="622" type="line" smooth="yes"/>
      <point x="700" y="682"/>
      <point x="738" y="713"/>
      <point x="815" y="713" type="curve" smooth="yes"/>
      <point x="892" y="713"/>
      <point x="931" y="682"/>
      <point x="931" y="622" type="curve" smooth="yes"/>
      <point x="931" y="402" type="line" smooth="yes"/>
      <point x="931" y="297"/>
      <point x="999" y="244"/>
      <point x="1135" y="244" type="curve" smooth="yes"/>
      <point x="1272" y="244"/>
      <point x="1340" y="297"/>
      <point x="1340" y="402" type="curve" smooth="yes"/>
    </contour>
    <contour>
      <point x="608" y="491" type="line"/>
      <point x="608" y="304" type="line" smooth="yes"/>
      <point x="608" y="264"/>
      <point x="638" y="244"/>
      <point x="674" y="244" type="curve" smooth="yes"/>
      <point x="702" y="244" type="line" smooth="yes"/>
      <point x="760" y="244"/>
      <point x="806" y="288"/>
      <point x="806" y="357" type="curve" smooth="yes"/>
      <point x="806" y="431"/>
      <point x="761" y="463"/>
      <point x="700" y="463" type="curve"/>
      <point x="700" y="491" type="line" smooth="yes"/>
    </contour>
    <contour>
      <point x="700" y="311" type="curve"/>
      <point x="700" y="395" type="line"/>
      <point x="730" y="394"/>
      <point x="744" y="380"/>
      <point x="744" y="356" type="curve" smooth="yes"/>
      <point x="744" y="328"/>
      <point x="730" y="311"/>
    </contour>
    <contour>
      <point x="1248" y="555" type="line"/>
      <point x="1340" y="555" type="line"/>
      <point x="1340" y="604" type="line"/>
      <point x="1243" y="712" type="line"/>
      <point x="1243" y="713" type="line"/>
      <point x="1364" y="713" type="line"/>
      <point x="1364" y="780" type="line"/>
      <point x="1243" y="780" type="line"/>
      <point x="1189" y="709"/>
      <point x="1179" y="696"/>
      <point x="1179" y="685" type="curve" smooth="yes"/>
      <point x="1179" y="672"/>
      <point x="1185" y="665"/>
      <point x="1248" y="588" type="curve"/>
    </contour>
    <contour>
      <point x="1742" y="244" type="line"/>
      <point x="1834" y="244" type="line"/>
      <point x="1834" y="830" type="line"/>
      <point x="1742" y="830" type="line"/>
      <point x="1684" y="732"/>
      <point x="1645" y="699"/>
      <point x="1579" y="699" type="curve" smooth="yes"/>
      <point x="1548" y="699"/>
      <point x="1535" y="715"/>
      <point x="1535" y="733" type="curve" smooth="yes"/>
      <point x="1535" y="749"/>
      <point x="1548" y="763"/>
      <point x="1572" y="763" type="curve" smooth="yes"/>
      <point x="1588" y="763" type="line"/>
      <point x="1588" y="830" type="line"/>
      <point x="1562" y="830" type="line" smooth="yes"/>
      <point x="1494" y="830"/>
      <point x="1444" y="801"/>
      <point x="1444" y="732" type="curve" smooth="yes"/>
      <point x="1444" y="680"/>
      <point x="1483" y="632"/>
      <point x="1574" y="632" type="curve" smooth="yes"/>
      <point x="1648" y="632"/>
      <point x="1707" y="659"/>
      <point x="1742" y="706" type="curve"/>
    </contour>
  </outline>
</glyph>
<glyph name="uni17D9" format="2">
  <advance width="732"/>
  <unicode hex="17D9"/>
  <note>
uni17D9
</note>
  <outline>
    <contour>
      <point x="366" y="244" type="curve" smooth="yes"/>
      <point x="545" y="244"/>
      <point x="635" y="342"/>
      <point x="635" y="537" type="curve" smooth="yes"/>
      <point x="635" y="732"/>
      <point x="545" y="830"/>
      <point x="366" y="830" type="curve" smooth="yes"/>
      <point x="187" y="830"/>
      <point x="98" y="732"/>
      <point x="98" y="537" type="curve" smooth="yes"/>
      <point x="98" y="342"/>
      <point x="187" y="244"/>
    </contour>
    <contour>
      <point x="366" y="293" type="curve" smooth="yes"/>
      <point x="232" y="293"/>
      <point x="165" y="374"/>
      <point x="165" y="537" type="curve" smooth="yes"/>
      <point x="165" y="700"/>
      <point x="232" y="781"/>
      <point x="366" y="781" type="curve" smooth="yes"/>
      <point x="500" y="781"/>
      <point x="568" y="700"/>
      <point x="568" y="537" type="curve" smooth="yes"/>
      <point x="568" y="374"/>
      <point x="500" y="293"/>
    </contour>
    <contour>
      <point x="366" y="342" type="curve" smooth="yes"/>
      <point x="456" y="342"/>
      <point x="500" y="407"/>
      <point x="500" y="537" type="curve" smooth="yes"/>
      <point x="500" y="667"/>
      <point x="456" y="732"/>
      <point x="366" y="732" type="curve" smooth="yes"/>
      <point x="277" y="732"/>
      <point x="232" y="667"/>
      <point x="232" y="537" type="curve" smooth="yes"/>
      <point x="232" y="407"/>
      <point x="277" y="342"/>
    </contour>
    <contour>
      <point x="366" y="390" type="curve" smooth="yes"/>
      <point x="322" y="390"/>
      <point x="299" y="439"/>
      <point x="299" y="537" type="curve" smooth="yes"/>
      <point x="299" y="635"/>
      <point x="322" y="683"/>
      <point x="366" y="683" type="curve" smooth="yes"/>
      <point x="411" y="683"/>
      <point x="434" y="635"/>
      <point x="434" y="537" type="curve" smooth="yes"/>
      <point x="434" y="439"/>
      <point x="411" y="390"/>
    </contour>
  </outline>
</glyph>
<glyph name="uni17DA" format="2">
  <advance width="1399"/>
  <unicode hex="17DA"/>
  <note>
uni17DA
</note>
  <outline>
    <contour>
      <point x="328" y="244" type="curve" smooth="yes"/>
      <point x="472" y="244"/>
      <point x="516" y="331"/>
      <point x="607" y="509" type="curve" smooth="yes"/>
      <point x="704" y="698" type="line"/>
      <point x="831" y="297" type="line"/>
      <point x="912" y="297" type="line"/>
      <point x="1013" y="647" type="line"/>
      <point x="1094" y="350" type="line"/>
      <point x="1167" y="350" type="line"/>
      <point x="1227" y="499" type="line"/>
      <point x="1319" y="499" type="line"/>
      <point x="1319" y="563" type="line"/>
      <point x="1191" y="563" type="line"/>
      <point x="1135" y="443" type="line"/>
      <point x="1053" y="722" type="line"/>
      <point x="972" y="722" type="line"/>
      <point x="871" y="387" type="line"/>
      <point x="748" y="775" type="line"/>
      <point x="667" y="775" type="line"/>
      <point x="548" y="536" type="line" smooth="yes"/>
      <point x="466" y="371"/>
      <point x="414" y="307"/>
      <point x="332" y="307" type="curve" smooth="yes"/>
      <point x="277" y="307"/>
      <point x="189" y="359"/>
      <point x="189" y="539" type="curve" smooth="yes"/>
      <point x="189" y="707"/>
      <point x="260" y="767"/>
      <point x="327" y="767" type="curve" smooth="yes"/>
      <point x="393" y="767"/>
      <point x="415" y="721"/>
      <point x="415" y="685" type="curve" smooth="yes"/>
      <point x="415" y="641"/>
      <point x="393" y="601"/>
      <point x="333" y="601" type="curve"/>
      <point x="333" y="541" type="line"/>
      <point x="435" y="541"/>
      <point x="507" y="594"/>
      <point x="507" y="684" type="curve" smooth="yes"/>
      <point x="507" y="767"/>
      <point x="442" y="830"/>
      <point x="326" y="830" type="curve" smooth="yes"/>
      <point x="228" y="830"/>
      <point x="98" y="777"/>
      <point x="98" y="540" type="curve" smooth="yes"/>
      <point x="98" y="371"/>
      <point x="176" y="244"/>
    </contour>
  </outline>
</glyph>
<glyph name="uni17DB" format="2">
  <advance width="332"/>
  <unicode hex="17DB"/>
  <note>
uni17DB
</note>
  <outline>
    <contour>
      <point x="78" y="503" type="line"/>
      <point x="292" y="503" type="line"/>
      <point x="292" y="571" type="line"/>
      <point x="78" y="571" type="line"/>
    </contour>
    <contour>
      <point x="152" y="555" type="line"/>
      <point x="244" y="555" type="line"/>
      <point x="244" y="604" type="line"/>
      <point x="147" y="712" type="line"/>
      <point x="147" y="713" type="line"/>
      <point x="268" y="713" type="line"/>
      <point x="268" y="780" type="line"/>
      <point x="147" y="780" type="line"/>
      <point x="93" y="709"/>
      <point x="83" y="696"/>
      <point x="83" y="685" type="curve" smooth="yes"/>
      <point x="83" y="672"/>
      <point x="89" y="665"/>
      <point x="152" y="588" type="curve"/>
    </contour>
    <contour>
      <point x="244" y="570" type="line"/>
      <point x="152" y="570" type="line"/>
      <point x="152" y="463" type="line"/>
      <point x="103" y="459"/>
      <point x="40" y="431"/>
      <point x="40" y="352" type="curve" smooth="yes"/>
      <point x="40" y="264"/>
      <point x="102" y="244"/>
      <point x="157" y="244" type="curve" smooth="yes"/>
      <point x="175" y="244" type="line" smooth="yes"/>
      <point x="219" y="244"/>
      <point x="244" y="264"/>
      <point x="244" y="313" type="curve" smooth="yes"/>
    </contour>
    <contour>
      <point x="152" y="311" type="line"/>
      <point x="131" y="311"/>
      <point x="107" y="321"/>
      <point x="107" y="353" type="curve" smooth="yes"/>
      <point x="107" y="385"/>
      <point x="133" y="395"/>
      <point x="152" y="395" type="curve"/>
    </contour>
  </outline>
</glyph>
<glyph name="uni17DC" format="2">
  <advance width="733"/>
  <unicode hex="17DC"/>
  <note>
uni17DC
</note>
  <outline>
    <contour>
      <point x="353" y="244" type="curve" smooth="yes"/>
      <point x="522" y="244"/>
      <point x="603" y="311"/>
      <point x="603" y="409" type="curve" smooth="yes"/>
      <point x="603" y="501"/>
      <point x="528" y="537"/>
      <point x="373" y="569" type="curve" smooth="yes"/>
      <point x="268" y="591"/>
      <point x="223" y="606"/>
      <point x="223" y="667" type="curve" smooth="yes"/>
      <point x="223" y="742"/>
      <point x="292" y="766"/>
      <point x="374" y="766" type="curve" smooth="yes"/>
      <point x="446" y="766"/>
      <point x="514" y="748"/>
      <point x="514" y="705" type="curve" smooth="yes"/>
      <point x="514" y="686"/>
      <point x="500" y="673"/>
      <point x="481" y="673" type="curve"/>
      <point x="481" y="617" type="line"/>
      <point x="540" y="617"/>
      <point x="598" y="656"/>
      <point x="598" y="713" type="curve" smooth="yes"/>
      <point x="598" y="782"/>
      <point x="510" y="833"/>
      <point x="374" y="833" type="curve" smooth="yes"/>
      <point x="226" y="833"/>
      <point x="130" y="771"/>
      <point x="130" y="662" type="curve" smooth="yes"/>
      <point x="130" y="558"/>
      <point x="221" y="534"/>
      <point x="353" y="505" type="curve" smooth="yes"/>
      <point x="488" y="475"/>
      <point x="515" y="453"/>
      <point x="515" y="405" type="curve" smooth="yes"/>
      <point x="515" y="352"/>
      <point x="480" y="312"/>
      <point x="354" y="312" type="curve" smooth="yes"/>
      <point x="288" y="312"/>
      <point x="225" y="323"/>
      <point x="225" y="367" type="curve" smooth="yes"/>
      <point x="225" y="398"/>
      <point x="255" y="407"/>
      <point x="274" y="407" type="curve"/>
      <point x="274" y="463" type="line"/>
      <point x="193" y="463"/>
      <point x="130" y="432"/>
      <point x="130" y="366" type="curve" smooth="yes"/>
      <point x="130" y="288"/>
      <point x="218" y="244"/>
    </contour>
  </outline>
</glyph>
<glyph name="uni17DD" format="2">
  <unicode hex="17DD"/>
  <note>
uni17DD
</note>
  <outline>
    <contour>
      <point x="-507" y="685" type="curve"/>
      <point x="-433" y="685" type="line"/>
      <point x="-433" y="765"/>
      <point x="-367" y="798"/>
      <point x="-303" y="798" type="curve" smooth="yes"/>
      <point x="-239" y="798"/>
      <point x="-172" y="765"/>
      <point x="-172" y="685" type="curve"/>
      <point x="-98" y="685" type="line"/>
      <point x="-98" y="796"/>
      <point x="-187" y="856"/>
      <point x="-303" y="856" type="curve" smooth="yes"/>
      <point x="-419" y="856"/>
      <point x="-507" y="796"/>
    </contour>
  </outline>
</glyph>
<glyph name="uni17E0" format="2">
  <advance width="635"/>
  <unicode hex="17E0"/>
  <note>
uni17E0
</note>
  <outline>
    <contour>
      <point x="317" y="244" type="curve" smooth="yes"/>
      <point x="464" y="244"/>
      <point x="537" y="306"/>
      <point x="537" y="430" type="curve" smooth="yes"/>
      <point x="537" y="644" type="line" smooth="yes"/>
      <point x="537" y="768"/>
      <point x="464" y="830"/>
      <point x="317" y="830" type="curve" smooth="yes"/>
      <point x="171" y="830"/>
      <point x="98" y="768"/>
      <point x="98" y="644" type="curve" smooth="yes"/>
      <point x="98" y="430" type="line" smooth="yes"/>
      <point x="98" y="306"/>
      <point x="171" y="244"/>
    </contour>
    <contour>
      <point x="317" y="311" type="curve" smooth="yes"/>
      <point x="232" y="311"/>
      <point x="189" y="351"/>
      <point x="189" y="430" type="curve" smooth="yes"/>
      <point x="189" y="644" type="line" smooth="yes"/>
      <point x="189" y="723"/>
      <point x="232" y="763"/>
      <point x="317" y="763" type="curve" smooth="yes"/>
      <point x="403" y="763"/>
      <point x="445" y="723"/>
      <point x="445" y="644" type="curve" smooth="yes"/>
      <point x="445" y="430" type="line" smooth="yes"/>
      <point x="445" y="351"/>
      <point x="403" y="311"/>
    </contour>
  </outline>
</glyph>
<glyph name="uni17E1" format="2">
  <advance width="635"/>
  <unicode hex="17E1"/>
  <note>
uni17E1
</note>
  <outline>
    <contour>
      <point x="317" y="244" type="curve" smooth="yes"/>
      <point x="464" y="244"/>
      <point x="537" y="296"/>
      <point x="537" y="400" type="curve" smooth="yes"/>
      <point x="537" y="674" type="line" smooth="yes"/>
      <point x="537" y="778"/>
      <point x="464" y="830"/>
      <point x="317" y="830" type="curve" smooth="yes"/>
      <point x="171" y="830"/>
      <point x="98" y="778"/>
      <point x="98" y="674" type="curve" smooth="yes"/>
      <point x="98" y="615" type="line" smooth="yes"/>
      <point x="98" y="537"/>
      <point x="149" y="498"/>
      <point x="251" y="498" type="curve" smooth="yes"/>
      <point x="317" y="498" type="line"/>
      <point x="317" y="574" type="line"/>
      <point x="251" y="574" type="line" smooth="yes"/>
      <point x="210" y="574"/>
      <point x="189" y="589"/>
      <point x="189" y="615" type="curve" smooth="yes"/>
      <point x="189" y="674" type="line" smooth="yes"/>
      <point x="189" y="733"/>
      <point x="232" y="763"/>
      <point x="317" y="763" type="curve" smooth="yes"/>
      <point x="403" y="763"/>
      <point x="445" y="733"/>
      <point x="445" y="674" type="curve" smooth="yes"/>
      <point x="445" y="400" type="line" smooth="yes"/>
      <point x="445" y="341"/>
      <point x="403" y="311"/>
      <point x="317" y="311" type="curve" smooth="yes"/>
      <point x="232" y="311"/>
      <point x="189" y="341"/>
      <point x="189" y="400" type="curve"/>
      <point x="98" y="400" type="line"/>
      <point x="98" y="296"/>
      <point x="171" y="244"/>
    </contour>
  </outline>
</glyph>
<glyph name="uni17E2" format="2">
  <advance width="752"/>
  <unicode hex="17E2"/>
  <note>
uni17E2
</note>
  <outline>
    <contour>
      <point x="375" y="244" type="curve" smooth="yes"/>
      <point x="561" y="244"/>
      <point x="654" y="309"/>
      <point x="654" y="439" type="curve" smooth="yes"/>
      <point x="654" y="830" type="line"/>
      <point x="562" y="830" type="line"/>
      <point x="462" y="745" type="line"/>
      <point x="361" y="830" type="line"/>
      <point x="269" y="830" type="line"/>
      <point x="269" y="537" type="line"/>
      <point x="386" y="537" type="line"/>
      <point x="386" y="604" type="line"/>
      <point x="361" y="604" type="line"/>
      <point x="361" y="748" type="line"/>
      <point x="462" y="663" type="line"/>
      <point x="562" y="748" type="line"/>
      <point x="562" y="439" type="line" smooth="yes"/>
      <point x="562" y="354"/>
      <point x="500" y="311"/>
      <point x="375" y="311" type="curve" smooth="yes"/>
      <point x="251" y="311"/>
      <point x="190" y="354"/>
      <point x="190" y="439" type="curve" smooth="yes"/>
      <point x="190" y="911" type="line" smooth="yes"/>
      <point x="190" y="938"/>
      <point x="176" y="952"/>
      <point x="144" y="952" type="curve" smooth="yes"/>
      <point x="49" y="952" type="line"/>
      <point x="49" y="885" type="line"/>
      <point x="98" y="885" type="line"/>
      <point x="98" y="439" type="line" smooth="yes"/>
      <point x="98" y="309"/>
      <point x="190" y="244"/>
    </contour>
  </outline>
</glyph>
<glyph name="uni17E3" format="2">
  <advance width="861"/>
  <unicode hex="17E3"/>
  <note>
uni17E3
</note>
  <outline>
    <contour>
      <point x="98" y="244" type="line"/>
      <point x="238" y="244" type="line"/>
      <point x="238" y="311" type="line"/>
      <point x="190" y="311" type="line"/>
      <point x="190" y="654" type="line" smooth="yes"/>
      <point x="190" y="726"/>
      <point x="222" y="763"/>
      <point x="287" y="763" type="curve" smooth="yes"/>
      <point x="352" y="763"/>
      <point x="385" y="726"/>
      <point x="385" y="669" type="curve" smooth="yes"/>
      <point x="385" y="244" type="line"/>
      <point x="477" y="244" type="line"/>
      <point x="477" y="669" type="line" smooth="yes"/>
      <point x="477" y="726"/>
      <point x="509" y="763"/>
      <point x="574" y="763" type="curve" smooth="yes"/>
      <point x="639" y="763"/>
      <point x="672" y="726"/>
      <point x="672" y="654" type="curve" smooth="yes"/>
      <point x="672" y="244" type="line"/>
      <point x="764" y="244" type="line"/>
      <point x="764" y="654" type="line" smooth="yes"/>
      <point x="764" y="771"/>
      <point x="701" y="830"/>
      <point x="574" y="830" type="curve" smooth="yes"/>
      <point x="509" y="830"/>
      <point x="461" y="815"/>
      <point x="430" y="786" type="curve"/>
      <point x="399" y="815"/>
      <point x="352" y="830"/>
      <point x="287" y="830" type="curve" smooth="yes"/>
      <point x="161" y="830"/>
      <point x="98" y="773"/>
      <point x="98" y="659" type="curve" smooth="yes"/>
    </contour>
  </outline>
</glyph>
<glyph name="uni17E4" format="2">
  <advance width="635"/>
  <unicode hex="17E4"/>
  <note>
uni17E4
</note>
  <outline>
    <contour>
      <point x="317" y="244" type="curve" smooth="yes"/>
      <point x="513" y="244" type="line"/>
      <point x="537" y="311" type="line"/>
      <point x="434" y="487" type="line"/>
      <point x="434" y="635" type="line"/>
      <point x="537" y="635" type="line"/>
      <point x="537" y="702" type="line"/>
      <point x="439" y="702" type="line" smooth="yes"/>
      <point x="375" y="702"/>
      <point x="342" y="683"/>
      <point x="342" y="635" type="curve" smooth="yes"/>
      <point x="342" y="463" type="line"/>
      <point x="474" y="311" type="line"/>
      <point x="317" y="311" type="line" smooth="yes"/>
      <point x="232" y="311"/>
      <point x="189" y="354"/>
      <point x="189" y="439" type="curve" smooth="yes"/>
      <point x="189" y="874" type="line" smooth="yes"/>
      <point x="189" y="922"/>
      <point x="178" y="947"/>
      <point x="137" y="947" type="curve" smooth="yes"/>
      <point x="49" y="947" type="line"/>
      <point x="49" y="880" type="line"/>
      <point x="98" y="880" type="line"/>
      <point x="98" y="439" type="line" smooth="yes"/>
      <point x="98" y="309"/>
      <point x="171" y="244"/>
    </contour>
  </outline>
</glyph>
<glyph name="uni17E5" format="2">
  <advance width="635"/>
  <unicode hex="17E5"/>
  <note>
uni17E5
</note>
  <outline>
    <contour>
      <point x="317" y="244" type="curve" smooth="yes"/>
      <point x="512" y="244" type="line"/>
      <point x="537" y="311" type="line"/>
      <point x="434" y="438" type="line"/>
      <point x="434" y="567" type="line"/>
      <point x="537" y="567" type="line"/>
      <point x="537" y="635" type="line"/>
      <point x="434" y="635" type="line" smooth="yes"/>
      <point x="376" y="635"/>
      <point x="342" y="586"/>
      <point x="342" y="537" type="curve" smooth="yes"/>
      <point x="342" y="424" type="line"/>
      <point x="464" y="311" type="line"/>
      <point x="317" y="311" type="line" smooth="yes"/>
      <point x="232" y="311"/>
      <point x="189" y="343"/>
      <point x="189" y="405" type="curve" smooth="yes"/>
      <point x="189" y="662" type="line" smooth="yes"/>
      <point x="189" y="701"/>
      <point x="209" y="721"/>
      <point x="236" y="737" type="curve"/>
      <point x="283" y="717"/>
      <point x="328" y="705"/>
      <point x="379" y="705" type="curve" smooth="yes"/>
      <point x="469" y="705"/>
      <point x="537" y="751"/>
      <point x="537" y="834" type="curve" smooth="yes"/>
      <point x="537" y="948" type="line"/>
      <point x="445" y="948" type="line"/>
      <point x="445" y="834" type="line" smooth="yes"/>
      <point x="445" y="802"/>
      <point x="420" y="773"/>
      <point x="375" y="773" type="curve" smooth="yes"/>
      <point x="351" y="773"/>
      <point x="334" y="774"/>
      <point x="302" y="783" type="curve"/>
      <point x="320" y="802"/>
      <point x="330" y="820"/>
      <point x="330" y="846" type="curve" smooth="yes"/>
      <point x="330" y="882"/>
      <point x="302" y="921"/>
      <point x="240" y="921" type="curve" smooth="yes"/>
      <point x="181" y="921"/>
      <point x="150" y="885"/>
      <point x="150" y="842" type="curve" smooth="yes"/>
      <point x="150" y="818"/>
      <point x="159" y="801"/>
      <point x="174" y="784" type="curve"/>
      <point x="121" y="759"/>
      <point x="97" y="729"/>
      <point x="97" y="663" type="curve" smooth="yes"/>
      <point x="97" y="405" type="line" smooth="yes"/>
      <point x="97" y="298"/>
      <point x="171" y="244"/>
    </contour>
  </outline>
</glyph>
<glyph name="uni17E6" format="2">
  <advance width="635"/>
  <unicode hex="17E6"/>
  <note>
uni17E6
</note>
  <outline>
    <contour>
      <point x="317" y="244" type="curve" smooth="yes"/>
      <point x="464" y="244"/>
      <point x="537" y="309"/>
      <point x="537" y="439" type="curve" smooth="yes"/>
      <point x="537" y="635" type="line" smooth="yes"/>
      <point x="537" y="765"/>
      <point x="464" y="830"/>
      <point x="317" y="830" type="curve" smooth="yes"/>
      <point x="274" y="830"/>
      <point x="231" y="821"/>
      <point x="189" y="804" type="curve"/>
      <point x="189" y="948" type="line"/>
      <point x="98" y="948" type="line"/>
      <point x="98" y="664" type="line"/>
      <point x="189" y="664" type="line"/>
      <point x="189" y="730"/>
      <point x="232" y="763"/>
      <point x="317" y="763" type="curve" smooth="yes"/>
      <point x="403" y="763"/>
      <point x="445" y="720"/>
      <point x="445" y="635" type="curve" smooth="yes"/>
      <point x="445" y="439" type="line" smooth="yes"/>
      <point x="445" y="354"/>
      <point x="403" y="311"/>
      <point x="317" y="311" type="curve" smooth="yes"/>
      <point x="232" y="311"/>
      <point x="189" y="346"/>
      <point x="189" y="415" type="curve" smooth="yes"/>
      <point x="189" y="484"/>
      <point x="216" y="519"/>
      <point x="269" y="519" type="curve" smooth="yes"/>
      <point x="342" y="519" type="line"/>
      <point x="342" y="586" type="line"/>
      <point x="269" y="586" type="line" smooth="yes"/>
      <point x="155" y="586"/>
      <point x="98" y="529"/>
      <point x="98" y="415" type="curve" smooth="yes"/>
      <point x="98" y="301"/>
      <point x="171" y="244"/>
    </contour>
  </outline>
</glyph>
<glyph name="uni17E7" format="2">
  <advance width="781"/>
  <unicode hex="17E7"/>
  <note>
uni17E7
</note>
  <outline>
    <contour>
      <point x="97" y="244" type="line"/>
      <point x="269" y="244" type="line"/>
      <point x="269" y="311" type="line"/>
      <point x="189" y="311" type="line"/>
      <point x="189" y="695" type="line" smooth="yes"/>
      <point x="189" y="736"/>
      <point x="199" y="757"/>
      <point x="218" y="757" type="curve" smooth="yes"/>
      <point x="233" y="757"/>
      <point x="253" y="742"/>
      <point x="278" y="711" type="curve" smooth="yes"/>
      <point x="286" y="701"/>
      <point x="295" y="696"/>
      <point x="305" y="696" type="curve" smooth="yes"/>
      <point x="315" y="696"/>
      <point x="324" y="701"/>
      <point x="333" y="711" type="curve" smooth="yes"/>
      <point x="359" y="741"/>
      <point x="377" y="757"/>
      <point x="393" y="757" type="curve" smooth="yes"/>
      <point x="412" y="757"/>
      <point x="421" y="736"/>
      <point x="421" y="695" type="curve" smooth="yes"/>
      <point x="421" y="364" type="line" smooth="yes"/>
      <point x="421" y="282"/>
      <point x="467" y="244"/>
      <point x="553" y="244" type="curve" smooth="yes"/>
      <point x="639" y="244"/>
      <point x="684" y="282"/>
      <point x="684" y="364" type="curve" smooth="yes"/>
      <point x="684" y="944" type="line"/>
      <point x="592" y="944" type="line"/>
      <point x="592" y="344" type="line" smooth="yes"/>
      <point x="592" y="323"/>
      <point x="573" y="311"/>
      <point x="553" y="311" type="curve" smooth="yes"/>
      <point x="533" y="311"/>
      <point x="513" y="323"/>
      <point x="513" y="344" type="curve" smooth="yes"/>
      <point x="513" y="695" type="line" smooth="yes"/>
      <point x="513" y="768"/>
      <point x="472" y="830"/>
      <point x="408" y="830" type="curve" smooth="yes"/>
      <point x="372" y="830"/>
      <point x="340" y="810"/>
      <point x="305" y="769" type="curve"/>
      <point x="271" y="810"/>
      <point x="243" y="830"/>
      <point x="204" y="830" type="curve" smooth="yes"/>
      <point x="132" y="830"/>
      <point x="97" y="768"/>
      <point x="97" y="695" type="curve" smooth="yes"/>
    </contour>
  </outline>
</glyph>
<glyph name="uni17E8" format="2">
  <advance width="635"/>
  <unicode hex="17E8"/>
  <note>
uni17E8
</note>
  <outline>
    <contour>
      <point x="98" y="244" type="line"/>
      <point x="205" y="244" type="line"/>
      <point x="318" y="347" type="line"/>
      <point x="431" y="244" type="line"/>
      <point x="537" y="244" type="line"/>
      <point x="537" y="557" type="line" smooth="yes"/>
      <point x="537" y="597"/>
      <point x="517" y="610"/>
      <point x="482" y="610" type="curve" smooth="yes"/>
      <point x="332" y="610" type="line"/>
      <point x="332" y="543" type="line"/>
      <point x="420" y="543" type="line" smooth="yes"/>
      <point x="437" y="543"/>
      <point x="445" y="536"/>
      <point x="445" y="519" type="curve" smooth="yes"/>
      <point x="445" y="326" type="line"/>
      <point x="318" y="442" type="line"/>
      <point x="189" y="325" type="line"/>
      <point x="189" y="674" type="line" smooth="yes"/>
      <point x="189" y="733"/>
      <point x="232" y="763"/>
      <point x="317" y="763" type="curve" smooth="yes"/>
      <point x="403" y="763"/>
      <point x="445" y="733"/>
      <point x="445" y="674" type="curve"/>
      <point x="537" y="674" type="line"/>
      <point x="537" y="938" type="line"/>
      <point x="445" y="938" type="line"/>
      <point x="445" y="804" type="line"/>
      <point x="404" y="821"/>
      <point x="361" y="830"/>
      <point x="317" y="830" type="curve" smooth="yes"/>
      <point x="171" y="830"/>
      <point x="98" y="778"/>
      <point x="98" y="674" type="curve" smooth="yes"/>
    </contour>
  </outline>
</glyph>
<glyph name="uni17E9" format="2">
  <advance width="635"/>
  <unicode hex="17E9"/>
  <note>
uni17E9
</note>
  <outline>
    <contour>
      <point x="317" y="244" type="curve" smooth="yes"/>
      <point x="464" y="244"/>
      <point x="537" y="299"/>
      <point x="537" y="387" type="curve" smooth="yes"/>
      <point x="537" y="463"/>
      <point x="480" y="505"/>
      <point x="366" y="505" type="curve" smooth="yes"/>
      <point x="317" y="505" type="line"/>
      <point x="317" y="443" type="line"/>
      <point x="366" y="443" type="line" smooth="yes"/>
      <point x="419" y="443"/>
      <point x="445" y="422"/>
      <point x="445" y="390" type="curve" smooth="yes"/>
      <point x="445" y="337"/>
      <point x="403" y="311"/>
      <point x="317" y="311" type="curve" smooth="yes"/>
      <point x="232" y="311"/>
      <point x="190" y="338"/>
      <point x="190" y="390" type="curve" smooth="yes"/>
      <point x="190" y="501" type="line" smooth="yes"/>
      <point x="190" y="538"/>
      <point x="210" y="557"/>
      <point x="265" y="557" type="curve" smooth="yes"/>
      <point x="464" y="557" type="line"/>
      <point x="464" y="624" type="line"/>
      <point x="265" y="624" type="line" smooth="yes"/>
      <point x="210" y="624"/>
      <point x="189" y="645"/>
      <point x="189" y="684" type="curve" smooth="yes"/>
      <point x="189" y="737"/>
      <point x="232" y="763"/>
      <point x="317" y="763" type="curve" smooth="yes"/>
      <point x="403" y="763"/>
      <point x="445" y="743"/>
      <point x="445" y="704" type="curve"/>
      <point x="537" y="704" type="line"/>
      <point x="537" y="944" type="line"/>
      <point x="445" y="944" type="line"/>
      <point x="445" y="811" type="line"/>
      <point x="404" y="824"/>
      <point x="361" y="830"/>
      <point x="317" y="830" type="curve" smooth="yes"/>
      <point x="179" y="830"/>
      <point x="98" y="783"/>
      <point x="98" y="694" type="curve" smooth="yes"/>
      <point x="98" y="638"/>
      <point x="133" y="605"/>
      <point x="165" y="591" type="curve"/>
      <point x="133" y="577"/>
      <point x="98" y="545"/>
      <point x="98" y="480" type="curve" smooth="yes"/>
      <point x="98" y="401" type="line" smooth="yes"/>
      <point x="98" y="293"/>
      <point x="171" y="244"/>
    </contour>
  </outline>
</glyph>
<glyph name="uni17F0" format="2">
  <advance width="391"/>
  <unicode hex="17F0"/>
  <note>
uni17F0
</note>
  <outline>
    <contour>
      <point x="195" y="244" type="curve" smooth="yes"/>
      <point x="298" y="244"/>
      <point x="339" y="316"/>
      <point x="339" y="415" type="curve" smooth="yes"/>
      <point x="339" y="514"/>
      <point x="298" y="586"/>
      <point x="195" y="586" type="curve" smooth="yes"/>
      <point x="93" y="586"/>
      <point x="52" y="514"/>
      <point x="52" y="415" type="curve" smooth="yes"/>
      <point x="52" y="316"/>
      <point x="93" y="244"/>
    </contour>
    <contour>
      <point x="195" y="293" type="curve" smooth="yes"/>
      <point x="146" y="293"/>
      <point x="122" y="333"/>
      <point x="122" y="415" type="curve" smooth="yes"/>
      <point x="122" y="496"/>
      <point x="146" y="537"/>
      <point x="195" y="537" type="curve" smooth="yes"/>
      <point x="244" y="537"/>
      <point x="269" y="496"/>
      <point x="269" y="415" type="curve" smooth="yes"/>
      <point x="269" y="333"/>
      <point x="244" y="293"/>
    </contour>
  </outline>
</glyph>
<glyph name="uni17F1" format="2">
  <advance width="433"/>
  <unicode hex="17F1"/>
  <note>
uni17F1
</note>
  <outline>
    <contour>
      <point x="50" y="244" type="line"/>
      <point x="121" y="244" type="line"/>
      <point x="216" y="520" type="line"/>
      <point x="312" y="244" type="line"/>
      <point x="383" y="244" type="line"/>
      <point x="265" y="586" type="line"/>
      <point x="167" y="586" type="line"/>
    </contour>
  </outline>
</glyph>
<glyph name="uni17F3" format="2">
  <advance width="715"/>
  <unicode hex="17F3"/>
  <note>
uni17F3
</note>
  <outline>
    <contour>
      <point x="547" y="586" type="line"/>
      <point x="449" y="586" type="line"/>
      <point x="357" y="318" type="line"/>
      <point x="265" y="586" type="line"/>
      <point x="167" y="586" type="line"/>
      <point x="50" y="244" type="line"/>
      <point x="121" y="244" type="line"/>
      <point x="216" y="520" type="line"/>
      <point x="312" y="244" type="line"/>
      <point x="403" y="244" type="line"/>
      <point x="498" y="520" type="line"/>
      <point x="594" y="244" type="line"/>
      <point x="665" y="244" type="line"/>
    </contour>
  </outline>
</glyph>
<glyph name="uni17F4" format="2">
  <advance width="433"/>
  <unicode hex="17F4"/>
  <note>
uni17F4
</note>
  <outline>
    <contour>
      <point x="168" y="244" type="line"/>
      <point x="266" y="244" type="line"/>
      <point x="383" y="586" type="line"/>
      <point x="312" y="586" type="line"/>
      <point x="217" y="310" type="line"/>
      <point x="121" y="586" type="line"/>
      <point x="50" y="586" type="line"/>
    </contour>
  </outline>
</glyph>
<glyph name="uni17F5" format="2">
  <advance width="391"/>
  <unicode hex="17F5"/>
  <note>
uni17F5
</note>
  <outline>
    <contour>
      <point x="196" y="244" type="curve" smooth="yes"/>
      <point x="271" y="244"/>
      <point x="303" y="285"/>
      <point x="303" y="342" type="curve" smooth="yes"/>
      <point x="303" y="384"/>
      <point x="287" y="431"/>
      <point x="235" y="478" type="curve"/>
      <point x="342" y="586" type="line"/>
      <point x="269" y="586" type="line"/>
      <point x="195" y="513" type="line"/>
      <point x="123" y="586" type="line"/>
      <point x="49" y="586" type="line"/>
      <point x="154" y="478" type="line"/>
      <point x="104" y="431"/>
      <point x="88" y="384"/>
      <point x="88" y="342" type="curve" smooth="yes"/>
      <point x="88" y="285"/>
      <point x="121" y="244"/>
    </contour>
    <contour>
      <point x="147" y="342" type="curve" smooth="yes"/>
      <point x="147" y="369"/>
      <point x="163" y="400"/>
      <point x="195" y="438" type="curve"/>
      <point x="228" y="400"/>
      <point x="245" y="369"/>
      <point x="244" y="342" type="curve" smooth="yes"/>
      <point x="243" y="312"/>
      <point x="219" y="295"/>
      <point x="195" y="296" type="curve" smooth="yes"/>
      <point x="171" y="296"/>
      <point x="147" y="313"/>
    </contour>
  </outline>
</glyph>
<glyph name="uni17F6" format="2">
  <advance width="269"/>
  <unicode hex="17F6"/>
  <note>
uni17F6
</note>
  <outline>
    <contour>
      <point x="168" y="244" type="line"/>
      <point x="239" y="244" type="line"/>
      <point x="120" y="586" type="line"/>
      <point x="49" y="586" type="line"/>
    </contour>
  </outline>
</glyph>
<glyph name="uni17F7" format="2">
  <advance width="568"/>
  <unicode hex="17F7"/>
  <note>
uni17F7
</note>
  <outline>
    <contour>
      <point x="50" y="244" type="line"/>
      <point x="120" y="244" type="line"/>
      <point x="215" y="520" type="line"/>
      <point x="311" y="244" type="line"/>
      <point x="396" y="244" type="line"/>
      <point x="518" y="586" type="line"/>
      <point x="448" y="586" type="line"/>
      <point x="356" y="318" type="line"/>
      <point x="264" y="586" type="line"/>
      <point x="167" y="586" type="line"/>
    </contour>
  </outline>
</glyph>
<glyph name="uni17F8" format="2">
  <advance width="287"/>
  <unicode hex="17F8"/>
  <note>
uni17F8
</note>
  <outline>
    <contour>
      <point x="50" y="244" type="line"/>
      <point x="118" y="244" type="line"/>
      <point x="237" y="586" type="line"/>
      <point x="167" y="586" type="line"/>
    </contour>
  </outline>
</glyph>
<glyph name="uni17F9" format="2">
  <advance width="466"/>
  <unicode hex="17F9"/>
  <note>
uni17F9
</note>
  <outline>
    <contour>
      <point x="245" y="73" type="line"/>
      <point x="367" y="73"/>
      <point x="416" y="119"/>
      <point x="416" y="190" type="curve" smooth="yes"/>
      <point x="416" y="255"/>
      <point x="372" y="293"/>
      <point x="289" y="293" type="curve" smooth="yes"/>
      <point x="152" y="293" type="line"/>
      <point x="369" y="467" type="line"/>
      <point x="335" y="521" type="line"/>
      <point x="50" y="299" type="line"/>
      <point x="69" y="234" type="line"/>
      <point x="274" y="234" type="line" smooth="yes"/>
      <point x="327" y="234"/>
      <point x="338" y="213"/>
      <point x="338" y="186" type="curve" smooth="yes"/>
      <point x="338" y="143"/>
      <point x="297" y="132"/>
      <point x="245" y="132" type="curve"/>
    </contour>
  </outline>
</glyph>
